<?xml version="1.0" encoding="utf-8"?>
<!-- Generator: Adobe Illustrator 16.0.0, SVG Export Plug-In . SVG Version: 6.00 Build 0)  -->
<!DOCTYPE svg PUBLIC "-//W3C//DTD SVG 1.1//EN" "http://www.w3.org/Graphics/SVG/1.1/DTD/svg11.dtd">
<svg version="1.1" id="Layer_1" xmlns="http://www.w3.org/2000/svg" xmlns:xlink="http://www.w3.org/1999/xlink" x="0px" y="0px"
	 width="2133.293px" height="319.648px" viewBox="0 0 2133.293 319.648" enable-background="new 0 0 2133.293 319.648"
	 xml:space="preserve">
<g>
	<path fill="#201F21" d="M567.36,243.279c1.276,2.218,1.916,4.519,1.916,6.907c0,3.069-1.021,5.88-3.069,8.438
		c-2.556,3.069-6.481,4.606-11.766,4.606c-4.093,0-7.845-0.933-11.255-2.816c-12.276-6.989-18.414-21.225-18.414-42.714
		c0-6.138-2.007-10.997-6.012-14.577c-4.008-3.585-9.764-5.375-17.264-5.375h-47.831v49.62c0,4.606-1.238,8.362-3.708,11.255
		c-2.473,2.904-5.756,4.348-9.847,4.348c-4.949,0-9.254-1.488-12.918-4.474c-3.667-2.981-5.499-6.693-5.499-11.129V99.535
		c0-4.436,1.491-8.142,4.478-11.129c2.981-2.981,6.689-4.474,11.126-4.474h73.662c8.864,0,17.223,2.388,25.068,7.159
		c7.84,4.776,14.107,11.343,18.798,19.693c4.689,8.361,7.033,17.739,7.033,28.137c0,8.532-2.3,16.844-6.904,24.937
		c-4.606,8.104-10.577,14.543-17.906,19.314c10.745,7.505,16.627,17.563,17.648,30.18c0.513,2.729,0.769,5.375,0.769,7.928
		c0.678,5.287,1.362,9.081,2.045,11.387c0.681,2.3,2.215,4.052,4.604,5.243C564.33,239.277,566.081,241.067,567.36,243.279z
		 M518.634,167.059c2.896-2.899,5.282-6.78,7.162-11.639c1.872-4.859,2.811-10.102,2.811-15.729c0-4.771-0.939-9.163-2.811-13.171
		c-1.88-4.008-4.266-7.203-7.162-9.591c-2.901-2.388-5.883-3.585-8.954-3.585h-56.014v58.064h56.014
		C512.751,171.407,515.733,169.958,518.634,167.059z"/>
	<path fill="#201F21" d="M711.492,201.334c-3.069,2.553-6.652,3.832-10.745,3.832h-84.406c2.048,10.063,6.734,17.953,14.069,23.663
		c7.329,5.716,15.603,8.565,24.81,8.565c6.989,0,12.446-0.637,16.369-1.916c3.922-1.279,7.036-2.641,9.336-4.09
		c2.303-1.449,3.876-2.432,4.732-2.942c3.069-1.538,5.968-2.301,8.697-2.301c3.58,0,6.651,1.279,9.207,3.832
		c2.558,2.559,3.837,5.545,3.837,8.955c0,4.606-2.391,8.785-7.162,12.534c-4.776,3.926-11.169,7.247-19.183,9.976
		c-8.019,2.723-16.114,4.09-24.299,4.09c-14.324,0-26.817-2.981-37.471-8.949c-10.659-5.968-18.889-14.198-24.684-24.684
		c-5.798-10.486-8.696-22.296-8.696-35.428c0-14.659,3.072-27.534,9.209-38.618c6.138-11.084,14.236-19.567,24.297-25.453
		c10.061-5.88,20.803-8.823,32.23-8.823c11.252,0,21.867,3.069,31.843,9.207c9.976,6.138,17.945,14.412,23.916,24.81
		c5.968,10.404,8.952,21.659,8.952,33.765C716.177,195.449,714.561,198.776,711.492,201.334z M616.599,179.593h67.014v-1.795
		c-0.684-7.159-4.181-13.297-10.489-18.414s-13.47-7.67-21.483-7.67C631.856,151.714,620.178,161.009,616.599,179.593z"/>
	<path fill="#201F21" d="M934.781,139.048c6.479,10.322,9.72,24.602,9.72,42.846v65.476c0,4.436-1.452,8.147-4.348,11.129
		c-2.901,2.986-6.566,4.474-11,4.474c-4.436,0-8.101-1.488-10.997-4.474c-2.901-2.981-4.348-6.693-4.348-11.129v-65.476
		c0-9.377-1.834-16.756-5.499-22.125c-3.67-5.369-10.105-8.054-19.312-8.054c-9.553,0-17.008,2.855-22.38,8.565
		c-5.373,5.715-8.057,12.918-8.057,21.615v65.476c0,4.436-1.452,8.147-4.348,11.129c-2.902,2.986-6.566,4.474-11,4.474
		c-4.436,0-8.101-1.488-10.997-4.474c-2.901-2.981-4.348-6.693-4.348-11.129v-65.476c0-9.377-1.833-16.756-5.501-22.125
		c-3.667-5.369-10.102-8.054-19.309-8.054c-9.553,0-17.009,2.855-22.381,8.565c-5.372,5.715-8.057,12.918-8.057,21.615v65.476
		c0,4.436-1.452,8.147-4.348,11.129c-2.901,2.986-6.566,4.474-11,4.474c-4.436,0-8.101-1.488-10.997-4.474
		c-2.901-2.981-4.348-6.693-4.348-11.129V141.738c0-4.436,1.447-8.142,4.348-11.128c2.896-2.981,6.561-4.475,10.997-4.475
		c4.433,0,8.098,1.493,11,4.475c2.896,2.986,4.348,6.692,4.348,11.128v4.09c4.604-6.138,10.442-11.381,17.52-15.729
		c7.074-4.348,14.963-6.522,23.66-6.522c21.486,0,35.209,9.377,41.18,28.137c3.922-7.165,9.849-13.643,17.777-19.44
		c7.93-5.798,16.92-8.697,26.984-8.697C916.622,123.577,928.299,128.737,934.781,139.048z"/>
	<path fill="#201F21" d="M978.773,106.694c-2.391-1.872-3.583-5.199-3.583-9.976V91.86c0-4.771,1.279-8.098,3.838-9.976
		c2.559-1.872,6.651-2.811,12.276-2.811c5.968,0,10.146,0.939,12.534,2.811c2.385,1.877,3.582,5.205,3.582,9.976v4.859
		c0,4.947-1.241,8.312-3.708,10.102c-2.476,1.79-6.695,2.69-12.663,2.69C985.252,109.511,981.159,108.572,978.773,106.694z
		 M1002.305,258.499c-2.902,2.986-6.566,4.474-11,4.474c-4.437,0-8.101-1.488-10.997-4.474c-2.901-2.981-4.348-6.693-4.348-11.129
		V141.738c0-4.436,1.447-8.142,4.348-11.128c2.896-2.981,6.561-4.475,10.997-4.475c4.433,0,8.098,1.493,11,4.475
		c2.899,2.986,4.348,6.692,4.348,11.128V247.37C1006.653,251.806,1005.204,255.517,1002.305,258.499z"/>
	<path fill="#201F21" d="M1147.328,139.048c6.651,10.322,9.976,24.602,9.976,42.846v65.476c0,4.436-1.449,8.147-4.348,11.129
		c-2.901,2.986-6.566,4.474-10.997,4.474c-4.436,0-8.101-1.488-11-4.474c-2.901-2.981-4.348-6.693-4.348-11.129v-65.476
		c0-9.377-1.963-16.756-5.883-22.125c-3.925-5.369-10.659-8.054-20.207-8.054c-9.891,0-17.648,2.855-23.276,8.565
		c-5.627,5.715-8.441,12.918-8.441,21.615v65.476c0,4.436-1.45,8.147-4.348,11.129c-2.902,2.986-6.566,4.474-10.997,4.474
		c-4.436,0-8.101-1.488-11-4.474c-2.902-2.981-4.348-6.693-4.348-11.129V141.738c0-4.436,1.446-8.142,4.348-11.128
		c2.899-2.981,6.563-4.475,11-4.475c4.431,0,8.095,1.493,10.997,4.475c2.898,2.986,4.348,6.692,4.348,11.128v4.348
		c4.604-6.144,10.615-11.425,18.033-15.861c7.417-4.431,15.559-6.649,24.426-6.649
		C1128.656,123.577,1140.68,128.737,1147.328,139.048z"/>
	<path fill="#201F21" d="M1191.577,106.694c-2.391-1.872-3.583-5.199-3.583-9.976V91.86c0-4.771,1.279-8.098,3.837-9.976
		c2.559-1.872,6.651-2.811,12.276-2.811c5.968,0,10.146,0.939,12.534,2.811c2.385,1.877,3.582,5.205,3.582,9.976v4.859
		c0,4.947-1.241,8.312-3.708,10.102c-2.476,1.79-6.695,2.69-12.663,2.69C1198.055,109.511,1193.962,108.572,1191.577,106.694z
		 M1215.107,258.499c-2.901,2.986-6.566,4.474-11,4.474c-4.436,0-8.101-1.488-10.997-4.474c-2.901-2.981-4.348-6.693-4.348-11.129
		V141.738c0-4.436,1.447-8.142,4.348-11.128c2.896-2.981,6.561-4.475,10.997-4.475c4.433,0,8.098,1.493,11,4.475
		c2.899,2.986,4.348,6.692,4.348,11.128V247.37C1219.456,251.806,1218.006,255.517,1215.107,258.499z"/>
	<path fill="#201F21" d="M1240.684,234.072c0-4.43,2.215-8.186,6.651-11.255c2.385-1.537,4.859-2.3,7.417-2.3
		c3.579,0,6.989,1.62,10.23,4.859c5.114,5.287,10.442,9.207,15.985,11.766c5.54,2.559,12.235,3.837,20.081,3.837
		c13.3-0.51,19.949-5.54,19.949-15.092c0-4.941-2.262-8.697-6.778-11.255c-4.519-2.559-11.554-5.117-21.102-7.675
		c-9.891-2.723-17.947-5.452-24.17-8.181c-6.226-2.729-11.598-6.863-16.114-12.408c-4.521-5.54-6.778-13.001-6.778-22.378
		c0-8.186,2.341-15.307,7.033-21.357c4.689-6.05,10.827-10.745,18.417-14.071c7.585-3.322,15.642-4.985,24.171-4.985
		c8.696,0,17.393,1.62,26.089,4.859c8.696,3.239,15.515,8.016,20.462,14.324c2.215,2.729,3.324,5.797,3.324,9.207
		c0,3.925-1.623,7.165-4.859,9.717c-2.391,1.883-5.117,2.816-8.186,2.816c-3.753,0-6.822-1.191-9.207-3.58
		c-3.069-3.75-7.033-6.736-11.895-8.954c-4.859-2.213-10.357-3.327-16.498-3.327c-12.96,0-19.438,4.694-19.438,14.071
		c0,3.75,1.191,6.775,3.583,9.081c2.385,2.3,5.411,4.09,9.078,5.37c3.665,1.279,8.826,2.855,15.474,4.732
		c9.21,2.559,16.882,5.205,23.021,7.928c6.138,2.729,11.34,6.907,15.603,12.534c4.26,5.627,6.393,13.045,6.393,22.252
		c0,8.356-2.473,15.647-7.417,21.867c-4.947,6.226-11.299,10.958-19.054,14.198c-7.763,3.239-15.732,4.859-23.915,4.859
		c-11.255,0-21.741-1.877-31.462-5.627c-9.72-3.75-17.648-9.8-23.786-18.162C1241.452,239.7,1240.684,237.142,1240.684,234.072z"/>
	<path fill="#201F21" d="M1468.834,130.352c8.864,4.524,13.3,10.536,13.3,18.035c0,3.75-1.109,7.033-3.324,9.844
		c-2.218,2.816-5.114,4.222-8.696,4.222c-2.729,0-4.947-0.384-6.649-1.147c-1.708-0.769-3.371-1.795-4.988-3.075
		c-1.623-1.274-3.198-2.339-4.732-3.195c-1.708-0.851-4.222-1.62-7.546-2.3c-3.324-0.681-6.009-1.021-8.057-1.021
		c-12.789,0-22.809,3.964-30.053,11.892c-7.25,7.928-10.871,18.288-10.871,31.074c0,12.276,3.665,22.472,11,30.57
		c7.329,8.098,16.709,12.144,28.134,12.144c8.353,0,14.579-1.021,18.672-3.069c1.021-0.511,2.429-1.406,4.219-2.685
		c1.79-1.279,3.454-2.256,4.988-2.942c1.534-0.675,3.409-1.021,5.627-1.021c4.261,0,7.629,1.367,10.103,4.096
		c2.47,2.729,3.708,6.226,3.708,10.486c0,4.09-2.388,7.928-7.16,11.507c-4.776,3.58-11.087,6.44-18.927,8.57
		c-7.845,2.13-16.204,3.195-25.068,3.195c-13.133,0-24.682-3.069-34.657-9.207s-17.692-14.62-23.146-25.453
		c-5.46-10.827-8.186-22.889-8.186-36.191c0-13.808,2.852-26.089,8.567-36.828c5.712-10.744,13.685-19.139,23.916-25.194
		c10.231-6.05,21.826-9.081,34.786-9.081C1448.285,123.577,1459.968,125.839,1468.834,130.352z"/>
	<path fill="#201F21" d="M1623.833,201.334c-3.069,2.553-6.648,3.832-10.741,3.832h-84.407c2.045,10.063,6.734,17.953,14.069,23.663
		c7.329,5.716,15.604,8.565,24.811,8.565c6.988,0,12.446-0.637,16.369-1.916c3.922-1.279,7.035-2.641,9.336-4.09
		c2.3-1.449,3.876-2.432,4.732-2.942c3.068-1.538,5.968-2.301,8.696-2.301c3.579,0,6.648,1.279,9.207,3.832
		c2.559,2.559,3.838,5.545,3.838,8.955c0,4.606-2.392,8.785-7.162,12.534c-4.776,3.926-11.17,7.247-19.186,9.976
		c-8.016,2.723-16.114,4.09-24.297,4.09c-14.324,0-26.817-2.981-37.474-8.949c-10.656-5.968-18.886-14.198-24.681-24.684
		c-5.797-10.486-8.696-22.296-8.696-35.428c0-14.659,3.072-27.534,9.21-38.618c6.138-11.084,14.236-19.567,24.297-25.453
		c10.061-5.88,20.802-8.823,32.23-8.823c11.252,0,21.867,3.069,31.844,9.207c9.976,6.138,17.941,14.412,23.915,24.81
		c5.968,10.404,8.951,21.659,8.951,33.765C1628.522,195.449,1626.903,198.776,1623.833,201.334z M1528.941,179.593h67.014v-1.795
		c-0.681-7.159-4.179-13.297-10.486-18.414c-6.309-5.117-13.474-7.67-21.483-7.67
		C1544.201,151.714,1532.521,161.009,1528.941,179.593z"/>
	<path fill="#201F21" d="M1763.485,139.048c6.651,10.322,9.976,24.602,9.976,42.846v65.476c0,4.436-1.452,8.147-4.348,11.129
		c-2.901,2.986-6.566,4.474-11,4.474c-4.437,0-8.098-1.488-10.997-4.474c-2.901-2.981-4.348-6.693-4.348-11.129v-65.476
		c0-9.377-1.963-16.756-5.886-22.125c-3.923-5.369-10.656-8.054-20.204-8.054c-9.894,0-17.65,2.855-23.275,8.565
		c-5.628,5.715-8.441,12.918-8.441,21.615v65.476c0,4.436-1.449,8.147-4.348,11.129c-2.902,2.986-6.566,4.474-10.997,4.474
		c-4.437,0-8.104-1.488-11-4.474c-2.901-2.981-4.349-6.693-4.349-11.129V141.738c0-4.436,1.447-8.142,4.349-11.128
		c2.896-2.981,6.563-4.475,11-4.475c4.431,0,8.095,1.493,10.997,4.475c2.898,2.986,4.348,6.692,4.348,11.128v4.348
		c4.604-6.144,10.615-11.425,18.032-15.861c7.418-4.431,15.557-6.649,24.427-6.649
		C1744.813,123.577,1756.833,128.737,1763.485,139.048z"/>
	<path fill="#201F21" d="M1901.346,130.352c8.867,4.524,13.303,10.536,13.303,18.035c0,3.75-1.111,7.033-3.326,9.844
		c-2.219,2.816-5.114,4.222-8.697,4.222c-2.729,0-4.946-0.384-6.648-1.147c-1.707-0.769-3.371-1.795-4.987-3.075
		c-1.622-1.274-3.198-2.339-4.733-3.195c-1.704-0.851-4.219-1.62-7.546-2.3c-3.324-0.681-6.009-1.021-8.054-1.021
		c-12.793,0-22.813,3.964-30.057,11.892c-7.25,7.928-10.867,18.288-10.867,31.074c0,12.276,3.662,22.472,10.996,30.57
		c7.33,8.098,16.71,12.144,28.135,12.144c8.354,0,14.579-1.021,18.672-3.069c1.024-0.511,2.43-1.406,4.22-2.685
		c1.79-1.279,3.453-2.256,4.99-2.942c1.532-0.675,3.407-1.021,5.625-1.021c4.261,0,7.629,1.367,10.104,4.096
		c2.471,2.729,3.706,6.226,3.706,10.486c0,4.09-2.388,7.928-7.159,11.507c-4.776,3.58-11.088,6.44-18.928,8.57
		c-7.846,2.13-16.204,3.195-25.065,3.195c-13.132,0-24.684-3.069-34.659-9.207s-17.692-14.62-23.146-25.453
		c-5.461-10.827-8.187-22.889-8.187-36.191c0-13.808,2.855-26.089,8.57-36.828c5.71-10.744,13.682-19.139,23.915-25.194
		c10.229-6.05,21.824-9.081,34.786-9.081C1880.797,123.577,1892.48,125.839,1901.346,130.352z"/>
	<path fill="#201F21" d="M2056.349,201.334c-3.069,2.553-6.651,3.832-10.742,3.832h-84.406c2.046,10.063,6.731,17.953,14.066,23.663
		c7.329,5.716,15.603,8.565,24.81,8.565c6.989,0,12.446-0.637,16.372-1.916c3.92-1.279,7.033-2.641,9.333-4.09
		c2.304-1.449,3.877-2.432,4.732-2.942c3.069-1.538,5.969-2.301,8.697-2.301c3.579,0,6.651,1.279,9.207,3.832
		c2.559,2.559,3.838,5.545,3.838,8.955c0,4.606-2.389,8.785-7.16,12.534c-4.776,3.926-11.172,7.247-19.186,9.976
		c-8.018,2.723-16.113,4.09-24.297,4.09c-14.323,0-26.819-2.981-37.473-8.949c-10.659-5.968-18.889-14.198-24.682-24.684
		c-5.801-10.486-8.696-22.296-8.696-35.428c0-14.659,3.069-27.534,9.207-38.618s14.236-19.567,24.3-25.453
		c10.058-5.88,20.803-8.823,32.228-8.823c11.255,0,21.867,3.069,31.843,9.207s17.945,14.412,23.916,24.81
		c5.967,10.404,8.954,21.659,8.954,33.765C2061.035,195.449,2059.417,198.776,2056.349,201.334z M1961.456,179.593h67.014v-1.795
		c-0.684-7.159-4.181-13.297-10.488-18.414c-6.309-5.117-13.471-7.67-21.483-7.67
		C1976.716,151.714,1965.036,161.009,1961.456,179.593z"/>
</g>
<path fill="#009245" d="M339.223,32.991H178.05c0-12.257-9.935-22.191-22.188-22.191H94.272c-12.092,0-21.908,9.679-22.164,21.711
	h-0.025v16.715v12.452v21.266v6.792v16.237h16.234h250.905h16.237V89.735v-6.792V49.226
	C355.46,40.299,348.153,32.991,339.223,32.991z"/>
<path fill="#009245" d="M339.223,133.122H88.318H72.083v16.237v6.791v142.674c0,8.93,6.328,12.583,14.061,8.12l113.564-65.572
	c7.736-4.466,20.391-4.466,28.124,0L341.4,306.944c7.733,4.463,14.061,0.81,14.061-8.12V156.15v-6.791v-16.237H339.223z
	 M245.321,196.893h-63.099v-22.642h63.099V196.893z"/>
</svg>
