<?xml version="1.0" encoding="utf-8"?>
<!-- Generator: Adobe Illustrator 16.0.0, SVG Export Plug-In . SVG Version: 6.00 Build 0)  -->
<!DOCTYPE svg PUBLIC "-//W3C//DTD SVG 1.1//EN" "http://www.w3.org/Graphics/SVG/1.1/DTD/svg11.dtd">
<svg version="1.1" id="Layer_1" xmlns="http://www.w3.org/2000/svg" xmlns:xlink="http://www.w3.org/1999/xlink" x="0px" y="0px"
	 width="2133.293px" height="319.648px" viewBox="0 0 2133.293 319.648" enable-background="new 0 0 2133.293 319.648"
	 xml:space="preserve">
<g>
	<g>
		<path fill="#FFFFFF" d="M564.313,232.624c1.284,2.231,1.928,4.546,1.928,6.949c0,3.088-1.027,5.916-3.088,8.49
			c-2.571,3.088-6.521,4.634-11.837,4.634c-4.118,0-7.894-0.939-11.324-2.833c-12.351-7.032-18.526-21.354-18.526-42.975
			c0-6.175-2.019-11.064-6.048-14.665c-4.032-3.607-9.824-5.408-17.369-5.408h-48.123v49.924c0,4.634-1.246,8.412-3.731,11.323
			c-2.489,2.922-5.792,4.375-9.907,4.375c-4.98,0-9.311-1.497-12.998-4.502c-3.689-2.999-5.532-6.733-5.532-11.196V88.002
			c0-4.463,1.5-8.191,4.504-11.196c3-3,6.731-4.502,11.194-4.502h74.111c8.918,0,17.328,2.403,25.221,7.203
			c7.888,4.805,14.193,11.412,18.913,19.813c4.717,8.413,7.076,17.847,7.076,28.31c0,8.584-2.314,16.947-6.946,25.088
			c-4.634,8.153-10.642,14.633-18.016,19.433c10.81,7.551,16.729,17.67,17.756,30.364c0.517,2.746,0.773,5.408,0.773,7.977
			c0.682,5.319,1.37,9.136,2.058,11.456c0.685,2.315,2.229,4.077,4.632,5.275C561.263,228.597,563.025,230.398,564.313,232.624z
			 M515.29,155.938c2.914-2.917,5.314-6.822,7.206-11.71c1.884-4.889,2.828-10.164,2.828-15.826c0-4.8-0.944-9.219-2.828-13.251
			c-1.892-4.032-4.292-7.248-7.206-9.65c-2.919-2.403-5.919-3.607-9.009-3.607h-56.355v58.418h56.355
			C509.371,160.313,512.37,158.854,515.29,155.938z"/>
		<path fill="#FFFFFF" d="M709.324,190.423c-3.088,2.568-6.692,3.855-10.81,3.855h-84.921c2.06,10.125,6.774,18.063,14.155,23.807
			c7.374,5.75,15.698,8.617,24.961,8.617c7.032,0,12.522-0.641,16.469-1.927c3.947-1.287,7.079-2.657,9.393-4.116
			c2.317-1.458,3.899-2.447,4.762-2.96c3.087-1.546,6.004-2.314,8.749-2.314c3.602,0,6.692,1.287,9.263,3.856
			c2.574,2.574,3.862,5.579,3.862,9.009c0,4.634-2.406,8.838-7.206,12.61c-4.805,3.95-11.238,7.292-19.3,10.037
			c-8.067,2.739-16.212,4.115-24.448,4.115c-14.411,0-26.98-3-37.699-9.004c-10.724-6.004-19.004-14.284-24.834-24.835
			c-5.833-10.55-8.75-22.431-8.75-35.645c0-14.748,3.091-27.701,9.266-38.853c6.175-11.153,14.323-19.687,24.445-25.608
			c10.123-5.916,20.929-8.876,32.427-8.876c11.321,0,22,3.088,32.037,9.263c10.037,6.176,18.054,14.5,24.062,24.962
			c6.003,10.467,9.006,21.791,9.006,33.971C714.038,184.501,712.412,187.849,709.324,190.423z M613.852,168.549h67.422v-1.806
			c-0.688-7.203-4.207-13.378-10.553-18.526c-6.347-5.148-13.553-7.717-21.614-7.717C629.202,140.5,617.453,149.851,613.852,168.549
			z"/>
		<path fill="#FFFFFF" d="M933.976,127.756c6.518,10.384,9.78,24.752,9.78,43.107v65.876c0,4.463-1.461,8.197-4.375,11.196
			c-2.919,3.005-6.606,4.502-11.067,4.502c-4.463,0-8.15-1.497-11.064-4.502c-2.919-2.999-4.375-6.733-4.375-11.196v-65.876
			c0-9.435-1.845-16.858-5.532-22.261c-3.693-5.402-10.167-8.103-19.43-8.103c-9.611,0-17.112,2.873-22.518,8.617
			c-5.405,5.75-8.106,12.998-8.106,21.747v65.876c0,4.463-1.461,8.197-4.375,11.196c-2.919,3.005-6.606,4.502-11.066,4.502
			c-4.463,0-8.15-1.497-11.064-4.502c-2.919-2.999-4.375-6.733-4.375-11.196v-65.876c0-9.435-1.845-16.858-5.535-22.261
			s-10.164-8.103-19.427-8.103c-9.611,0-17.112,2.873-22.517,8.617c-5.405,5.75-8.106,12.998-8.106,21.747v65.876
			c0,4.463-1.461,8.197-4.375,11.196c-2.919,3.005-6.606,4.502-11.067,4.502c-4.463,0-8.15-1.497-11.064-4.502
			c-2.919-2.999-4.375-6.733-4.375-11.196V130.463c0-4.463,1.455-8.191,4.375-11.197c2.914-2.999,6.601-4.501,11.064-4.501
			c4.461,0,8.148,1.502,11.067,4.501c2.914,3.005,4.375,6.733,4.375,11.197v4.115c4.631-6.175,10.506-11.451,17.626-15.825
			c7.117-4.375,15.055-6.562,23.805-6.562c21.617,0,35.423,9.435,41.431,28.309c3.946-7.208,9.909-13.727,17.886-19.56
			c7.979-5.833,17.024-8.75,27.149-8.75C915.706,112.19,927.455,117.382,933.976,127.756z"/>
		<path fill="#FFFFFF" d="M978.237,95.205c-2.406-1.884-3.604-5.231-3.604-10.037V80.28c0-4.8,1.287-8.148,3.861-10.037
			c2.574-1.884,6.692-2.829,12.351-2.829c6.004,0,10.208,0.945,12.61,2.829c2.4,1.889,3.604,5.236,3.604,10.037v4.888
			c0,4.977-1.249,8.363-3.731,10.164c-2.491,1.801-6.736,2.707-12.74,2.707C984.755,98.039,980.637,97.094,978.237,95.205z
			 M1001.912,247.936c-2.919,3.005-6.606,4.502-11.066,4.502c-4.463,0-8.15-1.497-11.064-4.502
			c-2.919-2.999-4.375-6.733-4.375-11.196V130.463c0-4.463,1.455-8.191,4.375-11.197c2.914-2.999,6.601-4.501,11.064-4.501
			c4.46,0,8.147,1.502,11.066,4.501c2.917,3.005,4.375,6.733,4.375,11.197v106.276
			C1006.287,241.202,1004.829,244.937,1001.912,247.936z"/>
		<path fill="#FFFFFF" d="M1147.821,127.756c6.692,10.384,10.037,24.752,10.037,43.107v65.876c0,4.463-1.458,8.197-4.375,11.196
			c-2.919,3.005-6.606,4.502-11.064,4.502c-4.463,0-8.15-1.497-11.066-4.502c-2.919-2.999-4.375-6.733-4.375-11.196v-65.876
			c0-9.435-1.975-16.858-5.918-22.261c-3.95-5.402-10.725-8.103-20.331-8.103c-9.951,0-17.756,2.873-23.417,8.617
			c-5.662,5.75-8.493,12.998-8.493,21.747v65.876c0,4.463-1.458,8.197-4.375,11.196c-2.919,3.005-6.606,4.502-11.064,4.502
			c-4.463,0-8.15-1.497-11.067-4.502c-2.919-2.999-4.375-6.733-4.375-11.196V130.463c0-4.463,1.456-8.191,4.375-11.197
			c2.917-2.999,6.604-4.501,11.067-4.501c4.458,0,8.145,1.502,11.064,4.501c2.916,3.005,4.375,6.733,4.375,11.197v4.375
			c4.631-6.181,10.68-11.495,18.143-15.958c7.462-4.458,15.654-6.689,24.575-6.689
			C1129.035,112.19,1141.131,117.382,1147.821,127.756z"/>
		<path fill="#FFFFFF" d="M1192.339,95.205c-2.406-1.884-3.604-5.231-3.604-10.037V80.28c0-4.8,1.287-8.148,3.861-10.037
			c2.575-1.884,6.692-2.829,12.351-2.829c6.005,0,10.208,0.945,12.61,2.829c2.4,1.889,3.604,5.236,3.604,10.037v4.888
			c0,4.977-1.248,8.363-3.731,10.164c-2.491,1.801-6.736,2.707-12.74,2.707C1198.857,98.039,1194.739,97.094,1192.339,95.205z
			 M1216.014,247.936c-2.919,3.005-6.606,4.502-11.067,4.502c-4.463,0-8.15-1.497-11.064-4.502
			c-2.919-2.999-4.375-6.733-4.375-11.196V130.463c0-4.463,1.455-8.191,4.375-11.197c2.914-2.999,6.601-4.501,11.064-4.501
			c4.461,0,8.147,1.502,11.067,4.501c2.917,3.005,4.375,6.733,4.375,11.197v106.276
			C1220.388,241.202,1218.93,244.937,1216.014,247.936z"/>
		<path fill="#FFFFFF" d="M1241.746,223.361c0-4.458,2.229-8.236,6.692-11.324c2.4-1.546,4.889-2.314,7.463-2.314
			c3.601,0,7.031,1.629,10.293,4.889c5.146,5.319,10.506,9.263,16.082,11.837c5.573,2.574,12.31,3.861,20.203,3.861
			c13.381-0.514,20.07-5.573,20.07-15.185c0-4.972-2.275-8.75-6.819-11.324c-4.546-2.574-11.625-5.148-21.23-7.722
			c-9.951-2.74-18.057-5.485-24.318-8.23c-6.264-2.745-11.669-6.905-16.212-12.483c-4.549-5.574-6.819-13.08-6.819-22.515
			c0-8.236,2.356-15.4,7.076-21.487c4.717-6.087,10.893-10.81,18.529-14.157c7.631-3.342,15.737-5.016,24.318-5.016
			c8.749,0,17.499,1.629,26.248,4.889c8.75,3.259,15.61,8.064,20.587,14.411c2.229,2.745,3.345,5.833,3.345,9.263
			c0,3.95-1.632,7.208-4.889,9.777c-2.405,1.895-5.148,2.834-8.235,2.834c-3.776,0-6.863-1.199-9.264-3.602
			c-3.088-3.772-7.076-6.777-11.967-9.009c-4.889-2.226-10.421-3.347-16.599-3.347c-13.039,0-19.557,4.723-19.557,14.157
			c0,3.772,1.199,6.816,3.604,9.136c2.4,2.314,5.444,4.115,9.134,5.402c3.687,1.287,8.879,2.873,15.568,4.761
			c9.266,2.574,16.985,5.236,23.161,7.977c6.175,2.745,11.409,6.948,15.698,12.61c4.287,5.662,6.433,13.125,6.433,22.388
			c0,8.407-2.488,15.743-7.463,22.001c-4.977,6.264-11.367,11.025-19.17,14.284c-7.811,3.259-15.828,4.889-24.061,4.889
			c-11.324,0-21.874-1.89-31.654-5.662s-17.756-9.859-23.931-18.272C1242.519,229.022,1241.746,226.448,1241.746,223.361z"/>
		<path fill="#FFFFFF" d="M1471.289,119.007c8.918,4.551,13.381,10.6,13.381,18.146c0,3.772-1.119,7.076-3.345,9.904
			c-2.231,2.833-5.145,4.248-8.75,4.248c-2.746,0-4.977-0.387-6.689-1.154c-1.718-0.773-3.392-1.806-5.019-3.093
			c-1.632-1.281-3.217-2.353-4.761-3.215c-1.718-0.856-4.248-1.629-7.592-2.314s-6.046-1.027-8.106-1.027
			c-12.868,0-22.948,3.988-30.237,11.964c-7.294,7.976-10.937,18.399-10.937,31.264c0,12.351,3.687,22.608,11.066,30.756
			c7.375,8.147,16.812,12.218,28.307,12.218c8.404,0,14.668-1.027,18.783-3.087c1.03-0.514,2.447-1.414,4.248-2.701
			c1.801-1.288,3.475-2.271,5.019-2.961c1.544-0.679,3.43-1.027,5.662-1.027c4.286,0,7.675,1.375,10.163,4.121
			c2.486,2.746,3.731,6.264,3.731,10.55c0,4.116-2.403,7.977-7.203,11.578c-4.805,3.601-11.155,6.479-19.042,8.622
			c-7.894,2.144-16.304,3.215-25.222,3.215c-13.212,0-24.832-3.088-34.868-9.263c-10.037-6.176-17.8-14.71-23.289-25.608
			c-5.493-10.893-8.235-23.029-8.235-36.413c0-13.892,2.869-26.249,8.62-37.053c5.748-10.81,13.768-19.256,24.061-25.349
			c10.294-6.087,21.96-9.136,34.999-9.136C1450.614,112.19,1462.369,114.466,1471.289,119.007z"/>
		<path fill="#FFFFFF" d="M1627.238,190.423c-3.088,2.568-6.692,3.855-10.811,3.855h-84.921
			c2.061,10.125,6.775,18.063,14.155,23.807c7.374,5.75,15.698,8.617,24.962,8.617c7.031,0,12.521-0.641,16.469-1.927
			c3.946-1.287,7.079-2.657,9.394-4.116c2.313-1.458,3.898-2.447,4.761-2.96c3.088-1.546,6.005-2.314,8.747-2.314
			c3.604,0,6.694,1.287,9.266,3.856c2.574,2.574,3.861,5.579,3.861,9.009c0,4.634-2.405,8.838-7.205,12.61
			c-4.807,3.95-11.239,7.292-19.3,10.037c-8.068,2.739-16.212,4.115-24.448,4.115c-14.412,0-26.981-3-37.7-9.004
			c-10.725-6.004-19.004-14.284-24.835-24.835c-5.833-10.55-8.749-22.431-8.749-35.645c0-14.748,3.09-27.701,9.266-38.853
			c6.175-11.153,14.322-19.687,24.445-25.608c10.119-5.916,20.929-8.876,32.426-8.876c11.321,0,22.001,3.088,32.038,9.263
			c10.036,6.176,18.055,14.5,24.062,24.962c6.005,10.467,9.007,21.791,9.007,33.971
			C1631.952,184.501,1630.326,187.849,1627.238,190.423z M1531.766,168.549h67.422v-1.806c-0.688-7.203-4.206-13.378-10.553-18.526
			c-6.347-5.148-13.553-7.717-21.615-7.717C1547.116,140.5,1535.367,149.851,1531.766,168.549z"/>
		<path fill="#FFFFFF" d="M1767.739,127.756c6.692,10.384,10.037,24.752,10.037,43.107v65.876c0,4.463-1.459,8.197-4.376,11.196
			c-2.919,3.005-6.605,4.502-11.063,4.502c-4.463,0-8.15-1.497-11.066-4.502c-2.92-2.999-4.375-6.733-4.375-11.196v-65.876
			c0-9.435-1.975-16.858-5.919-22.261c-3.949-5.402-10.724-8.103-20.33-8.103c-9.951,0-17.756,2.873-23.417,8.617
			c-5.662,5.75-8.493,12.998-8.493,21.747v65.876c0,4.463-1.459,8.197-4.374,11.196c-2.92,3.005-6.607,4.502-11.065,4.502
			c-4.462,0-8.152-1.497-11.066-4.502c-2.919-2.999-4.375-6.733-4.375-11.196V130.463c0-4.463,1.456-8.191,4.375-11.197
			c2.914-2.999,6.604-4.501,11.066-4.501c4.458,0,8.146,1.502,11.065,4.501c2.915,3.005,4.374,6.733,4.374,11.197v4.375
			c4.631-6.181,10.68-11.495,18.144-15.958c7.461-4.458,15.65-6.689,24.573-6.689
			C1748.953,112.19,1761.049,117.382,1767.739,127.756z"/>
		<path fill="#FFFFFF" d="M1906.445,119.007c8.918,4.551,13.382,10.6,13.382,18.146c0,3.772-1.119,7.076-3.346,9.904
			c-2.231,2.833-5.148,4.248-8.75,4.248c-2.747,0-4.979-0.387-6.691-1.154c-1.718-0.773-3.389-1.806-5.019-3.093
			c-1.632-1.281-3.218-2.353-4.762-3.215c-1.714-0.856-4.245-1.629-7.589-2.314c-3.347-0.685-6.049-1.027-8.106-1.027
			c-12.867,0-22.948,3.988-30.239,11.964c-7.291,7.976-10.935,18.399-10.935,31.264c0,12.351,3.688,22.608,11.064,30.756
			c7.374,8.147,16.812,12.218,28.307,12.218c8.403,0,14.668-1.027,18.786-3.087c1.029-0.514,2.443-1.414,4.247-2.701
			c1.801-1.288,3.475-2.271,5.019-2.961c1.544-0.679,3.427-1.027,5.659-1.027c4.286,0,7.678,1.375,10.166,4.121
			c2.485,2.746,3.731,6.264,3.731,10.55c0,4.116-2.405,7.977-7.205,11.578c-4.807,3.601-11.156,6.479-19.044,8.622
			c-7.894,2.144-16.301,3.215-25.219,3.215c-13.212,0-24.835-3.088-34.87-9.263c-10.034-6.176-17.801-14.71-23.288-25.608
			c-5.493-10.893-8.236-23.029-8.236-36.413c0-13.892,2.872-26.249,8.623-37.053c5.745-10.81,13.768-19.256,24.061-25.349
			c10.294-6.087,21.958-9.136,34.999-9.136C1885.769,112.19,1897.521,114.466,1906.445,119.007z"/>
		<path fill="#FFFFFF" d="M2062.39,190.423c-3.088,2.568-6.689,3.855-10.808,3.855h-84.922c2.058,10.125,6.776,18.063,14.152,23.807
			c7.377,5.75,15.698,8.617,24.965,8.617c7.031,0,12.52-0.641,16.469-1.927c3.943-1.287,7.076-2.657,9.394-4.116
			c2.313-1.458,3.898-2.447,4.758-2.96c3.091-1.546,6.004-2.314,8.749-2.314c3.605,0,6.693,1.287,9.267,3.856
			c2.574,2.574,3.858,5.579,3.858,9.009c0,4.634-2.402,8.838-7.206,12.61c-4.803,3.95-11.237,7.292-19.299,10.037
			c-8.065,2.739-16.213,4.115-24.445,4.115c-14.412,0-26.981-3-37.702-9.004c-10.723-6.004-19.002-14.284-24.832-24.835
			c-5.836-10.55-8.75-22.431-8.75-35.645c0-14.748,3.088-27.701,9.264-38.853c6.176-11.153,14.322-19.687,24.448-25.608
			c10.119-5.916,20.929-8.876,32.425-8.876c11.322,0,22.002,3.088,32.037,9.263c10.035,6.176,18.054,14.5,24.061,24.962
			c6.004,10.467,9.01,21.791,9.01,33.971C2067.108,184.501,2065.478,187.849,2062.39,190.423z M1966.917,168.549h67.423v-1.806
			c-0.688-7.203-4.206-13.378-10.55-18.526c-6.35-5.148-13.556-7.717-21.616-7.717C1982.271,140.5,1970.52,149.851,1966.917,168.549
			z"/>
	</g>
	<path fill="#FFFFFF" d="M334.783,21.055H208.566h-35.94h-90.28c-8.984,0-16.333,7.352-16.333,16.333v12.528V71.31v6.833v16.339
		h16.333h126.22h126.217h16.336V78.143V71.31V37.388C351.119,28.407,343.767,21.055,334.783,21.055z"/>
	<path fill="#FFFFFF" d="M334.783,121.796H82.346H66.013v16.333v6.833v143.545c0,8.987,6.366,12.66,14.146,8.169l114.258-65.969
		c7.783-4.497,20.515-4.497,28.295,0l114.261,65.969c7.78,4.491,14.146,0.817,14.146-8.169V144.962v-6.833v-16.333H334.783z
		 M240.308,185.954h-63.484v-22.78h63.484V185.954z"/>
</g>
</svg>
