<?xml version="1.0" encoding="utf-8"?>
<!-- Generator: Adobe Illustrator 16.0.0, SVG Export Plug-In . SVG Version: 6.00 Build 0)  -->
<!DOCTYPE svg PUBLIC "-//W3C//DTD SVG 1.1//EN" "http://www.w3.org/Graphics/SVG/1.1/DTD/svg11.dtd">
<svg version="1.1" id="Layer_1" xmlns="http://www.w3.org/2000/svg" xmlns:xlink="http://www.w3.org/1999/xlink" x="0px" y="0px"
	 width="2133.293px" height="319.648px" viewBox="0 0 2133.293 319.648" enable-background="new 0 0 2133.293 319.648"
	 xml:space="preserve">
<g>
	<g>
		<path fill="#201F21" d="M540.493,247.771c1.345,2.337,2.019,4.761,2.019,7.278c0,3.234-1.076,6.196-3.234,8.893
			c-2.693,3.234-6.83,4.854-12.399,4.854c-4.313,0-8.268-0.984-11.86-2.968c-12.937-7.365-19.405-22.367-19.405-45.012
			c0-6.468-2.115-11.588-6.335-15.361c-4.224-3.778-10.29-5.664-18.193-5.664h-50.404v52.291c0,4.854-1.305,8.812-3.908,11.861
			c-2.606,3.061-6.066,4.582-10.376,4.582c-5.216,0-9.752-1.568-13.614-4.715c-3.865-3.142-5.794-7.053-5.794-11.728V96.291
			c0-4.675,1.571-8.58,4.718-11.728c3.142-3.142,7.05-4.715,11.725-4.715h77.626c9.341,0,18.149,2.517,26.417,7.544
			c8.262,5.034,14.866,11.953,19.81,20.753c4.941,8.812,7.411,18.694,7.411,29.651c0,8.991-2.424,17.75-7.275,26.278
			c-4.854,8.54-11.146,15.326-18.87,20.354c11.322,7.909,17.522,18.508,18.598,31.804c0.541,2.875,0.81,5.664,0.81,8.354
			c0.715,5.572,1.435,9.569,2.155,12c0.717,2.424,2.334,4.27,4.851,5.525C537.299,243.553,539.145,245.439,540.493,247.771z
			 M489.146,167.448c3.052-3.055,5.566-7.145,7.547-12.265c1.973-5.121,2.962-10.646,2.962-16.576c0-5.027-0.989-9.656-2.962-13.879
			c-1.981-4.224-4.495-7.591-7.547-10.107c-3.058-2.517-6.199-3.778-9.436-3.778h-59.028v61.189h59.028
			C482.946,172.031,486.088,170.503,489.146,167.448z"/>
		<path fill="#201F21" d="M692.38,203.568c-3.234,2.69-7.009,4.038-11.322,4.038H592.11c2.158,10.605,7.096,18.919,14.826,24.936
			c7.724,6.023,16.442,9.026,26.145,9.026c7.365,0,13.116-0.671,17.25-2.02c4.134-1.348,7.414-2.783,9.838-4.31
			c2.427-1.527,4.084-2.563,4.987-3.101c3.234-1.62,6.289-2.424,9.165-2.424c3.772,0,7.009,1.348,9.702,4.039
			c2.696,2.696,4.044,5.843,4.044,9.436c0,4.854-2.52,9.257-7.547,13.208c-5.034,4.137-11.771,7.637-20.215,10.513
			c-8.45,2.87-16.98,4.311-25.607,4.311c-15.095,0-28.26-3.142-39.487-9.431c-11.233-6.289-19.906-14.962-26.012-26.012
			c-6.11-11.051-9.165-23.496-9.165-37.335c0-15.447,3.237-29.015,9.706-40.696c6.468-11.681,15.002-20.62,25.604-26.822
			c10.602-6.196,21.922-9.297,33.964-9.297c11.858,0,23.044,3.234,33.557,9.702c10.512,6.468,18.91,15.188,25.202,26.146
			c6.289,10.964,9.433,22.824,9.433,35.582C697.318,197.366,695.615,200.872,692.38,203.568z M592.381,180.657h70.62v-1.892
			c-0.72-7.544-4.406-14.013-11.053-19.405c-6.648-5.393-14.195-8.083-22.64-8.083C608.46,151.278,596.154,161.073,592.381,180.657z
			"/>
		<path fill="#201F21" d="M927.685,137.93c6.827,10.877,10.243,25.925,10.243,45.151v69c0,4.675-1.53,8.586-4.582,11.728
			c-3.058,3.147-6.92,4.715-11.592,4.715c-4.675,0-8.537-1.568-11.588-4.715c-3.058-3.142-4.583-7.053-4.583-11.728v-69
			c0-9.882-1.932-17.658-5.794-23.316c-3.868-5.658-10.648-8.487-20.351-8.487c-10.067,0-17.924,3.008-23.585,9.025
			c-5.662,6.023-8.491,13.614-8.491,22.778v69c0,4.675-1.53,8.586-4.582,11.728c-3.058,3.147-6.92,4.715-11.592,4.715
			c-4.675,0-8.536-1.568-11.588-4.715c-3.058-3.142-4.582-7.053-4.582-11.728v-69c0-9.882-1.933-17.658-5.797-23.316
			s-10.646-8.487-20.348-8.487c-10.067,0-17.924,3.008-23.585,9.025c-5.661,6.023-8.491,13.614-8.491,22.778v69
			c0,4.675-1.53,8.586-4.582,11.728c-3.058,3.147-6.919,4.715-11.591,4.715c-4.675,0-8.537-1.568-11.589-4.715
			c-3.058-3.142-4.582-7.053-4.582-11.728V140.765c0-4.675,1.524-8.58,4.582-11.728c3.052-3.142,6.914-4.715,11.589-4.715
			c4.672,0,8.534,1.574,11.591,4.715c3.052,3.147,4.582,7.053,4.582,11.728v4.31c4.852-6.468,11.004-11.993,18.462-16.576
			c7.455-4.582,15.769-6.873,24.934-6.873c22.642,0,37.103,9.882,43.395,29.651c4.134-7.55,10.379-14.377,18.734-20.487
			c8.357-6.109,17.831-9.164,28.437-9.164C908.549,121.626,920.855,127.065,927.685,137.93z"/>
		<path fill="#201F21" d="M974.045,103.835c-2.52-1.973-3.775-5.479-3.775-10.512v-5.121c0-5.028,1.348-8.534,4.044-10.512
			c2.696-1.973,7.009-2.962,12.937-2.962c6.289,0,10.692,0.989,13.209,2.962c2.514,1.979,3.775,5.484,3.775,10.512v5.121
			c0,5.212-1.307,8.759-3.908,10.646c-2.609,1.886-7.055,2.835-13.344,2.835C980.872,106.804,976.559,105.814,974.045,103.835z
			 M998.842,263.808c-3.058,3.147-6.919,4.715-11.592,4.715c-4.674,0-8.536-1.568-11.588-4.715
			c-3.058-3.142-4.582-7.053-4.582-11.728V140.765c0-4.675,1.524-8.58,4.582-11.728c3.052-3.142,6.914-4.715,11.588-4.715
			c4.672,0,8.534,1.574,11.592,4.715c3.055,3.147,4.582,7.053,4.582,11.728v111.315
			C1003.424,256.755,1001.897,260.667,998.842,263.808z"/>
		<path fill="#201F21" d="M1151.669,137.93c7.01,10.877,10.513,25.925,10.513,45.151v69c0,4.675-1.527,8.586-4.582,11.728
			c-3.058,3.147-6.92,4.715-11.589,4.715c-4.675,0-8.537-1.568-11.591-4.715c-3.058-3.142-4.583-7.053-4.583-11.728v-69
			c0-9.882-2.068-17.658-6.199-23.316c-4.137-5.658-11.232-8.487-21.294-8.487c-10.423,0-18.598,3.008-24.528,9.025
			c-5.93,6.023-8.895,13.614-8.895,22.778v69c0,4.675-1.528,8.586-4.583,11.728c-3.058,3.147-6.919,4.715-11.588,4.715
			c-4.675,0-8.537-1.568-11.592-4.715c-3.058-3.142-4.582-7.053-4.582-11.728V140.765c0-4.675,1.524-8.58,4.582-11.728
			c3.055-3.142,6.917-4.715,11.592-4.715c4.669,0,8.531,1.574,11.588,4.715c3.055,3.147,4.583,7.053,4.583,11.728v4.582
			c4.851-6.474,11.187-12.04,19.002-16.714c7.816-4.669,16.396-7.006,25.741-7.006
			C1131.993,121.626,1144.664,127.065,1151.669,137.93z"/>
		<path fill="#201F21" d="M1198.299,103.835c-2.52-1.973-3.775-5.479-3.775-10.512v-5.121c0-5.028,1.348-8.534,4.044-10.512
			c2.696-1.973,7.009-2.962,12.937-2.962c6.289,0,10.692,0.989,13.209,2.962c2.514,1.979,3.775,5.484,3.775,10.512v5.121
			c0,5.212-1.308,8.759-3.908,10.646c-2.609,1.886-7.055,2.835-13.344,2.835C1205.126,106.804,1200.813,105.814,1198.299,103.835z
			 M1223.096,263.808c-3.058,3.147-6.92,4.715-11.592,4.715c-4.675,0-8.536-1.568-11.588-4.715
			c-3.058-3.142-4.582-7.053-4.582-11.728V140.765c0-4.675,1.524-8.58,4.582-11.728c3.052-3.142,6.914-4.715,11.588-4.715
			c4.672,0,8.534,1.574,11.592,4.715c3.055,3.147,4.582,7.053,4.582,11.728v111.315
			C1227.678,256.755,1226.151,260.667,1223.096,263.808z"/>
		<path fill="#201F21" d="M1250.048,238.068c0-4.669,2.335-8.626,7.01-11.86c2.514-1.62,5.12-2.424,7.816-2.424
			c3.772,0,7.365,1.707,10.782,5.12c5.389,5.572,11.004,9.703,16.845,12.398c5.838,2.696,12.894,4.044,21.161,4.044
			c14.016-0.538,21.022-5.838,21.022-15.905c0-5.207-2.384-9.165-7.142-11.86c-4.762-2.696-12.176-5.393-22.237-8.088
			c-10.423-2.87-18.913-5.745-25.471-8.621c-6.561-2.875-12.222-7.232-16.981-13.076c-4.765-5.837-7.143-13.7-7.143-23.582
			c0-8.626,2.468-16.13,7.412-22.506c4.941-6.375,11.409-11.322,19.408-14.828c7.993-3.5,16.483-5.253,25.472-5.253
			c9.164,0,18.329,1.707,27.493,5.12s16.35,8.447,21.563,15.095c2.334,2.875,3.503,6.11,3.503,9.703c0,4.137-1.71,7.55-5.121,10.24
			c-2.52,1.984-5.392,2.968-8.626,2.968c-3.954,0-7.188-1.255-9.702-3.772c-3.234-3.952-7.412-7.099-12.535-9.436
			c-5.121-2.332-10.915-3.506-17.386-3.506c-13.657,0-20.484,4.947-20.484,14.829c0,3.952,1.255,7.14,3.775,9.569
			c2.514,2.424,5.702,4.311,9.566,5.659c3.862,1.348,9.3,3.008,16.307,4.987c9.705,2.696,17.791,5.485,24.259,8.354
			c6.468,2.875,11.95,7.278,16.443,13.209c4.49,5.93,6.737,13.747,6.737,23.449c0,8.806-2.606,16.489-7.816,23.044
			c-5.213,6.561-11.907,11.548-20.079,14.961c-8.181,3.414-16.579,5.121-25.202,5.121c-11.86,0-22.911-1.979-33.154-5.931
			c-10.244-3.951-18.598-10.327-25.066-19.139C1250.858,243.998,1250.048,241.302,1250.048,238.068z"/>
		<path fill="#201F21" d="M1490.476,128.766c9.341,4.768,14.016,11.103,14.016,19.006c0,3.952-1.168,7.412-3.503,10.374
			c-2.337,2.968-5.39,4.449-9.165,4.449c-2.875,0-5.213-0.405-7.006-1.209c-1.799-0.81-3.553-1.892-5.256-3.24
			c-1.709-1.342-3.37-2.464-4.987-3.367c-1.799-0.896-4.449-1.707-7.952-2.424c-3.503-0.717-6.333-1.076-8.491-1.076
			c-13.478,0-24.036,4.177-31.67,12.532c-7.64,8.354-11.456,19.271-11.456,32.747c0,12.937,3.862,23.68,11.592,32.214
			c7.724,8.534,17.608,12.798,29.648,12.798c8.803,0,15.364-1.076,19.677-3.234c1.076-0.538,2.56-1.481,4.446-2.829
			s3.639-2.378,5.256-3.101c1.617-0.712,3.593-1.076,5.93-1.076c4.49,0,8.039,1.44,10.646,4.316
			c2.604,2.875,3.908,6.561,3.908,11.051c0,4.31-2.517,8.354-7.544,12.126c-5.034,3.772-11.684,6.787-19.946,9.032
			c-8.268,2.245-17.076,3.367-26.417,3.367c-13.839,0-26.009-3.234-36.521-9.703c-10.513-6.468-18.645-15.407-24.392-26.822
			c-5.754-11.409-8.627-24.12-8.627-38.139c0-14.551,3.006-27.494,9.029-38.81c6.02-11.323,14.42-20.169,25.202-26.55
			c10.782-6.376,23-9.569,36.658-9.569C1468.821,121.626,1481.132,124.01,1490.476,128.766z"/>
		<path fill="#201F21" d="M1653.816,203.568c-3.234,2.69-7.007,4.038-11.319,4.038h-88.948c2.155,10.605,7.096,18.919,14.825,24.936
			c7.725,6.023,16.443,9.026,26.146,9.026c7.365,0,13.116-0.671,17.25-2.02c4.134-1.348,7.414-2.783,9.839-4.31
			c2.424-1.527,4.084-2.563,4.986-3.101c3.234-1.62,6.289-2.424,9.165-2.424c3.772,0,7.006,1.348,9.702,4.039
			c2.696,2.696,4.044,5.843,4.044,9.436c0,4.854-2.52,9.257-7.547,13.208c-5.033,4.137-11.771,7.637-20.218,10.513
			c-8.447,2.87-16.981,4.311-25.604,4.311c-15.095,0-28.26-3.142-39.49-9.431s-19.903-14.962-26.009-26.012
			c-6.11-11.051-9.165-23.496-9.165-37.335c0-15.447,3.237-29.015,9.706-40.696c6.468-11.681,15.002-20.62,25.604-26.822
			c10.602-6.196,21.921-9.297,33.964-9.297c11.857,0,23.045,3.234,33.557,9.702c10.513,6.468,18.908,15.188,25.202,26.146
			c6.289,10.964,9.434,22.824,9.434,35.582C1658.757,197.366,1657.05,200.872,1653.816,203.568z M1553.817,180.657h70.62v-1.892
			c-0.718-7.544-4.403-14.013-11.051-19.405c-6.647-5.393-14.198-8.083-22.64-8.083
			C1569.898,151.278,1557.589,161.073,1553.817,180.657z"/>
		<path fill="#201F21" d="M1800.982,137.93c7.01,10.877,10.513,25.925,10.513,45.151v69c0,4.675-1.53,8.586-4.582,11.728
			c-3.058,3.147-6.92,4.715-11.592,4.715c-4.675,0-8.533-1.568-11.588-4.715c-3.059-3.142-4.583-7.053-4.583-11.728v-69
			c0-9.882-2.068-17.658-6.202-23.316s-11.229-8.487-21.291-8.487c-10.426,0-18.601,3.008-24.528,9.025
			c-5.931,6.023-8.896,13.614-8.896,22.778v69c0,4.675-1.527,8.586-4.582,11.728c-3.058,3.147-6.92,4.715-11.589,4.715
			c-4.675,0-8.539-1.568-11.591-4.715c-3.058-3.142-4.582-7.053-4.582-11.728V140.765c0-4.675,1.524-8.58,4.582-11.728
			c3.052-3.142,6.916-4.715,11.591-4.715c4.669,0,8.531,1.574,11.589,4.715c3.055,3.147,4.582,7.053,4.582,11.728v4.582
			c4.852-6.474,11.187-12.04,19.003-16.714c7.816-4.669,16.394-7.006,25.74-7.006
			C1781.305,121.626,1793.973,127.065,1800.982,137.93z"/>
		<path fill="#201F21" d="M1946.262,128.766c9.344,4.768,14.019,11.103,14.019,19.006c0,3.952-1.172,7.412-3.506,10.374
			c-2.338,2.968-5.39,4.449-9.165,4.449c-2.875,0-5.213-0.405-7.006-1.209c-1.8-0.81-3.553-1.892-5.256-3.24
			c-1.71-1.342-3.371-2.464-4.988-3.367c-1.796-0.896-4.445-1.707-7.952-2.424c-3.503-0.717-6.332-1.076-8.487-1.076
			c-13.48,0-24.039,4.177-31.674,12.532c-7.64,8.354-11.452,19.271-11.452,32.747c0,12.937,3.859,23.68,11.589,32.214
			c7.724,8.534,17.608,12.798,29.648,12.798c8.803,0,15.363-1.076,19.677-3.234c1.079-0.538,2.56-1.481,4.446-2.829
			c1.886-1.348,3.639-2.378,5.259-3.101c1.614-0.712,3.591-1.076,5.928-1.076c4.489,0,8.039,1.44,10.648,4.316
			c2.604,2.875,3.905,6.561,3.905,11.051c0,4.31-2.517,8.354-7.545,12.126c-5.033,3.772-11.684,6.787-19.945,9.032
			c-8.268,2.245-17.076,3.367-26.414,3.367c-13.84,0-26.013-3.234-36.525-9.703c-10.512-6.468-18.645-15.407-24.392-26.822
			c-5.754-11.409-8.627-24.12-8.627-38.139c0-14.551,3.009-27.494,9.031-38.81c6.018-11.323,14.418-20.169,25.202-26.55
			c10.779-6.376,22.998-9.569,36.658-9.569C1924.607,121.626,1936.918,124.01,1946.262,128.766z"/>
		<path fill="#201F21" d="M2109.605,203.568c-3.234,2.69-7.009,4.038-11.319,4.038h-88.948c2.155,10.605,7.093,18.919,14.822,24.936
			c7.724,6.023,16.443,9.026,26.146,9.026c7.365,0,13.116-0.671,17.253-2.02c4.131-1.348,7.411-2.783,9.835-4.31
			c2.428-1.527,4.085-2.563,4.987-3.101c3.234-1.62,6.289-2.424,9.165-2.424c3.771,0,7.009,1.348,9.702,4.039
			c2.696,2.696,4.044,5.843,4.044,9.436c0,4.854-2.517,9.257-7.544,13.208c-5.034,4.137-11.774,7.637-20.218,10.513
			c-8.45,2.87-16.981,4.311-25.604,4.311c-15.095,0-28.263-3.142-39.49-9.431c-11.232-6.289-19.905-14.962-26.009-26.012
			c-6.113-11.051-9.164-23.496-9.164-37.335c0-15.447,3.233-29.015,9.702-40.696c6.468-11.681,15.002-20.62,25.606-26.822
			c10.6-6.196,21.922-9.297,33.962-9.297c11.86,0,23.044,3.234,33.557,9.702s18.911,15.188,25.202,26.146
			c6.289,10.964,9.437,22.824,9.437,35.582C2114.543,197.366,2112.839,200.872,2109.605,203.568z M2009.606,180.657h70.619v-1.892
			c-0.72-7.544-4.405-14.013-11.053-19.405c-6.648-5.393-14.195-8.083-22.64-8.083
			C2025.687,151.278,2013.378,161.073,2009.606,180.657z"/>
	</g>
	<g>
		<path fill="#009245" d="M300.08,26.167H130.234c0-12.917-10.469-23.386-23.383-23.386H41.948c-12.743,0-23.087,10.2-23.356,22.879
			h-0.026v17.614v13.122v22.41v7.157v17.111h17.108H300.08h17.111V85.964v-7.157V43.274C317.191,33.867,309.49,26.167,300.08,26.167
			z"/>
		<path fill="#009245" d="M35.674,131.685H18.566v17.111v7.157v150.351c0,9.41,6.668,13.261,14.817,8.557l119.676-69.101
			c8.152-4.707,21.488-4.707,29.637,0l119.679,69.101c8.149,4.704,14.817,0.854,14.817-8.557V155.953v-7.157v-17.111H300.08H35.674z
			"/>
	</g>
</g>
</svg>
