<?xml version="1.0" encoding="utf-8"?>
<!-- Generator: Adobe Illustrator 16.0.0, SVG Export Plug-In . SVG Version: 6.00 Build 0)  -->
<!DOCTYPE svg PUBLIC "-//W3C//DTD SVG 1.1//EN" "http://www.w3.org/Graphics/SVG/1.1/DTD/svg11.dtd">
<svg version="1.1" id="Layer_1" xmlns="http://www.w3.org/2000/svg" xmlns:xlink="http://www.w3.org/1999/xlink" x="0px" y="0px"
	 width="2133.293px" height="319.648px" viewBox="0 0 2133.293 319.648" enable-background="new 0 0 2133.293 319.648"
	 xml:space="preserve">
<g>
	<path fill="#201F21" d="M567.391,243.274c1.276,2.218,1.916,4.518,1.916,6.906c0,3.069-1.021,5.879-3.069,8.438
		c-2.556,3.069-6.481,4.606-11.765,4.606c-4.092,0-7.845-0.934-11.254-2.816c-12.275-6.989-18.413-21.224-18.413-42.711
		c0-6.138-2.006-10.996-6.011-14.576c-4.008-3.585-9.764-5.375-17.263-5.375h-47.828v49.617c0,4.606-1.238,8.361-3.708,11.254
		c-2.473,2.904-5.756,4.348-9.846,4.348c-4.949,0-9.253-1.488-12.917-4.474c-3.667-2.981-5.499-6.692-5.499-11.128V99.539
		c0-4.436,1.491-8.142,4.477-11.128c2.981-2.981,6.689-4.475,11.125-4.475h73.657c8.863,0,17.222,2.388,25.067,7.159
		c7.839,4.776,14.106,11.342,18.797,19.692c4.688,8.361,7.032,17.738,7.032,28.136c0,8.531-2.3,16.843-6.903,24.935
		c-4.606,8.103-10.576,14.543-17.905,19.313c10.744,7.504,16.626,17.562,17.647,30.178c0.514,2.729,0.769,5.375,0.769,7.927
		c0.678,5.287,1.362,9.081,2.045,11.386c0.681,2.3,2.215,4.051,4.603,5.243C564.361,239.272,566.112,241.062,567.391,243.274z
		 M518.668,167.059c2.896-2.898,5.281-6.78,7.162-11.639c1.872-4.858,2.811-10.101,2.811-15.728c0-4.771-0.939-9.163-2.811-13.17
		c-1.88-4.007-4.266-7.203-7.162-9.591c-2.901-2.388-5.882-3.585-8.954-3.585h-56.01v58.061h56.01
		C512.786,171.407,515.767,169.958,518.668,167.059z"/>
	<path fill="#201F21" d="M711.514,201.332c-3.069,2.553-6.651,3.832-10.744,3.832h-84.401c2.048,10.063,6.733,17.952,14.068,23.661
		c7.329,5.715,15.602,8.564,24.809,8.564c6.989,0,12.446-0.637,16.368-1.916c3.922-1.279,7.035-2.641,9.335-4.09
		c2.303-1.449,3.876-2.432,4.732-2.942c3.069-1.537,5.967-2.3,8.696-2.3c3.58,0,6.651,1.279,9.207,3.832
		c2.558,2.558,3.837,5.544,3.837,8.954c0,4.606-2.391,8.784-7.162,12.534c-4.776,3.925-11.169,7.247-19.182,9.975
		c-8.018,2.723-16.113,4.09-24.298,4.09c-14.323,0-26.815-2.981-37.468-8.949c-10.659-5.967-18.888-14.197-24.683-24.682
		c-5.797-10.486-8.696-22.294-8.696-35.426c0-14.658,3.071-27.532,9.209-38.616s14.235-19.566,24.295-25.451
		c10.06-5.88,20.801-8.822,32.229-8.822c11.251,0,21.866,3.069,31.841,9.207s17.944,14.411,23.914,24.809
		c5.967,10.403,8.951,21.657,8.951,33.763C716.199,195.447,714.583,198.773,711.514,201.332z M616.627,179.592h67.009v-1.795
		c-0.684-7.159-4.181-13.296-10.489-18.413c-6.308-5.116-13.469-7.669-21.481-7.669
		C631.883,151.714,620.206,161.009,616.627,179.592z"/>
	<path fill="#201F21" d="M934.789,139.049c6.479,10.321,9.72,24.6,9.72,42.843v65.472c0,4.436-1.452,8.147-4.348,11.128
		c-2.901,2.986-6.566,4.474-10.999,4.474c-4.436,0-8.1-1.488-10.996-4.474c-2.901-2.981-4.348-6.692-4.348-11.128v-65.472
		c0-9.376-1.833-16.755-5.498-22.124c-3.67-5.369-10.104-8.054-19.311-8.054c-9.552,0-17.007,2.855-22.379,8.564
		c-5.372,5.715-8.056,12.917-8.056,21.613v65.472c0,4.436-1.452,8.147-4.348,11.128c-2.901,2.986-6.566,4.474-10.999,4.474
		c-4.436,0-8.1-1.488-10.996-4.474c-2.901-2.981-4.348-6.692-4.348-11.128v-65.472c0-9.376-1.834-16.755-5.501-22.124
		c-3.667-5.369-10.102-8.054-19.308-8.054c-9.552,0-17.007,2.855-22.379,8.564c-5.372,5.715-8.056,12.917-8.056,21.613v65.472
		c0,4.436-1.452,8.147-4.348,11.128c-2.901,2.986-6.566,4.474-10.999,4.474c-4.436,0-8.1-1.488-10.996-4.474
		c-2.901-2.981-4.348-6.692-4.348-11.128V141.739c0-4.436,1.446-8.141,4.348-11.128c2.896-2.981,6.561-4.474,10.996-4.474
		c4.433,0,8.098,1.493,10.999,4.474c2.896,2.987,4.348,6.692,4.348,11.128v4.09c4.603-6.138,10.442-11.381,17.518-15.729
		c7.074-4.348,14.963-6.522,23.659-6.522c21.484,0,35.207,9.376,41.176,28.135c3.923-7.164,9.849-13.642,17.776-19.439
		c7.93-5.797,16.92-8.696,26.982-8.696C916.631,123.579,928.308,128.739,934.789,139.049z"/>
	<path fill="#201F21" d="M978.779,106.698c-2.391-1.872-3.582-5.199-3.582-9.975v-4.858c0-4.771,1.279-8.098,3.837-9.975
		c2.558-1.872,6.651-2.811,12.275-2.811c5.967,0,10.145,0.939,12.534,2.811c2.385,1.877,3.582,5.204,3.582,9.975v4.858
		c0,4.946-1.241,8.312-3.708,10.102c-2.476,1.79-6.695,2.69-12.663,2.69C985.257,109.514,981.165,108.575,978.779,106.698z
		 M1002.309,258.492c-2.901,2.986-6.566,4.474-10.999,4.474c-4.436,0-8.1-1.488-10.996-4.474c-2.901-2.981-4.348-6.692-4.348-11.128
		V141.739c0-4.436,1.447-8.141,4.348-11.128c2.896-2.981,6.56-4.474,10.996-4.474c4.433,0,8.098,1.493,10.999,4.474
		c2.898,2.987,4.348,6.692,4.348,11.128v105.625C1006.657,251.8,1005.207,255.511,1002.309,258.492z"/>
	<path fill="#201F21" d="M1147.323,139.049c6.651,10.321,9.975,24.6,9.975,42.843v65.472c0,4.436-1.449,8.147-4.348,11.128
		c-2.901,2.986-6.566,4.474-10.996,4.474c-4.436,0-8.1-1.488-10.999-4.474c-2.901-2.981-4.348-6.692-4.348-11.128v-65.472
		c0-9.376-1.962-16.755-5.882-22.124c-3.925-5.369-10.658-8.054-20.205-8.054c-9.89,0-17.647,2.855-23.274,8.564
		c-5.627,5.715-8.441,12.917-8.441,21.613v65.472c0,4.436-1.449,8.147-4.348,11.128c-2.901,2.986-6.566,4.474-10.996,4.474
		c-4.436,0-8.101-1.488-10.999-4.474c-2.901-2.981-4.348-6.692-4.348-11.128V141.739c0-4.436,1.447-8.141,4.348-11.128
		c2.898-2.981,6.563-4.474,10.999-4.474c4.43,0,8.095,1.493,10.996,4.474c2.898,2.987,4.348,6.692,4.348,11.128v4.348
		c4.604-6.143,10.615-11.424,18.032-15.86c7.417-4.43,15.558-6.648,24.424-6.648
		C1128.652,123.579,1140.675,128.739,1147.323,139.049z"/>
	<path fill="#201F21" d="M1191.569,106.698c-2.391-1.872-3.582-5.199-3.582-9.975v-4.858c0-4.771,1.279-8.098,3.837-9.975
		c2.559-1.872,6.651-2.811,12.275-2.811c5.968,0,10.146,0.939,12.533,2.811c2.386,1.877,3.583,5.204,3.583,9.975v4.858
		c0,4.946-1.241,8.312-3.708,10.102c-2.476,1.79-6.695,2.69-12.662,2.69C1198.046,109.514,1193.954,108.575,1191.569,106.698z
		 M1215.098,258.492c-2.901,2.986-6.566,4.474-10.999,4.474c-4.436,0-8.1-1.488-10.996-4.474c-2.901-2.981-4.348-6.692-4.348-11.128
		V141.739c0-4.436,1.446-8.141,4.348-11.128c2.896-2.981,6.561-4.474,10.996-4.474c4.433,0,8.098,1.493,10.999,4.474
		c2.898,2.987,4.348,6.692,4.348,11.128v105.625C1219.446,251.8,1217.997,255.511,1215.098,258.492z"/>
	<path fill="#201F21" d="M1240.673,234.068c0-4.43,2.215-8.186,6.651-11.254c2.385-1.537,4.858-2.3,7.417-2.3
		c3.579,0,6.988,1.619,10.23,4.858c5.114,5.287,10.442,9.207,15.984,11.765c5.539,2.558,12.234,3.837,20.079,3.837
		c13.299-0.511,19.947-5.539,19.947-15.092c0-4.941-2.262-8.696-6.777-11.254c-4.518-2.559-11.553-5.117-21.1-7.675
		c-9.89-2.723-17.946-5.452-24.169-8.18c-6.226-2.729-11.597-6.862-16.113-12.407c-4.521-5.54-6.777-13-6.777-22.377
		c0-8.185,2.342-15.306,7.033-21.355c4.688-6.05,10.826-10.744,18.416-14.07c7.584-3.322,15.641-4.985,24.169-4.985
		c8.696,0,17.392,1.62,26.088,4.858c8.696,3.239,15.515,8.015,20.461,14.323c2.215,2.729,3.324,5.797,3.324,9.206
		c0,3.926-1.623,7.165-4.859,9.717c-2.391,1.883-5.116,2.816-8.185,2.816c-3.752,0-6.821-1.191-9.207-3.58
		c-3.069-3.75-7.033-6.736-11.894-8.954c-4.858-2.212-10.356-3.327-16.497-3.327c-12.958,0-19.437,4.694-19.437,14.071
		c0,3.75,1.191,6.774,3.582,9.08c2.385,2.3,5.41,4.09,9.078,5.369c3.665,1.279,8.825,2.854,15.473,4.732
		c9.209,2.559,16.881,5.205,23.019,7.928c6.138,2.728,11.34,6.906,15.603,12.533c4.26,5.627,6.393,13.044,6.393,22.25
		c0,8.355-2.473,15.646-7.417,21.866c-4.946,6.225-11.298,10.958-19.053,14.196c-7.762,3.239-15.731,4.859-23.914,4.859
		c-11.254,0-21.74-1.877-31.46-5.627c-9.72-3.75-17.647-9.799-23.785-18.16C1241.441,239.695,1240.673,237.137,1240.673,234.068z"/>
	<path fill="#201F21" d="M1468.809,130.354c8.863,4.523,13.299,10.535,13.299,18.034c0,3.75-1.109,7.032-3.324,9.843
		c-2.218,2.816-5.114,4.222-8.696,4.222c-2.729,0-4.946-0.384-6.648-1.147c-1.707-0.769-3.371-1.795-4.987-3.074
		c-1.622-1.273-3.198-2.338-4.732-3.195c-1.707-0.851-4.222-1.62-7.546-2.3c-3.324-0.681-6.008-1.021-8.056-1.021
		c-12.789,0-22.808,3.964-30.051,11.891c-7.25,7.927-10.87,18.287-10.87,31.073c0,12.275,3.665,22.47,10.999,30.567
		c7.329,8.098,16.708,12.144,28.133,12.144c8.353,0,14.578-1.021,18.671-3.069c1.021-0.51,2.429-1.405,4.219-2.685
		c1.79-1.279,3.453-2.256,4.988-2.942c1.534-0.675,3.409-1.021,5.627-1.021c4.26,0,7.628,1.367,10.102,4.095
		c2.47,2.729,3.708,6.226,3.708,10.486c0,4.09-2.388,7.927-7.159,11.506c-4.776,3.58-11.086,6.44-18.926,8.57
		c-7.845,2.13-16.203,3.195-25.066,3.195c-13.132,0-24.68-3.069-34.655-9.207s-17.691-14.62-23.146-25.451
		c-5.459-10.826-8.185-22.887-8.185-36.189c0-13.807,2.852-26.088,8.567-36.826c5.712-10.744,13.684-19.138,23.914-25.193
		c10.23-6.05,21.825-9.08,34.784-9.08C1448.261,123.579,1459.943,125.841,1468.809,130.354z"/>
	<path fill="#201F21" d="M1623.801,201.332c-3.068,2.553-6.65,3.832-10.743,3.832h-84.401c2.048,10.063,6.733,17.952,14.068,23.661
		c7.329,5.715,15.602,8.564,24.809,8.564c6.988,0,12.445-0.637,16.367-1.916c3.923-1.279,7.036-2.641,9.336-4.09
		c2.303-1.449,3.876-2.432,4.732-2.942c3.068-1.537,5.968-2.3,8.695-2.3c3.58,0,6.651,1.279,9.207,3.832
		c2.559,2.558,3.838,5.544,3.838,8.954c0,4.606-2.392,8.784-7.162,12.534c-4.776,3.925-11.169,7.247-19.182,9.975
		c-8.018,2.723-16.112,4.09-24.298,4.09c-14.323,0-26.815-2.981-37.468-8.949c-10.659-5.967-18.888-14.197-24.683-24.682
		c-5.797-10.486-8.696-22.294-8.696-35.426c0-14.658,3.071-27.532,9.209-38.616s14.235-19.566,24.295-25.451
		c10.06-5.88,20.801-8.822,32.228-8.822c11.252,0,21.866,3.069,31.842,9.207c9.975,6.138,17.943,14.411,23.914,24.809
		c5.967,10.403,8.951,21.657,8.951,33.763C1628.487,195.447,1626.871,198.773,1623.801,201.332z M1528.915,179.592h67.009v-1.795
		c-0.684-7.159-4.181-13.296-10.488-18.413c-6.309-5.116-13.47-7.669-21.482-7.669
		C1544.171,151.714,1532.494,161.009,1528.915,179.592z"/>
	<path fill="#201F21" d="M1763.442,139.049c6.65,10.321,9.975,24.6,9.975,42.843v65.472c0,4.436-1.449,8.147-4.348,11.128
		c-2.901,2.986-6.566,4.474-10.996,4.474c-4.436,0-8.101-1.488-10.999-4.474c-2.901-2.981-4.348-6.692-4.348-11.128v-65.472
		c0-9.376-1.963-16.755-5.883-22.124c-3.925-5.369-10.658-8.054-20.205-8.054c-9.891,0-17.647,2.855-23.274,8.564
		c-5.627,5.715-8.44,12.917-8.44,21.613v65.472c0,4.436-1.45,8.147-4.349,11.128c-2.901,2.986-6.565,4.474-10.996,4.474
		c-4.436,0-8.1-1.488-10.999-4.474c-2.901-2.981-4.348-6.692-4.348-11.128V141.739c0-4.436,1.446-8.141,4.348-11.128
		c2.899-2.981,6.563-4.474,10.999-4.474c4.431,0,8.095,1.493,10.996,4.474c2.898,2.987,4.349,6.692,4.349,11.128v4.348
		c4.603-6.143,10.614-11.424,18.031-15.86c7.417-4.43,15.558-6.648,24.424-6.648
		C1744.771,123.579,1756.793,128.739,1763.442,139.049z"/>
	<path fill="#201F21" d="M1901.297,130.354c8.863,4.523,13.299,10.535,13.299,18.034c0,3.75-1.111,7.032-3.324,9.843
		c-2.217,2.816-5.116,4.222-8.695,4.222c-2.731,0-4.949-0.384-6.651-1.147c-1.707-0.769-3.368-1.795-4.987-3.074
		c-1.622-1.273-3.197-2.338-4.732-3.195c-1.704-0.851-4.219-1.62-7.543-2.3c-3.326-0.681-6.012-1.021-8.057-1.021
		c-12.788,0-22.807,3.964-30.054,11.891s-10.867,18.287-10.867,31.073c0,12.275,3.665,22.47,10.996,30.567
		c7.329,8.098,16.708,12.144,28.133,12.144c8.353,0,14.578-1.021,18.671-3.069c1.023-0.51,2.43-1.405,4.222-2.685
		c1.79-1.279,3.453-2.256,4.987-2.942c1.535-0.675,3.406-1.021,5.625-1.021c4.26,0,7.631,1.367,10.104,4.095
		c2.471,2.729,3.709,6.226,3.709,10.486c0,4.09-2.391,7.927-7.162,11.506c-4.775,3.58-11.086,6.44-18.926,8.57
		c-7.846,2.13-16.201,3.195-25.064,3.195c-13.131,0-24.682-3.069-34.657-9.207c-9.972-6.138-17.69-14.62-23.146-25.451
		c-5.459-10.826-8.186-22.887-8.186-36.189c0-13.807,2.855-26.088,8.57-36.826c5.709-10.744,13.684-19.138,23.914-25.193
		c10.23-6.05,21.822-9.08,34.783-9.08C1880.749,123.579,1892.428,125.841,1901.297,130.354z"/>
	<path fill="#201F21" d="M2056.288,201.332c-3.069,2.553-6.648,3.832-10.741,3.832h-84.401c2.045,10.063,6.733,17.952,14.065,23.661
		c7.331,5.715,15.602,8.564,24.812,8.564c6.988,0,12.442-0.637,16.367-1.916c3.92-1.279,7.033-2.641,9.336-4.09
		c2.301-1.449,3.876-2.432,4.729-2.942c3.071-1.537,5.968-2.3,8.696-2.3c3.582,0,6.65,1.279,9.209,3.832
		c2.559,2.558,3.835,5.544,3.835,8.954c0,4.606-2.389,8.784-7.159,12.534c-4.776,3.925-11.172,7.247-19.185,9.975
		c-8.015,2.723-16.112,4.09-24.295,4.09c-14.323,0-26.815-2.981-37.472-8.949c-10.655-5.967-18.885-14.197-24.68-24.682
		c-5.8-10.486-8.695-22.294-8.695-35.426c0-14.658,3.068-27.532,9.206-38.616s14.235-19.566,24.299-25.451
		c10.058-5.88,20.801-8.822,32.226-8.822c11.254,0,21.868,3.069,31.841,9.207c9.975,6.138,17.943,14.411,23.914,24.809
		c5.967,10.403,8.954,21.657,8.954,33.763C2060.975,195.447,2059.356,198.773,2056.288,201.332z M1961.401,179.592h67.009v-1.795
		c-0.684-7.159-4.181-13.296-10.485-18.413c-6.311-5.116-13.473-7.669-21.484-7.669
		C1976.66,151.714,1964.98,161.009,1961.401,179.592z"/>
</g>
<path fill="#662D91" d="M339.268,32.999H178.105c0-12.256-9.934-22.19-22.187-22.19H94.333c-12.091,0-21.907,9.679-22.162,21.709
	h-0.025v16.714v12.451v21.265v6.791v16.236h16.233h250.889h16.236V89.739v-6.791V49.232
	C355.504,40.306,348.197,32.999,339.268,32.999z"/>
<path fill="#662D91" d="M339.268,133.123H88.379H72.146v16.236v6.791v142.665c0,8.929,6.327,12.583,14.06,8.119l113.558-65.568
	c7.735-4.466,20.389-4.466,28.122,0l113.561,65.568c7.732,4.463,14.06,0.81,14.06-8.119V156.15v-6.791v-16.236H339.268z
	 M245.373,196.891h-63.095v-22.64h63.095V196.891z"/>
</svg>
