<?xml version="1.0" encoding="utf-8"?>
<!-- Generator: Adobe Illustrator 16.0.0, SVG Export Plug-In . SVG Version: 6.00 Build 0)  -->
<!DOCTYPE svg PUBLIC "-//W3C//DTD SVG 1.1//EN" "http://www.w3.org/Graphics/SVG/1.1/DTD/svg11.dtd">
<svg version="1.1" id="Layer_1" xmlns="http://www.w3.org/2000/svg" xmlns:xlink="http://www.w3.org/1999/xlink" x="0px" y="0px"
	 width="2133.293px" height="319.648px" viewBox="0 0 2133.293 319.648" enable-background="new 0 0 2133.293 319.648"
	 xml:space="preserve">
<g>
	<path fill="#201F21" d="M550.547,246.09c1.32,2.292,1.981,4.67,1.981,7.139c0,3.172-1.056,6.078-3.172,8.723
		c-2.642,3.172-6.7,4.761-12.162,4.761c-4.231,0-8.11-0.965-11.634-2.911c-12.689-7.225-19.034-21.94-19.034-44.152
		c0-6.345-2.074-11.367-6.214-15.067c-4.143-3.706-10.093-5.556-17.845-5.556h-49.441v51.292c0,4.761-1.28,8.643-3.833,11.634
		c-2.557,3.002-5.95,4.495-10.178,4.495c-5.116,0-9.565-1.538-13.354-4.625c-3.791-3.082-5.684-6.918-5.684-11.503V97.505
		c0-4.585,1.541-8.416,4.628-11.503c3.082-3.082,6.915-4.625,11.5-4.625h76.143c9.163,0,17.803,2.469,25.913,7.4
		c8.104,4.937,14.582,11.725,19.431,20.356c4.847,8.643,7.27,18.336,7.27,29.084c0,8.819-2.378,17.411-7.137,25.776
		c-4.761,8.376-10.933,15.033-18.509,19.965c11.106,7.758,17.187,18.155,18.243,31.196c0.531,2.821,0.794,5.556,0.794,8.195
		c0.701,5.465,1.408,9.387,2.114,11.77c0.704,2.378,2.29,4.188,4.758,5.42C547.415,241.953,549.225,243.803,550.547,246.09z
		 M500.181,167.303c2.994-2.997,5.459-7.009,7.403-12.031c1.935-5.022,2.906-10.442,2.906-16.259c0-4.932-0.971-9.472-2.906-13.615
		c-1.944-4.143-4.41-7.446-7.403-9.914c-2.999-2.469-6.081-3.706-9.256-3.706h-57.9v60.02h57.9
		C494.101,171.797,497.182,170.299,500.181,167.303z"/>
	<path fill="#201F21" d="M699.532,202.732c-3.172,2.639-6.875,3.961-11.106,3.961h-87.249c2.117,10.402,6.96,18.558,14.542,24.459
		c7.576,5.908,16.128,8.853,25.646,8.853c7.225,0,12.865-0.658,16.92-1.98c4.055-1.322,7.272-2.729,9.65-4.228
		c2.38-1.498,4.006-2.514,4.892-3.042c3.172-1.589,6.169-2.378,8.99-2.378c3.7,0,6.875,1.322,9.517,3.961
		c2.645,2.645,3.967,5.732,3.967,9.256c0,4.761-2.472,9.08-7.403,12.956c-4.937,4.058-11.546,7.491-19.829,10.312
		c-8.289,2.815-16.656,4.228-25.118,4.228c-14.806,0-27.72-3.082-38.732-9.25c-11.018-6.168-19.525-14.676-25.515-25.515
		c-5.993-10.839-8.989-23.046-8.989-36.621c0-15.152,3.175-28.46,9.52-39.918s14.716-20.226,25.115-26.31
		c10.399-6.078,21.503-9.12,33.315-9.12c11.631,0,22.604,3.172,32.916,9.517s18.549,14.897,24.721,25.646
		c6.168,10.754,9.253,22.388,9.253,34.901C704.376,196.648,702.705,200.088,699.532,202.732z M601.444,180.259h69.27v-1.855
		c-0.707-7.4-4.321-13.745-10.842-19.034c-6.521-5.289-13.924-7.928-22.207-7.928C617.215,151.441,605.145,161.049,601.444,180.259z
		"/>
	<path fill="#201F21" d="M930.34,138.349c6.696,10.669,10.048,25.43,10.048,44.288v67.681c0,4.585-1.501,8.421-4.495,11.503
		c-2.999,3.087-6.787,4.625-11.37,4.625c-4.585,0-8.374-1.538-11.367-4.625c-3-3.082-4.495-6.918-4.495-11.503v-67.681
		c0-9.693-1.896-17.32-5.684-22.871c-3.794-5.55-10.445-8.325-19.962-8.325c-9.875,0-17.582,2.951-23.135,8.853
		c-5.553,5.908-8.328,13.354-8.328,22.343v67.681c0,4.585-1.501,8.421-4.495,11.503c-3,3.087-6.788,4.625-11.37,4.625
		c-4.585,0-8.374-1.538-11.367-4.625c-3-3.082-4.495-6.918-4.495-11.503v-67.681c0-9.693-1.896-17.32-5.687-22.871
		c-3.791-5.55-10.442-8.325-19.959-8.325c-9.875,0-17.581,2.951-23.134,8.853c-5.553,5.908-8.328,13.354-8.328,22.343v67.681
		c0,4.585-1.501,8.421-4.495,11.503c-3,3.087-6.788,4.625-11.37,4.625c-4.585,0-8.374-1.538-11.367-4.625
		c-2.999-3.082-4.495-6.918-4.495-11.503V141.129c0-4.585,1.496-8.416,4.495-11.503c2.994-3.082,6.782-4.625,11.367-4.625
		c4.583,0,8.371,1.543,11.37,4.625c2.993,3.087,4.495,6.918,4.495,11.503v4.228c4.758-6.345,10.794-11.765,18.109-16.259
		c7.313-4.495,15.468-6.742,24.457-6.742c22.209,0,36.394,9.693,42.565,29.084c4.055-7.406,10.181-14.103,18.376-20.095
		c8.198-5.993,17.491-8.989,27.893-8.989C911.57,122.356,923.641,127.691,930.34,138.349z"/>
	<path fill="#201F21" d="M975.815,104.905c-2.472-1.935-3.703-5.374-3.703-10.312v-5.022c0-4.932,1.322-8.371,3.967-10.312
		c2.645-1.935,6.875-2.906,12.689-2.906c6.169,0,10.487,0.971,12.956,2.906c2.466,1.941,3.703,5.38,3.703,10.312v5.022
		c0,5.113-1.283,8.592-3.833,10.442c-2.56,1.85-6.921,2.78-13.089,2.78C982.511,107.816,978.281,106.846,975.815,104.905z
		 M1000.138,261.821c-3,3.087-6.788,4.625-11.37,4.625c-4.585,0-8.374-1.538-11.367-4.625c-3-3.082-4.495-6.918-4.495-11.503
		V141.129c0-4.585,1.495-8.416,4.495-11.503c2.994-3.082,6.782-4.625,11.367-4.625c4.583,0,8.371,1.543,11.37,4.625
		c2.996,3.087,4.495,6.918,4.495,11.503v109.188C1004.633,254.903,1003.134,258.739,1000.138,261.821z"/>
	<path fill="#201F21" d="M1150.045,138.349c6.875,10.669,10.312,25.43,10.312,44.288v67.681c0,4.585-1.498,8.421-4.495,11.503
		c-2.999,3.087-6.787,4.625-11.367,4.625c-4.585,0-8.374-1.538-11.37-4.625c-2.999-3.082-4.494-6.918-4.494-11.503v-67.681
		c0-9.693-2.029-17.32-6.081-22.871c-4.058-5.55-11.018-8.325-20.887-8.325c-10.224,0-18.243,2.951-24.06,8.853
		c-5.817,5.908-8.725,13.354-8.725,22.343v67.681c0,4.585-1.499,8.421-4.495,11.503c-2.999,3.087-6.787,4.625-11.367,4.625
		c-4.585,0-8.374-1.538-11.37-4.625c-3-3.082-4.495-6.918-4.495-11.503V141.129c0-4.585,1.495-8.416,4.495-11.503
		c2.997-3.082,6.785-4.625,11.37-4.625c4.58,0,8.368,1.543,11.367,4.625c2.997,3.087,4.495,6.918,4.495,11.503v4.495
		c4.758-6.351,10.973-11.81,18.64-16.396c7.667-4.58,16.083-6.872,25.248-6.872C1130.744,122.356,1143.172,127.691,1150.045,138.349
		z"/>
	<path fill="#201F21" d="M1195.783,104.905c-2.472-1.935-3.703-5.374-3.703-10.312v-5.022c0-4.932,1.322-8.371,3.967-10.312
		c2.645-1.935,6.875-2.906,12.689-2.906c6.168,0,10.487,0.971,12.956,2.906c2.466,1.941,3.703,5.38,3.703,10.312v5.022
		c0,5.113-1.283,8.592-3.834,10.442c-2.56,1.85-6.92,2.78-13.089,2.78C1202.48,107.816,1198.249,106.846,1195.783,104.905z
		 M1220.106,261.821c-2.999,3.087-6.787,4.625-11.37,4.625c-4.586,0-8.374-1.538-11.367-4.625c-3-3.082-4.495-6.918-4.495-11.503
		V141.129c0-4.585,1.496-8.416,4.495-11.503c2.993-3.082,6.781-4.625,11.367-4.625c4.583,0,8.371,1.543,11.37,4.625
		c2.997,3.087,4.495,6.918,4.495,11.503v109.188C1224.601,254.903,1223.103,258.739,1220.106,261.821z"/>
	<path fill="#201F21" d="M1246.544,236.573c0-4.58,2.29-8.461,6.875-11.634c2.466-1.589,5.022-2.378,7.667-2.378
		c3.7,0,7.224,1.674,10.575,5.022c5.286,5.465,10.794,9.517,16.523,12.162c5.726,2.645,12.647,3.967,20.757,3.967
		c13.748-0.528,20.62-5.726,20.62-15.601c0-5.108-2.338-8.989-7.006-11.634c-4.67-2.645-11.943-5.289-21.812-7.934
		c-10.224-2.815-18.552-5.635-24.984-8.456c-6.436-2.821-11.989-7.094-16.656-12.826c-4.674-5.726-7.006-13.438-7.006-23.131
		c0-8.461,2.42-15.822,7.27-22.076c4.847-6.254,11.191-11.106,19.037-14.545c7.84-3.434,16.168-5.153,24.984-5.153
		c8.989,0,17.979,1.674,26.968,5.022c8.989,3.348,16.038,8.285,21.151,14.806c2.29,2.82,3.436,5.993,3.436,9.517
		c0,4.058-1.677,7.406-5.022,10.045c-2.471,1.946-5.289,2.911-8.461,2.911c-3.879,0-7.051-1.231-9.517-3.7
		c-3.172-3.876-7.27-6.963-12.295-9.256c-5.022-2.287-10.706-3.439-17.053-3.439c-13.396,0-20.093,4.853-20.093,14.545
		c0,3.876,1.231,7.003,3.703,9.387c2.466,2.377,5.593,4.228,9.384,5.55c3.788,1.322,9.123,2.951,15.995,4.892
		c9.52,2.645,17.451,5.38,23.795,8.195c6.345,2.821,11.722,7.139,16.129,12.956c4.404,5.817,6.608,13.484,6.608,23.001
		c0,8.637-2.557,16.174-7.667,22.604c-5.113,6.436-11.679,11.328-19.695,14.676c-8.024,3.348-16.262,5.022-24.721,5.022
		c-11.634,0-22.473-1.941-32.521-5.817c-10.047-3.876-18.243-10.13-24.587-18.773
		C1247.338,242.39,1246.544,239.745,1246.544,236.573z"/>
	<path fill="#201F21" d="M1482.377,129.359c9.163,4.676,13.748,10.89,13.748,18.643c0,3.876-1.146,7.27-3.436,10.175
		c-2.293,2.911-5.287,4.364-8.99,4.364c-2.82,0-5.113-0.397-6.873-1.186c-1.765-0.795-3.484-1.856-5.156-3.178
		c-1.677-1.316-3.306-2.417-4.892-3.303c-1.765-0.88-4.364-1.674-7.8-2.378c-3.437-0.704-6.212-1.056-8.328-1.056
		c-13.22,0-23.577,4.097-31.065,12.292c-7.494,8.194-11.237,18.903-11.237,32.121c0,12.689,3.788,23.228,11.37,31.599
		c7.576,8.371,17.272,12.553,29.082,12.553c8.635,0,15.07-1.055,19.301-3.172c1.055-0.528,2.511-1.453,4.361-2.775
		s3.569-2.333,5.156-3.042c1.586-0.698,3.524-1.056,5.817-1.056c4.404,0,7.885,1.413,10.442,4.234
		c2.554,2.82,3.833,6.436,3.833,10.839c0,4.228-2.468,8.195-7.4,11.895c-4.938,3.7-11.461,6.657-19.565,8.859
		c-8.11,2.202-16.75,3.303-25.913,3.303c-13.575,0-25.512-3.172-35.824-9.517s-18.288-15.113-23.926-26.31
		c-5.644-11.191-8.461-23.66-8.461-37.41c0-14.273,2.948-26.968,8.856-38.068c5.905-11.106,14.145-19.783,24.721-26.043
		c10.575-6.254,22.561-9.386,35.957-9.386C1461.135,122.356,1473.212,124.694,1482.377,129.359z"/>
	<path fill="#201F21" d="M1642.595,202.732c-3.172,2.639-6.872,3.961-11.103,3.961h-87.249c2.117,10.402,6.961,18.558,14.543,24.459
		c7.576,5.908,16.128,8.853,25.646,8.853c7.225,0,12.865-0.658,16.92-1.98s7.272-2.729,9.65-4.228
		c2.378-1.498,4.007-2.514,4.892-3.042c3.173-1.589,6.169-2.378,8.989-2.378c3.7,0,6.873,1.322,9.518,3.961
		c2.645,2.645,3.967,5.732,3.967,9.256c0,4.761-2.472,9.08-7.403,12.956c-4.938,4.058-11.546,7.491-19.831,10.312
		c-8.286,2.815-16.656,4.228-25.115,4.228c-14.807,0-27.72-3.082-38.732-9.25c-11.018-6.168-19.525-14.676-25.515-25.515
		c-5.993-10.839-8.989-23.046-8.989-36.621c0-15.152,3.175-28.46,9.52-39.918s14.715-20.226,25.115-26.31
		c10.399-6.078,21.503-9.12,33.315-9.12c11.631,0,22.604,3.172,32.915,9.517s18.546,14.897,24.721,25.646
		c6.169,10.754,9.253,22.388,9.253,34.901C1647.442,196.648,1645.768,200.088,1642.595,202.732z M1544.511,180.259h69.267v-1.855
		c-0.704-7.4-4.319-13.745-10.84-19.034s-13.927-7.928-22.206-7.928C1560.282,151.441,1548.21,161.049,1544.511,180.259z"/>
	<path fill="#201F21" d="M1786.95,138.349c6.875,10.669,10.312,25.43,10.312,44.288v67.681c0,4.585-1.501,8.421-4.495,11.503
		c-2.999,3.087-6.787,4.625-11.369,4.625c-4.586,0-8.371-1.538-11.367-4.625c-3-3.082-4.495-6.918-4.495-11.503v-67.681
		c0-9.693-2.029-17.32-6.084-22.871s-11.015-8.325-20.884-8.325c-10.227,0-18.245,2.951-24.06,8.853
		c-5.817,5.908-8.726,13.354-8.726,22.343v67.681c0,4.585-1.498,8.421-4.494,11.503c-3,3.087-6.788,4.625-11.367,4.625
		c-4.586,0-8.377-1.538-11.37-4.625c-2.999-3.082-4.495-6.918-4.495-11.503V141.129c0-4.585,1.496-8.416,4.495-11.503
		c2.993-3.082,6.784-4.625,11.37-4.625c4.579,0,8.367,1.543,11.367,4.625c2.996,3.087,4.494,6.918,4.494,11.503v4.495
		c4.759-6.351,10.973-11.81,18.64-16.396c7.667-4.58,16.08-6.872,25.249-6.872C1767.649,122.356,1780.074,127.691,1786.95,138.349z"
		/>
	<path fill="#201F21" d="M1929.454,129.359c9.165,4.676,13.75,10.89,13.75,18.643c0,3.876-1.148,7.27-3.438,10.175
		c-2.293,2.911-5.286,4.364-8.989,4.364c-2.82,0-5.113-0.397-6.873-1.186c-1.765-0.795-3.484-1.856-5.155-3.178
		c-1.677-1.316-3.306-2.417-4.892-3.303c-1.763-0.88-4.361-1.674-7.801-2.378c-3.437-0.704-6.212-1.056-8.325-1.056
		c-13.223,0-23.58,4.097-31.068,12.292c-7.494,8.194-11.233,18.903-11.233,32.121c0,12.689,3.785,23.228,11.367,31.599
		c7.576,8.371,17.271,12.553,29.081,12.553c8.635,0,15.07-1.055,19.302-3.172c1.058-0.528,2.511-1.453,4.36-2.775
		c1.851-1.322,3.57-2.333,5.159-3.042c1.583-0.698,3.521-1.056,5.814-1.056c4.403,0,7.885,1.413,10.444,4.234
		c2.554,2.82,3.831,6.436,3.831,10.839c0,4.228-2.469,8.195-7.4,11.895c-4.938,3.7-11.461,6.657-19.564,8.859
		c-8.11,2.202-16.75,3.303-25.91,3.303c-13.574,0-25.515-3.172-35.826-9.517s-18.288-15.113-23.927-26.31
		c-5.644-11.191-8.461-23.66-8.461-37.41c0-14.273,2.951-26.968,8.858-38.068c5.902-11.106,14.143-19.783,24.721-26.043
		c10.572-6.254,22.559-9.386,35.957-9.386C1908.211,122.356,1920.289,124.694,1929.454,129.359z"/>
	<path fill="#201F21" d="M2089.675,202.732c-3.173,2.639-6.876,3.961-11.104,3.961h-87.249c2.114,10.402,6.958,18.558,14.54,24.459
		c7.576,5.908,16.128,8.853,25.646,8.853c7.225,0,12.865-0.658,16.923-1.98c4.052-1.322,7.27-2.729,9.647-4.228
		c2.381-1.498,4.007-2.514,4.893-3.042c3.172-1.589,6.168-2.378,8.989-2.378c3.7,0,6.875,1.322,9.517,3.961
		c2.645,2.645,3.967,5.732,3.967,9.256c0,4.761-2.469,9.08-7.4,12.956c-4.937,4.058-11.549,7.491-19.831,10.312
		c-8.289,2.815-16.656,4.228-25.115,4.228c-14.807,0-27.723-3.082-38.735-9.25c-11.018-6.168-19.524-14.676-25.512-25.515
		c-5.996-10.839-8.989-23.046-8.989-36.621c0-15.152,3.172-28.46,9.517-39.918s14.716-20.226,25.118-26.31
		c10.396-6.078,21.503-9.12,33.313-9.12c11.634,0,22.604,3.172,32.915,9.517s18.549,14.897,24.721,25.646
		c6.169,10.754,9.256,22.388,9.256,34.901C2094.518,196.648,2092.847,200.088,2089.675,202.732z M1991.586,180.259h69.271v-1.855
		c-0.707-7.4-4.321-13.745-10.843-19.034c-6.521-5.289-13.924-7.928-22.206-7.928
		C2007.361,151.441,1995.287,161.049,1991.586,180.259z"/>
</g>
<path fill="#29ABE2" d="M314.729,28.72h-166.6c0-12.669-10.269-22.938-22.936-22.938H61.53c-12.5,0-22.646,10.005-22.91,22.442
	h-0.026v17.278v12.871v21.982v7.02v16.784h16.781h259.354h16.784V87.375v-7.02V45.501C331.513,36.274,323.959,28.72,314.729,28.72z"
	/>
<path fill="#29ABE2" d="M314.729,132.222H55.375H38.594v16.784v7.02v147.478c0,9.23,6.541,13.007,14.534,8.394l117.389-67.78
	c7.996-4.617,21.077-4.617,29.07,0l117.392,67.78c7.993,4.614,14.534,0.837,14.534-8.394V156.026v-7.02v-16.784H314.729z
	 M217.665,198.141h-65.224v-23.404h65.224V198.141z"/>
</svg>
