<?xml version="1.0" encoding="utf-8"?>
<!-- Generator: Adobe Illustrator 16.0.0, SVG Export Plug-In . SVG Version: 6.00 Build 0)  -->
<!DOCTYPE svg PUBLIC "-//W3C//DTD SVG 1.1//EN" "http://www.w3.org/Graphics/SVG/1.1/DTD/svg11.dtd">
<svg version="1.1" id="Layer_1" xmlns="http://www.w3.org/2000/svg" xmlns:xlink="http://www.w3.org/1999/xlink" x="0px" y="0px"
	 width="2133.293px" height="319.648px" viewBox="0 0 2133.293 319.648" enable-background="new 0 0 2133.293 319.648"
	 xml:space="preserve">
<g>
	<g>
		<path fill="#FFFFFF" d="M543.044,247.342c1.339,2.326,2.009,4.739,2.009,7.243c0,3.218-1.071,6.167-3.218,8.85
			c-2.68,3.218-6.797,4.831-12.338,4.831c-4.292,0-8.228-0.979-11.803-2.954c-12.874-7.33-19.311-22.259-19.311-44.794
			c0-6.437-2.104-11.533-6.305-15.287c-4.203-3.76-10.24-5.637-18.104-5.637h-50.16v52.037c0,4.831-1.298,8.769-3.889,11.803
			c-2.594,3.045-6.037,4.56-10.326,4.56c-5.19,0-9.705-1.561-13.547-4.693c-3.846-3.126-5.767-7.018-5.767-11.67V96.598
			c0-4.652,1.563-8.539,4.695-11.671c3.126-3.126,7.016-4.692,11.668-4.692h77.25c9.295,0,18.062,2.504,26.289,7.508
			c8.222,5.009,14.794,11.896,19.714,20.652c4.917,8.769,7.375,18.603,7.375,29.508c0,8.947-2.413,17.664-7.24,26.151
			c-4.831,8.498-11.092,15.252-18.778,20.255c11.268,7.871,17.437,18.418,18.508,31.649c0.538,2.861,0.806,5.637,0.806,8.314
			c0.711,5.544,1.428,9.523,2.145,11.941c0.714,2.413,2.323,4.249,4.828,5.499C539.866,243.145,541.703,245.022,543.044,247.342z
			 M491.945,167.41c3.037-3.04,5.539-7.111,7.511-12.206c1.963-5.096,2.948-10.594,2.948-16.496c0-5.003-0.985-9.609-2.948-13.813
			c-1.972-4.203-4.474-7.554-7.511-10.059c-3.042-2.504-6.169-3.76-9.391-3.76h-58.742v60.892h58.742
			C485.776,171.97,488.903,170.45,491.945,167.41z"/>
		<path fill="#FFFFFF" d="M694.195,203.354c-3.219,2.677-6.976,4.019-11.268,4.019H594.41c2.147,10.554,7.062,18.828,14.754,24.815
			c7.687,5.994,16.363,8.982,26.019,8.982c7.329,0,13.052-0.668,17.166-2.009c4.114-1.342,7.378-2.77,9.791-4.29
			c2.415-1.52,4.065-2.551,4.963-3.086c3.218-1.612,6.258-2.413,9.12-2.413c3.754,0,6.975,1.341,9.655,4.019
			c2.683,2.683,4.025,5.815,4.025,9.391c0,4.831-2.508,9.212-7.511,13.145c-5.009,4.117-11.714,7.6-20.117,10.462
			c-8.409,2.855-16.898,4.289-25.483,4.289c-15.021,0-28.123-3.126-39.295-9.385c-11.178-6.258-19.809-14.889-25.886-25.886
			c-6.08-10.997-9.12-23.382-9.12-37.154c0-15.373,3.221-28.875,9.658-40.499s14.93-20.52,25.48-26.692
			c10.55-6.167,21.815-9.252,33.8-9.252c11.8,0,22.932,3.218,33.394,9.655c10.461,6.437,18.818,15.114,25.08,26.019
			c6.258,10.911,9.388,22.713,9.388,35.409C699.109,197.183,697.414,200.671,694.195,203.354z M594.681,180.555h70.277v-1.883
			c-0.717-7.508-4.385-13.945-11-19.311c-6.616-5.366-14.126-8.043-22.529-8.043C610.681,151.317,598.435,161.065,594.681,180.555z"
			/>
		<path fill="#FFFFFF" d="M928.358,138.035c6.794,10.824,10.194,25.8,10.194,44.932v68.665c0,4.652-1.523,8.544-4.56,11.67
			c-3.042,3.132-6.886,4.693-11.535,4.693c-4.652,0-8.496-1.561-11.533-4.693c-3.042-3.126-4.56-7.018-4.56-11.67v-68.665
			c0-9.834-1.923-17.572-5.767-23.203c-3.849-5.631-10.597-8.446-20.252-8.446c-10.019,0-17.837,2.994-23.471,8.982
			c-5.634,5.994-8.449,13.547-8.449,22.667v68.665c0,4.652-1.523,8.544-4.561,11.67c-3.042,3.132-6.886,4.693-11.535,4.693
			c-4.652,0-8.495-1.561-11.532-4.693c-3.043-3.126-4.56-7.018-4.56-11.67v-68.665c0-9.834-1.923-17.572-5.769-23.203
			c-3.846-5.631-10.594-8.446-20.25-8.446c-10.018,0-17.837,2.994-23.471,8.982c-5.634,5.994-8.449,13.547-8.449,22.667v68.665
			c0,4.652-1.523,8.544-4.56,11.67c-3.043,3.132-6.886,4.693-11.535,4.693c-4.652,0-8.496-1.561-11.533-4.693
			c-3.042-3.126-4.56-7.018-4.56-11.67V140.856c0-4.652,1.518-8.539,4.56-11.67c3.037-3.126,6.88-4.692,11.533-4.692
			c4.649,0,8.492,1.566,11.535,4.692c3.037,3.132,4.56,7.019,4.56,11.67v4.29c4.828-6.437,10.951-11.936,18.373-16.496
			c7.418-4.56,15.692-6.84,24.812-6.84c22.532,0,36.923,9.834,43.185,29.507c4.113-7.514,10.329-14.308,18.643-20.388
			c8.317-6.08,17.745-9.12,28.299-9.12C909.315,121.81,921.562,127.222,928.358,138.035z"/>
		<path fill="#FFFFFF" d="M974.494,104.105c-2.507-1.963-3.757-5.453-3.757-10.461v-5.096c0-5.003,1.341-8.492,4.024-10.461
			c2.683-1.963,6.975-2.948,12.874-2.948c6.258,0,10.64,0.984,13.145,2.948c2.501,1.969,3.757,5.458,3.757,10.461v5.096
			c0,5.188-1.301,8.717-3.889,10.594c-2.597,1.877-7.021,2.821-13.28,2.821C981.288,107.059,976.996,106.074,974.494,104.105z
			 M999.171,263.302c-3.043,3.132-6.886,4.693-11.535,4.693c-4.652,0-8.496-1.561-11.533-4.693c-3.043-3.126-4.56-7.018-4.56-11.67
			V140.856c0-4.652,1.517-8.539,4.56-11.67c3.037-3.126,6.88-4.692,11.533-4.692c4.649,0,8.492,1.566,11.535,4.692
			c3.04,3.132,4.56,7.019,4.56,11.67v110.776C1003.731,256.284,1002.211,260.176,999.171,263.302z"/>
		<path fill="#FFFFFF" d="M1151.257,138.035c6.976,10.824,10.462,25.8,10.462,44.932v68.665c0,4.652-1.521,8.544-4.561,11.67
			c-3.042,3.132-6.886,4.693-11.532,4.693c-4.652,0-8.495-1.561-11.535-4.693c-3.043-3.126-4.56-7.018-4.56-11.67v-68.665
			c0-9.834-2.058-17.572-6.169-23.203c-4.116-5.631-11.178-8.446-21.19-8.446c-10.373,0-18.508,2.994-24.409,8.982
			c-5.902,5.994-8.853,13.547-8.853,22.667v68.665c0,4.652-1.52,8.544-4.56,11.67c-3.043,3.132-6.886,4.693-11.532,4.693
			c-4.652,0-8.496-1.561-11.536-4.693c-3.043-3.126-4.56-7.018-4.56-11.67V140.856c0-4.652,1.517-8.539,4.56-11.67
			c3.04-3.126,6.883-4.692,11.536-4.692c4.646,0,8.489,1.566,11.532,4.692c3.04,3.132,4.56,7.019,4.56,11.67v4.56
			c4.828-6.443,11.132-11.981,18.911-16.634c7.779-4.646,16.317-6.972,25.616-6.972
			C1131.676,121.81,1144.285,127.222,1151.257,138.035z"/>
		<path fill="#FFFFFF" d="M1197.661,104.105c-2.507-1.963-3.757-5.453-3.757-10.461v-5.096c0-5.003,1.342-8.492,4.024-10.461
			c2.683-1.963,6.976-2.948,12.874-2.948c6.259,0,10.64,0.984,13.145,2.948c2.502,1.969,3.757,5.458,3.757,10.461v5.096
			c0,5.188-1.301,8.717-3.889,10.594c-2.597,1.877-7.021,2.821-13.28,2.821C1204.455,107.059,1200.163,106.074,1197.661,104.105z
			 M1222.337,263.302c-3.042,3.132-6.886,4.693-11.535,4.693c-4.652,0-8.495-1.561-11.532-4.693c-3.043-3.126-4.56-7.018-4.56-11.67
			V140.856c0-4.652,1.517-8.539,4.56-11.67c3.037-3.126,6.88-4.692,11.532-4.692c4.649,0,8.493,1.566,11.535,4.692
			c3.04,3.132,4.561,7.019,4.561,11.67v110.776C1226.898,256.284,1225.377,260.176,1222.337,263.302z"/>
		<path fill="#FFFFFF" d="M1249.159,237.687c0-4.646,2.323-8.584,6.976-11.803c2.501-1.612,5.095-2.412,7.778-2.412
			c3.754,0,7.33,1.698,10.729,5.095c5.363,5.544,10.951,9.656,16.764,12.338c5.809,2.683,12.831,4.025,21.058,4.025
			c13.948-0.536,20.92-5.81,20.92-15.828c0-5.182-2.372-9.12-7.108-11.803c-4.739-2.683-12.117-5.366-22.129-8.049
			c-10.372-2.856-18.821-5.717-25.348-8.579c-6.529-2.861-12.163-7.197-16.898-13.012c-4.741-5.809-7.108-13.634-7.108-23.468
			c0-8.584,2.456-16.052,7.375-22.397c4.917-6.345,11.354-11.268,19.314-14.757c7.954-3.483,16.403-5.228,25.348-5.228
			c9.12,0,18.24,1.698,27.36,5.095c9.12,3.397,16.271,8.406,21.459,15.021c2.323,2.862,3.486,6.08,3.486,9.656
			c0,4.117-1.701,7.514-5.095,10.191c-2.508,1.975-5.366,2.954-8.585,2.954c-3.935,0-7.153-1.25-9.655-3.754
			c-3.218-3.933-7.375-7.065-12.474-9.391c-5.096-2.32-10.862-3.489-17.302-3.489c-13.591,0-20.385,4.923-20.385,14.757
			c0,3.932,1.25,7.104,3.757,9.523c2.502,2.412,5.674,4.289,9.521,5.631c3.843,1.341,9.255,2.994,16.228,4.963
			c9.658,2.683,17.705,5.458,24.142,8.314c6.437,2.862,11.892,7.243,16.363,13.145c4.468,5.902,6.705,13.68,6.705,23.335
			c0,8.763-2.594,16.409-7.779,22.933c-5.188,6.529-11.849,11.492-19.981,14.889c-8.141,3.397-16.499,5.095-25.08,5.095
			c-11.803,0-22.8-1.969-32.994-5.901s-18.508-10.277-24.945-19.046C1249.965,243.588,1249.159,240.905,1249.159,237.687z"/>
		<path fill="#FFFFFF" d="M1488.421,128.915c9.295,4.744,13.948,11.048,13.948,18.914c0,3.932-1.166,7.375-3.486,10.323
			c-2.326,2.954-5.363,4.427-9.12,4.427c-2.861,0-5.188-0.403-6.972-1.203c-1.791-0.806-3.535-1.883-5.231-3.224
			c-1.701-1.336-3.354-2.453-4.963-3.351c-1.791-0.893-4.428-1.698-7.914-2.412c-3.486-0.714-6.302-1.071-8.449-1.071
			c-13.413,0-23.92,4.157-31.518,12.471c-7.603,8.314-11.4,19.178-11.4,32.588c0,12.874,3.843,23.566,11.536,32.058
			c7.686,8.492,17.523,12.736,29.504,12.736c8.76,0,15.29-1.071,19.579-3.219c1.074-0.535,2.551-1.474,4.428-2.815
			c1.877-1.341,3.622-2.366,5.231-3.086c1.609-0.708,3.575-1.071,5.901-1.071c4.468,0,8,1.434,10.594,4.295
			c2.591,2.862,3.889,6.529,3.889,10.997c0,4.29-2.504,8.314-7.508,12.068c-5.009,3.754-11.627,6.754-19.849,8.988
			c-8.228,2.234-16.994,3.351-26.289,3.351c-13.772,0-25.883-3.218-36.345-9.655s-18.554-15.333-24.274-26.692
			c-5.726-11.354-8.584-24.003-8.584-37.954c0-14.48,2.991-27.36,8.985-38.622c5.99-11.268,14.351-20.071,25.08-26.421
			c10.729-6.345,22.889-9.523,36.479-9.523C1466.871,121.81,1479.123,124.182,1488.421,128.915z"/>
		<path fill="#FFFFFF" d="M1650.972,203.354c-3.219,2.677-6.976,4.019-11.268,4.019h-88.517
			c2.148,10.554,7.062,18.828,14.754,24.815c7.686,5.994,16.362,8.982,26.018,8.982c7.33,0,13.053-0.668,17.167-2.009
			c4.113-1.342,7.378-2.77,9.79-4.29c2.413-1.52,4.065-2.551,4.963-3.086c3.219-1.612,6.259-2.413,9.117-2.413
			c3.758,0,6.979,1.341,9.659,4.019c2.683,2.683,4.024,5.815,4.024,9.391c0,4.831-2.508,9.212-7.511,13.145
			c-5.01,4.117-11.714,7.6-20.117,10.462c-8.409,2.855-16.898,4.289-25.483,4.289c-15.021,0-28.123-3.126-39.295-9.385
			c-11.179-6.258-19.809-14.889-25.886-25.886c-6.08-10.997-9.12-23.382-9.12-37.154c0-15.373,3.221-28.875,9.658-40.499
			s14.93-20.52,25.48-26.692c10.547-6.167,21.815-9.252,33.799-9.252c11.801,0,22.933,3.218,33.395,9.655
			c10.461,6.437,18.818,15.114,25.08,26.019c6.258,10.911,9.388,22.713,9.388,35.409
			C1655.886,197.183,1654.191,200.671,1650.972,203.354z M1551.458,180.555h70.276v-1.883c-0.717-7.508-4.384-13.945-11-19.311
			c-6.615-5.366-14.126-8.043-22.529-8.043C1567.458,151.317,1555.212,161.065,1551.458,180.555z"/>
		<path fill="#FFFFFF" d="M1797.422,138.035c6.975,10.824,10.461,25.8,10.461,44.932v68.665c0,4.652-1.52,8.544-4.56,11.67
			c-3.043,3.132-6.886,4.693-11.532,4.693c-4.652,0-8.496-1.561-11.535-4.693c-3.043-3.126-4.561-7.018-4.561-11.67v-68.665
			c0-9.834-2.059-17.572-6.169-23.203c-4.117-5.631-11.179-8.446-21.191-8.446c-10.372,0-18.507,2.994-24.409,8.982
			c-5.901,5.994-8.852,13.547-8.852,22.667v68.665c0,4.652-1.521,8.544-4.561,11.67c-3.043,3.132-6.886,4.693-11.532,4.693
			c-4.652,0-8.498-1.561-11.535-4.693c-3.043-3.126-4.561-7.018-4.561-11.67V140.856c0-4.652,1.518-8.539,4.561-11.67
			c3.037-3.126,6.883-4.692,11.535-4.692c4.646,0,8.489,1.566,11.532,4.692c3.04,3.132,4.561,7.019,4.561,11.67v4.56
			c4.827-6.443,11.132-11.981,18.91-16.634c7.778-4.646,16.314-6.972,25.615-6.972C1777.84,121.81,1790.45,127.222,1797.422,138.035
			z"/>
		<path fill="#FFFFFF" d="M1942,128.915c9.296,4.744,13.947,11.048,13.947,18.914c0,3.932-1.165,7.375-3.485,10.323
			c-2.326,2.954-5.366,4.427-9.12,4.427c-2.864,0-5.19-0.403-6.976-1.203c-1.79-0.806-3.532-1.883-5.23-3.224
			c-1.701-1.336-3.354-2.453-4.963-3.351c-1.788-0.893-4.425-1.698-7.911-2.412c-3.489-0.714-6.305-1.071-8.449-1.071
			c-13.412,0-23.92,4.157-31.52,12.471c-7.601,8.314-11.397,19.178-11.397,32.588c0,12.874,3.843,23.566,11.532,32.058
			c7.687,8.492,17.523,12.736,29.505,12.736c8.76,0,15.289-1.071,19.581-3.219c1.074-0.535,2.548-1.474,4.428-2.815
			c1.877-1.341,3.622-2.366,5.23-3.086c1.609-0.708,3.573-1.071,5.899-1.071c4.468,0,8.003,1.434,10.597,4.295
			c2.591,2.862,3.889,6.529,3.889,10.997c0,4.29-2.507,8.314-7.51,12.068c-5.01,3.754-11.628,6.754-19.85,8.988
			c-8.228,2.234-16.99,3.351-26.286,3.351c-13.772,0-25.887-3.218-36.348-9.655c-10.459-6.437-18.554-15.333-24.274-26.692
			c-5.726-11.354-8.584-24.003-8.584-37.954c0-14.48,2.994-27.36,8.987-38.622c5.987-11.268,14.351-20.071,25.08-26.421
			c10.729-6.345,22.886-9.523,36.479-9.523C1920.45,121.81,1932.7,124.182,1942,128.915z"/>
		<path fill="#FFFFFF" d="M2104.551,203.354c-3.219,2.677-6.975,4.019-11.268,4.019h-88.517
			c2.147,10.554,7.062,18.828,14.751,24.815c7.689,5.994,16.363,8.982,26.021,8.982c7.329,0,13.049-0.668,17.166-2.009
			c4.111-1.342,7.375-2.77,9.791-4.29c2.415-1.52,4.064-2.551,4.96-3.086c3.222-1.612,6.259-2.413,9.12-2.413
			c3.757,0,6.978,1.341,9.658,4.019c2.683,2.683,4.021,5.815,4.021,9.391c0,4.831-2.505,9.212-7.508,13.145
			c-5.01,4.117-11.717,7.6-20.117,10.462c-8.409,2.855-16.898,4.289-25.482,4.289c-15.021,0-28.123-3.126-39.296-9.385
			c-11.179-6.258-19.81-14.889-25.886-25.886c-6.083-10.997-9.12-23.382-9.12-37.154c0-15.373,3.218-28.875,9.655-40.499
			c6.437-11.625,14.93-20.52,25.482-26.692c10.549-6.167,21.816-9.252,33.798-9.252c11.803,0,22.935,3.218,33.394,9.655
			c10.462,6.437,18.821,15.114,25.08,26.019c6.259,10.911,9.391,22.713,9.391,35.409
			C2109.465,197.183,2107.77,200.671,2104.551,203.354z M2005.038,180.555h70.277v-1.883c-0.721-7.508-4.388-13.945-11-19.311
			c-6.619-5.366-14.127-8.043-22.532-8.043C2021.038,151.317,2008.792,161.065,2005.038,180.555z"/>
	</g>
	<g>
		<path fill="#FFFFFF" d="M303.796,26.815H134.774c0-12.856-10.418-23.272-23.269-23.272H46.916
			c-12.681,0-22.976,10.151-23.243,22.766h-0.026v17.532v13.058v22.299v7.122v17.031h17.025h263.124h17.028V86.32v-7.122V43.841
			C320.824,34.479,313.161,26.815,303.796,26.815z"/>
		<path fill="#FFFFFF" d="M40.672,131.822H23.647v17.025v7.122v149.622c0,9.368,6.636,13.196,14.745,8.516l119.096-68.763
			c8.112-4.687,21.383-4.687,29.493,0l119.098,68.763c8.11,4.681,14.745,0.852,14.745-8.516V155.97v-7.122v-17.025h-17.028H40.672z"
			/>
	</g>
</g>
</svg>
