<?xml version="1.0" encoding="utf-8"?>
<!-- Generator: Adobe Illustrator 16.0.0, SVG Export Plug-In . SVG Version: 6.00 Build 0)  -->
<!DOCTYPE svg PUBLIC "-//W3C//DTD SVG 1.1//EN" "http://www.w3.org/Graphics/SVG/1.1/DTD/svg11.dtd">
<svg version="1.1" id="Layer_1" xmlns="http://www.w3.org/2000/svg" xmlns:xlink="http://www.w3.org/1999/xlink" x="0px" y="0px"
	 width="2133.293px" height="319.648px" viewBox="0 0 2133.293 319.648" enable-background="new 0 0 2133.293 319.648"
	 xml:space="preserve">
<g>
	<path fill="#201F21" d="M541.483,235.934c1.343,2.333,2.015,4.752,2.015,7.265c0,3.228-1.074,6.185-3.228,8.875
		c-2.691,3.229-6.82,4.845-12.375,4.845c-4.305,0-8.252-0.981-11.838-2.962c-12.912-7.351-19.368-22.325-19.368-44.928
		c0-6.456-2.114-11.566-6.324-15.332c-4.215-3.771-10.27-5.654-18.162-5.654h-50.31v52.192c0,4.845-1.299,8.795-3.897,11.838
		c-2.604,3.055-6.055,4.574-10.36,4.574c-5.203,0-9.73-1.565-13.585-4.707c-3.86-3.135-5.783-7.039-5.783-11.705V84.74
		c0-4.666,1.565-8.564,4.706-11.706c3.136-3.135,7.04-4.706,11.706-4.706h77.48c9.323,0,18.115,2.512,26.367,7.53
		c8.247,5.024,14.835,11.931,19.773,20.714c4.932,8.795,7.397,18.658,7.397,29.596c0,8.974-2.42,17.717-7.265,26.229
		c-4.842,8.524-11.123,15.297-18.832,20.316c11.301,7.894,17.486,18.473,18.563,31.744c0.54,2.87,0.806,5.653,0.806,8.339
		c0.716,5.561,1.435,9.551,2.154,11.977c0.716,2.419,2.327,4.262,4.842,5.515C538.296,231.724,540.138,233.607,541.483,235.934z
		 M490.232,155.763c3.046-3.049,5.555-7.132,7.53-12.242c1.972-5.111,2.959-10.625,2.959-16.545c0-5.018-0.987-9.638-2.959-13.854
		c-1.975-4.215-4.484-7.576-7.53-10.088c-3.055-2.512-6.19-3.771-9.418-3.771h-58.92v61.074h58.92
		C484.042,160.337,487.178,158.813,490.232,155.763z"/>
	<path fill="#201F21" d="M693.082,191.815c-3.228,2.686-6.994,4.031-11.298,4.031h-88.781c2.151,10.585,7.083,18.884,14.797,24.889
		c7.709,6.012,16.412,9.009,26.096,9.009c7.351,0,13.091-0.67,17.217-2.016c4.126-1.345,7.4-2.777,9.82-4.302
		c2.419-1.524,4.077-2.558,4.978-3.095c3.228-1.617,6.277-2.419,9.147-2.419c3.765,0,6.993,1.346,9.684,4.031
		c2.691,2.691,4.037,5.833,4.037,9.418c0,4.845-2.515,9.24-7.533,13.184c-5.024,4.129-11.749,7.623-20.18,10.493
		c-8.431,2.864-16.949,4.302-25.556,4.302c-15.066,0-28.207-3.135-39.416-9.413c-11.209-6.277-19.865-14.934-25.96-25.963
		c-6.101-11.03-9.147-23.451-9.147-37.264c0-15.418,3.23-28.96,9.687-40.62c6.456-11.659,14.974-20.581,25.556-26.771
		c10.582-6.185,21.88-9.28,33.9-9.28c11.835,0,23.001,3.228,33.494,9.685c10.493,6.456,18.872,15.158,25.155,26.096
		c6.277,10.943,9.416,22.781,9.416,35.515C698.013,185.625,696.31,189.124,693.082,191.815z M593.271,168.947h70.487v-1.889
		c-0.716-7.53-4.395-13.986-11.03-19.368c-6.635-5.382-14.171-8.067-22.597-8.067C609.322,139.623,597.037,149.399,593.271,168.947z
		"/>
	<path fill="#201F21" d="M927.946,126.301c6.814,10.856,10.221,25.876,10.221,45.066v68.87c0,4.666-1.524,8.57-4.573,11.705
		c-3.049,3.142-6.907,4.707-11.567,4.707c-4.666,0-8.521-1.565-11.567-4.707c-3.055-3.135-4.574-7.039-4.574-11.705v-68.87
		c0-9.863-1.929-17.625-5.786-23.272c-3.857-5.648-10.625-8.472-20.31-8.472c-10.048,0-17.89,3.003-23.543,9.008
		c-5.647,6.012-8.471,13.588-8.471,22.735v68.87c0,4.666-1.528,8.57-4.574,11.705c-3.055,3.142-6.907,4.707-11.57,4.707
		c-4.666,0-8.521-1.565-11.57-4.707c-3.049-3.135-4.574-7.039-4.574-11.705v-68.87c0-9.863-1.929-17.625-5.783-23.272
		c-3.86-5.648-10.625-8.472-20.313-8.472c-10.045,0-17.89,3.003-23.538,9.008c-5.65,6.012-8.477,13.588-8.477,22.735v68.87
		c0,4.666-1.525,8.57-4.574,11.705c-3.049,3.142-6.907,4.707-11.567,4.707c-4.666,0-8.521-1.565-11.567-4.707
		c-3.055-3.135-4.573-7.039-4.573-11.705V129.13c0-4.666,1.519-8.564,4.573-11.706c3.046-3.136,6.901-4.707,11.567-4.707
		c4.66,0,8.518,1.571,11.567,4.707c3.049,3.142,4.574,7.04,4.574,11.706v4.302c4.845-6.457,10.983-11.971,18.43-16.545
		c7.44-4.573,15.739-6.86,24.886-6.86c22.597,0,37.034,9.863,43.313,29.596c4.126-7.536,10.357-14.351,18.699-20.448
		c8.342-6.098,17.798-9.147,28.383-9.147C908.843,110.027,921.126,115.456,927.946,126.301z"/>
	<path fill="#201F21" d="M974.219,92.27c-2.515-1.969-3.768-5.469-3.768-10.493v-5.11c0-5.019,1.346-8.518,4.037-10.493
		c2.688-1.969,6.996-2.957,12.912-2.957c6.277,0,10.669,0.988,13.184,2.957c2.509,1.975,3.768,5.475,3.768,10.493v5.11
		c0,5.203-1.305,8.743-3.904,10.625c-2.602,1.883-7.04,2.83-13.317,2.83C981.034,95.232,976.729,94.245,974.219,92.27z
		 M998.97,251.941c-3.052,3.142-6.907,4.707-11.57,4.707c-4.666,0-8.521-1.565-11.569-4.707c-3.049-3.135-4.574-7.039-4.574-11.705
		V129.13c0-4.666,1.524-8.564,4.574-11.706c3.049-3.136,6.903-4.707,11.569-4.707c4.663,0,8.518,1.571,11.57,4.707
		c3.049,3.142,4.574,7.04,4.574,11.706v111.106C1003.543,244.902,1002.019,248.806,998.97,251.941z"/>
	<path fill="#201F21" d="M1151.51,126.301c6.993,10.856,10.493,25.876,10.493,45.066v68.87c0,4.666-1.524,8.57-4.574,11.705
		c-3.052,3.142-6.907,4.707-11.567,4.707c-4.666,0-8.523-1.565-11.569-4.707c-3.052-3.135-4.574-7.039-4.574-11.705v-68.87
		c0-9.863-2.064-17.625-6.188-23.272c-4.129-5.648-11.211-8.472-21.254-8.472c-10.403,0-18.563,3.003-24.482,9.008
		c-5.919,6.012-8.878,13.588-8.878,22.735v68.87c0,4.666-1.527,8.57-4.574,11.705c-3.052,3.142-6.907,4.707-11.57,4.707
		c-4.666,0-8.518-1.565-11.566-4.707c-3.052-3.135-4.574-7.039-4.574-11.705V129.13c0-4.666,1.521-8.564,4.574-11.706
		c3.049-3.136,6.9-4.707,11.566-4.707c4.663,0,8.518,1.571,11.57,4.707c3.046,3.142,4.574,7.04,4.574,11.706v4.574
		c4.842-6.462,11.165-12.018,18.967-16.684c7.802-4.66,16.366-6.993,25.692-6.993C1131.87,110.027,1144.516,115.456,1151.51,126.301
		z"/>
	<path fill="#201F21" d="M1198.048,92.27c-2.512-1.969-3.765-5.469-3.765-10.493v-5.11c0-5.019,1.345-8.518,4.037-10.493
		c2.691-1.969,6.993-2.957,12.912-2.957c6.277,0,10.672,0.988,13.184,2.957c2.509,1.975,3.765,5.475,3.765,10.493v5.11
		c0,5.203-1.302,8.743-3.898,10.625c-2.604,1.883-7.045,2.83-13.319,2.83C1204.862,95.232,1200.56,94.245,1198.048,92.27z
		 M1222.802,251.941c-3.052,3.142-6.907,4.707-11.57,4.707c-4.666,0-8.521-1.565-11.567-4.707
		c-3.055-3.135-4.574-7.039-4.574-11.705V129.13c0-4.666,1.519-8.564,4.574-11.706c3.046-3.136,6.901-4.707,11.567-4.707
		c4.663,0,8.518,1.571,11.57,4.707c3.046,3.142,4.574,7.04,4.574,11.706v111.106
		C1227.375,244.902,1225.848,248.806,1222.802,251.941z"/>
	<path fill="#201F21" d="M1249.703,226.25c0-4.66,2.328-8.61,6.994-11.838c2.512-1.617,5.113-2.419,7.801-2.419
		c3.768,0,7.354,1.703,10.764,5.11c5.379,5.561,10.983,9.685,16.813,12.375c5.826,2.691,12.869,4.037,21.121,4.037
		c13.986-0.537,20.982-5.827,20.982-15.875c0-5.197-2.379-9.147-7.129-11.838c-4.753-2.691-12.153-5.382-22.195-8.073
		c-10.403-2.864-18.88-5.734-25.423-8.604c-6.548-2.87-12.199-7.218-16.949-13.051c-4.756-5.827-7.132-13.675-7.132-23.538
		c0-8.61,2.466-16.1,7.4-22.464c4.929-6.363,11.388-11.301,19.371-14.8c7.978-3.494,16.452-5.244,25.42-5.244
		c9.147,0,18.294,1.704,27.442,5.111c9.147,3.407,16.319,8.431,21.522,15.066c2.333,2.87,3.499,6.099,3.499,9.685
		c0,4.129-1.706,7.536-5.11,10.221c-2.515,1.981-5.382,2.962-8.61,2.962c-3.947,0-7.175-1.253-9.684-3.765
		c-3.228-3.944-7.397-7.085-12.511-9.418c-5.113-2.327-10.894-3.5-17.353-3.5c-13.632,0-20.446,4.938-20.446,14.801
		c0,3.944,1.253,7.126,3.765,9.551c2.512,2.419,5.694,4.302,9.552,5.647c3.854,1.346,9.28,3.003,16.276,4.978
		c9.687,2.691,17.757,5.475,24.213,8.339c6.456,2.87,11.928,7.265,16.409,13.184c4.481,5.919,6.728,13.721,6.728,23.405
		c0,8.79-2.602,16.458-7.802,23.001c-5.203,6.549-11.885,11.526-20.044,14.934c-8.163,3.407-16.545,5.11-25.155,5.11
		c-11.838,0-22.868-1.975-33.089-5.919c-10.225-3.944-18.566-10.308-25.022-19.103
		C1250.512,232.169,1249.703,229.478,1249.703,226.25z"/>
	<path fill="#201F21" d="M1489.678,117.153c9.323,4.759,13.989,11.082,13.989,18.97c0,3.944-1.169,7.397-3.496,10.354
		c-2.333,2.962-5.382,4.441-9.147,4.441c-2.87,0-5.203-0.404-6.993-1.207c-1.796-0.809-3.546-1.888-5.249-3.234
		c-1.704-1.34-3.361-2.46-4.978-3.361c-1.793-0.895-4.438-1.704-7.935-2.419c-3.5-0.716-6.323-1.074-8.475-1.074
		c-13.452,0-23.991,4.169-31.614,12.508c-7.623,8.339-11.431,19.236-11.431,32.685c0,12.913,3.855,23.636,11.57,32.154
		c7.709,8.518,17.573,12.774,29.59,12.774c8.789,0,15.338-1.074,19.64-3.228c1.077-0.537,2.559-1.479,4.441-2.824
		c1.883-1.345,3.632-2.373,5.247-3.095c1.614-0.71,3.583-1.074,5.916-1.074c4.481,0,8.027,1.438,10.628,4.308
		c2.599,2.87,3.901,6.549,3.901,11.03c0,4.302-2.512,8.339-7.53,12.104c-5.024,3.765-11.665,6.774-19.911,9.014
		c-8.252,2.241-17.042,3.361-26.365,3.361c-13.813,0-25.96-3.228-36.453-9.684s-18.612-15.378-24.346-26.771
		c-5.746-11.388-8.61-24.075-8.61-38.067c0-14.523,3-27.441,9.012-38.737c6.009-11.301,14.394-20.131,25.155-26.5
		c10.761-6.364,22.958-9.552,36.589-9.552C1468.063,110.027,1480.352,112.407,1489.678,117.153z"/>
	<path fill="#201F21" d="M1652.71,191.815c-3.228,2.686-6.993,4.031-11.298,4.031h-88.781c2.151,10.585,7.083,18.884,14.797,24.889
		c7.71,6.012,16.412,9.009,26.097,9.009c7.351,0,13.091-0.67,17.217-2.016c4.126-1.345,7.4-2.777,9.82-4.302
		c2.42-1.524,4.077-2.558,4.978-3.095c3.229-1.617,6.277-2.419,9.147-2.419c3.765,0,6.993,1.346,9.684,4.031
		c2.691,2.691,4.037,5.833,4.037,9.418c0,4.845-2.515,9.24-7.533,13.184c-5.024,4.129-11.749,7.623-20.18,10.493
		c-8.432,2.864-16.949,4.302-25.557,4.302c-15.066,0-28.206-3.135-39.415-9.413s-19.865-14.934-25.96-25.963
		c-6.101-11.03-9.147-23.451-9.147-37.264c0-15.418,3.231-28.96,9.687-40.62s14.974-20.581,25.556-26.771
		c10.582-6.185,21.881-9.28,33.9-9.28c11.836,0,23.001,3.228,33.494,9.685c10.492,6.456,18.871,15.158,25.154,26.096
		c6.277,10.943,9.416,22.781,9.416,35.515C1657.642,185.625,1655.939,189.124,1652.71,191.815z M1552.9,168.947h70.487v-1.889
		c-0.717-7.53-4.395-13.986-11.03-19.368c-6.635-5.382-14.171-8.067-22.597-8.067C1568.952,139.623,1556.666,149.399,1552.9,168.947
		z"/>
	<path fill="#201F21" d="M1799.6,126.301c6.996,10.856,10.492,25.876,10.492,45.066v68.87c0,4.666-1.527,8.57-4.573,11.705
		c-3.052,3.142-6.906,4.707-11.569,4.707c-4.666,0-8.518-1.565-11.567-4.707c-3.052-3.135-4.573-7.039-4.573-11.705v-68.87
		c0-9.863-2.064-17.625-6.19-23.272c-4.126-5.648-11.209-8.472-21.251-8.472c-10.406,0-18.566,3.003-24.482,9.008
		c-5.919,6.012-8.879,13.588-8.879,22.735v68.87c0,4.666-1.524,8.57-4.573,11.705c-3.052,3.142-6.906,4.707-11.566,4.707
		c-4.666,0-8.523-1.565-11.57-4.707c-3.052-3.135-4.573-7.039-4.573-11.705V129.13c0-4.666,1.521-8.564,4.573-11.706
		c3.047-3.136,6.904-4.707,11.57-4.707c4.66,0,8.515,1.571,11.566,4.707c3.049,3.142,4.573,7.04,4.573,11.706v4.574
		c4.843-6.462,11.166-12.018,18.968-16.684c7.802-4.66,16.362-6.993,25.691-6.993C1779.96,110.027,1792.604,115.456,1799.6,126.301z
		"/>
	<path fill="#201F21" d="M1944.607,117.153c9.326,4.759,13.992,11.082,13.992,18.97c0,3.944-1.17,7.397-3.5,10.354
		c-2.333,2.962-5.379,4.441-9.147,4.441c-2.869,0-5.203-0.404-6.992-1.207c-1.797-0.809-3.546-1.888-5.247-3.234
		c-1.706-1.34-3.363-2.46-4.978-3.361c-1.793-0.895-4.438-1.704-7.938-2.419c-3.496-0.716-6.32-1.074-8.472-1.074
		c-13.455,0-23.994,4.169-31.614,12.508c-7.625,8.339-11.431,19.236-11.431,32.685c0,12.913,3.852,23.636,11.567,32.154
		c7.709,8.518,17.575,12.774,29.592,12.774c8.787,0,15.335-1.074,19.641-3.228c1.076-0.537,2.555-1.479,4.438-2.824
		c1.883-1.345,3.633-2.373,5.249-3.095c1.611-0.71,3.583-1.074,5.917-1.074c4.48,0,8.023,1.438,10.628,4.308
		c2.599,2.87,3.897,6.549,3.897,11.03c0,4.302-2.512,8.339-7.529,12.104c-5.024,3.765-11.662,6.774-19.909,9.014
		c-8.252,2.241-17.044,3.361-26.364,3.361c-13.813,0-25.963-3.228-36.456-9.684s-18.608-15.378-24.347-26.771
		c-5.742-11.388-8.609-24.075-8.609-38.067c0-14.523,3.003-27.441,9.014-38.737c6.006-11.301,14.391-20.131,25.155-26.5
		c10.759-6.364,22.954-9.552,36.589-9.552C1922.992,110.027,1935.281,112.407,1944.607,117.153z"/>
	<path fill="#201F21" d="M2107.642,191.815c-3.229,2.686-6.996,4.031-11.298,4.031h-88.781c2.15,10.585,7.08,18.884,14.795,24.889
		c7.709,6.012,16.412,9.009,26.096,9.009c7.352,0,13.092-0.67,17.221-2.016c4.123-1.345,7.397-2.777,9.816-4.302
		c2.423-1.524,4.077-2.558,4.979-3.095c3.228-1.617,6.277-2.419,9.146-2.419c3.766,0,6.996,1.346,9.685,4.031
		c2.691,2.691,4.036,5.833,4.036,9.418c0,4.845-2.512,9.24-7.529,13.184c-5.024,4.129-11.752,7.623-20.18,10.493
		c-8.435,2.864-16.949,4.302-25.557,4.302c-15.066,0-28.21-3.135-39.416-9.413c-11.211-6.277-19.867-14.934-25.96-25.963
		c-6.101-11.03-9.147-23.451-9.147-37.264c0-15.418,3.229-28.96,9.685-40.62s14.974-20.581,25.56-26.771
		c10.579-6.185,21.88-9.28,33.897-9.28c11.838,0,23.001,3.228,33.493,9.685c10.492,6.456,18.875,15.158,25.154,26.096
		c6.277,10.943,9.419,22.781,9.419,35.515C2112.571,185.625,2110.87,189.124,2107.642,191.815z M2007.832,168.947h70.486v-1.889
		c-0.719-7.53-4.397-13.986-11.032-19.368c-6.636-5.382-14.169-8.067-22.597-8.067
		C2023.882,139.623,2011.596,149.399,2007.832,168.947z"/>
</g>
<path fill="#009245" d="M301.523,14.747H169.57h-37.573H37.614c-9.393,0-17.076,7.686-17.076,17.076V44.92v22.369v7.144v17.079
	h17.076H169.57h131.953h17.079V74.432v-7.144V31.823C318.602,22.433,310.916,14.747,301.523,14.747z"/>
<path fill="#009245" d="M301.523,120.067H37.614H20.539v17.079v7.144v150.068c0,9.393,6.655,13.236,14.789,8.541l119.45-68.971
	c8.137-4.698,21.447-4.698,29.581,0l119.454,68.971c8.134,4.695,14.789,0.852,14.789-8.541V144.289v-7.144v-17.079H301.523z
	 M202.754,187.144h-66.369v-23.815h66.369V187.144z"/>
</svg>
