<?xml version="1.0" encoding="utf-8"?>
<!-- Generator: Adobe Illustrator 16.0.0, SVG Export Plug-In . SVG Version: 6.00 Build 0)  -->
<!DOCTYPE svg PUBLIC "-//W3C//DTD SVG 1.1//EN" "http://www.w3.org/Graphics/SVG/1.1/DTD/svg11.dtd">
<svg version="1.1" id="Layer_1" xmlns="http://www.w3.org/2000/svg" xmlns:xlink="http://www.w3.org/1999/xlink" x="0px" y="0px"
	 width="2133.293px" height="319.648px" viewBox="0 0 2133.293 319.648" enable-background="new 0 0 2133.293 319.648"
	 xml:space="preserve">
<g>
	<path fill="#201F21" d="M552.343,234.36c1.314,2.285,1.974,4.654,1.974,7.114c0,3.161-1.052,6.057-3.162,8.692
		c-2.632,3.161-6.676,4.745-12.119,4.745c-4.216,0-8.082-0.961-11.593-2.901c-12.646-7.199-18.968-21.864-18.968-43.999
		c0-6.323-2.067-11.328-6.192-15.015c-4.128-3.693-10.058-5.537-17.783-5.537H435.23v51.113c0,4.745-1.275,8.613-3.82,11.594
		c-2.548,2.992-5.93,4.479-10.143,4.479c-5.098,0-9.532-1.533-13.307-4.609c-3.778-3.071-5.664-6.894-5.664-11.463V86.292
		c0-4.569,1.536-8.387,4.612-11.463c3.071-3.071,6.891-4.609,11.461-4.609h75.877c9.13,0,17.741,2.46,25.822,7.375
		c8.076,4.92,14.531,11.684,19.364,20.286c4.83,8.613,7.244,18.272,7.244,28.983c0,8.789-2.369,17.351-7.111,25.687
		c-4.745,8.347-10.895,14.981-18.445,19.896c11.067,7.731,17.127,18.091,18.179,31.087c0.528,2.811,0.792,5.536,0.792,8.166
		c0.698,5.446,1.402,9.354,2.106,11.729c0.702,2.369,2.282,4.173,4.742,5.4C549.221,230.237,551.025,232.081,552.343,234.36z
		 M502.152,155.847c2.983-2.986,5.44-6.984,7.377-11.989c1.929-5.005,2.896-10.406,2.896-16.203c0-4.914-0.967-9.438-2.896-13.567
		c-1.937-4.128-4.394-7.42-7.377-9.88c-2.989-2.46-6.06-3.693-9.224-3.693H435.23v59.811h57.698
		C496.092,160.326,499.163,158.833,502.152,155.847z"/>
	<path fill="#201F21" d="M700.81,191.153c-3.161,2.63-6.852,3.948-11.067,3.948h-86.945c2.109,10.366,6.936,18.493,14.492,24.375
		c7.55,5.887,16.072,8.822,25.556,8.822c7.199,0,12.821-0.656,16.861-1.974c4.041-1.318,7.248-2.72,9.617-4.213
		c2.372-1.493,3.992-2.505,4.875-3.031c3.162-1.583,6.147-2.37,8.958-2.37c3.688,0,6.852,1.318,9.484,3.947
		c2.635,2.636,3.953,5.712,3.953,9.224c0,4.745-2.463,9.048-7.377,12.911c-4.92,4.043-11.506,7.465-19.76,10.275
		c-8.26,2.805-16.599,4.213-25.031,4.213c-14.754,0-27.624-3.071-38.597-9.218c-10.98-6.147-19.458-14.625-25.427-25.426
		c-5.972-10.802-8.958-22.966-8.958-36.494c0-15.1,3.164-28.362,9.487-39.78s14.665-20.155,25.028-26.218
		c10.363-6.057,21.428-9.088,33.2-9.088c11.59,0,22.525,3.161,32.801,9.484s18.484,14.845,24.634,25.557
		c6.147,10.717,9.221,22.31,9.221,34.78C705.636,185.091,703.971,188.518,700.81,191.153z M603.063,168.758h69.029v-1.849
		c-0.704-7.375-4.307-13.697-10.805-18.968c-6.498-5.271-13.875-7.901-22.129-7.901C618.779,140.041,606.75,149.615,603.063,168.758
		z"/>
	<path fill="#201F21" d="M930.814,126.994c6.673,10.632,10.013,25.342,10.013,44.134v67.445c0,4.57-1.496,8.393-4.479,11.463
		c-2.989,3.077-6.764,4.609-11.33,4.609c-4.57,0-8.345-1.533-11.328-4.609c-2.989-3.071-4.479-6.894-4.479-11.463v-67.445
		c0-9.659-1.889-17.26-5.664-22.791c-3.781-5.531-10.409-8.296-19.893-8.296c-9.84,0-17.521,2.941-23.054,8.822
		c-5.534,5.887-8.299,13.307-8.299,22.265v67.445c0,4.57-1.496,8.393-4.479,11.463c-2.989,3.077-6.764,4.609-11.331,4.609
		c-4.57,0-8.344-1.533-11.328-4.609c-2.989-3.071-4.479-6.894-4.479-11.463v-67.445c0-9.659-1.889-17.26-5.667-22.791
		c-3.778-5.531-10.406-8.296-19.89-8.296c-9.84,0-17.52,2.941-23.054,8.822c-5.534,5.887-8.299,13.307-8.299,22.265v67.445
		c0,4.57-1.496,8.393-4.479,11.463c-2.989,3.077-6.764,4.609-11.331,4.609c-4.569,0-8.344-1.533-11.327-4.609
		c-2.989-3.071-4.479-6.894-4.479-11.463V129.765c0-4.57,1.49-8.387,4.479-11.463c2.983-3.071,6.758-4.609,11.327-4.609
		c4.567,0,8.342,1.539,11.331,4.609c2.983,3.076,4.479,6.894,4.479,11.463v4.213c4.742-6.323,10.756-11.723,18.046-16.202
		c7.287-4.479,15.414-6.719,24.372-6.719c22.132,0,36.268,9.659,42.417,28.983c4.041-7.38,10.146-14.053,18.312-20.025
		c8.169-5.972,17.43-8.958,27.796-8.958C912.109,111.057,924.138,116.373,930.814,126.994z"/>
	<path fill="#201F21" d="M976.13,93.667c-2.463-1.929-3.69-5.355-3.69-10.276v-5.005c0-4.915,1.318-8.341,3.953-10.276
		c2.635-1.928,6.852-2.896,12.646-2.896c6.147,0,10.451,0.967,12.911,2.896c2.457,1.935,3.69,5.361,3.69,10.276v5.005
		c0,5.096-1.278,8.563-3.82,10.406c-2.55,1.844-6.896,2.771-13.044,2.771C982.804,96.568,978.588,95.601,976.13,93.667z
		 M1000.37,250.037c-2.989,3.077-6.764,4.609-11.331,4.609c-4.57,0-8.345-1.533-11.328-4.609c-2.989-3.071-4.479-6.894-4.479-11.463
		V129.765c0-4.57,1.49-8.387,4.479-11.463c2.983-3.071,6.758-4.609,11.328-4.609c4.566,0,8.341,1.539,11.331,4.609
		c2.986,3.076,4.479,6.894,4.479,11.463v108.808C1004.848,243.143,1003.355,246.966,1000.37,250.037z"/>
	<path fill="#201F21" d="M1149.755,126.994c6.851,10.632,10.276,25.342,10.276,44.134v67.445c0,4.57-1.493,8.393-4.479,11.463
		c-2.988,3.077-6.764,4.609-11.327,4.609c-4.57,0-8.345-1.533-11.331-4.609c-2.989-3.071-4.479-6.894-4.479-11.463v-67.445
		c0-9.659-2.022-17.26-6.06-22.791c-4.044-5.531-10.98-8.296-20.814-8.296c-10.188,0-18.179,2.941-23.976,8.822
		c-5.796,5.887-8.695,13.307-8.695,22.265v67.445c0,4.57-1.493,8.393-4.479,11.463c-2.989,3.077-6.764,4.609-11.328,4.609
		c-4.569,0-8.345-1.533-11.331-4.609c-2.989-3.071-4.479-6.894-4.479-11.463V129.765c0-4.57,1.49-8.387,4.479-11.463
		c2.986-3.071,6.761-4.609,11.331-4.609c4.563,0,8.339,1.539,11.328,4.609c2.986,3.076,4.479,6.894,4.479,11.463v4.479
		c4.742-6.329,10.935-11.769,18.575-16.338c7.64-4.564,16.027-6.849,25.161-6.849
		C1130.521,111.057,1142.906,116.373,1149.755,126.994z"/>
	<path fill="#201F21" d="M1195.334,93.667c-2.463-1.929-3.69-5.355-3.69-10.276v-5.005c0-4.915,1.317-8.341,3.953-10.276
		c2.635-1.928,6.851-2.896,12.645-2.896c6.147,0,10.451,0.967,12.911,2.896c2.458,1.935,3.69,5.361,3.69,10.276v5.005
		c0,5.096-1.278,8.563-3.82,10.406c-2.55,1.844-6.896,2.771-13.044,2.771C1202.007,96.568,1197.791,95.601,1195.334,93.667z
		 M1219.573,250.037c-2.989,3.077-6.764,4.609-11.331,4.609c-4.569,0-8.344-1.533-11.328-4.609
		c-2.989-3.071-4.479-6.894-4.479-11.463V129.765c0-4.57,1.49-8.387,4.479-11.463c2.983-3.071,6.758-4.609,11.328-4.609
		c4.567,0,8.342,1.539,11.331,4.609c2.986,3.076,4.479,6.894,4.479,11.463v108.808
		C1224.052,243.143,1222.559,246.966,1219.573,250.037z"/>
	<path fill="#201F21" d="M1245.918,224.876c0-4.563,2.282-8.432,6.852-11.593c2.457-1.583,5.005-2.37,7.64-2.37
		c3.688,0,7.199,1.668,10.539,5.005c5.268,5.446,10.756,9.484,16.465,12.12c5.706,2.635,12.603,3.953,20.684,3.953
		c13.7-0.526,20.549-5.707,20.549-15.546c0-5.09-2.33-8.958-6.981-11.594c-4.654-2.635-11.902-5.271-21.736-7.906
		c-10.188-2.805-18.487-5.615-24.897-8.426c-6.413-2.811-11.947-7.069-16.599-12.781c-4.657-5.707-6.981-13.392-6.981-23.051
		c0-8.432,2.412-15.767,7.245-22c4.83-6.232,11.152-11.067,18.971-14.494c7.813-3.422,16.112-5.135,24.897-5.135
		c8.958,0,17.916,1.668,26.875,5.005c8.958,3.337,15.981,8.257,21.077,14.755c2.282,2.811,3.424,5.972,3.424,9.484
		c0,4.043-1.671,7.38-5.005,10.01c-2.463,1.94-5.271,2.901-8.432,2.901c-3.865,0-7.027-1.227-9.484-3.688
		c-3.161-3.862-7.244-6.939-12.252-9.224c-5.005-2.279-10.669-3.427-16.994-3.427c-13.35,0-20.023,4.835-20.023,14.495
		c0,3.863,1.227,6.979,3.69,9.354c2.458,2.37,5.574,4.213,9.352,5.531c3.775,1.318,9.091,2.941,15.939,4.875
		c9.487,2.636,17.39,5.361,23.713,8.167c6.322,2.811,11.681,7.114,16.072,12.911c4.389,5.796,6.585,13.437,6.585,22.921
		c0,8.607-2.547,16.118-7.64,22.525c-5.096,6.414-11.639,11.288-19.627,14.625c-7.997,3.336-16.205,5.005-24.635,5.005
		c-11.593,0-22.395-1.934-32.408-5.797c-10.013-3.862-18.179-10.095-24.501-18.708
		C1246.709,230.673,1245.918,228.038,1245.918,224.876z"/>
	<path fill="#201F21" d="M1480.931,118.036c9.13,4.66,13.7,10.853,13.7,18.578c0,3.862-1.143,7.244-3.424,10.14
		c-2.285,2.901-5.268,4.349-8.958,4.349c-2.811,0-5.096-0.396-6.849-1.182c-1.759-0.792-3.473-1.849-5.138-3.167
		c-1.671-1.312-3.294-2.409-4.875-3.292c-1.759-0.876-4.349-1.668-7.773-2.369c-3.424-0.702-6.189-1.052-8.299-1.052
		c-13.174,0-23.495,4.083-30.957,12.25c-7.468,8.167-11.198,18.838-11.198,32.009c0,12.645,3.775,23.147,11.331,31.489
		c7.55,8.342,17.212,12.51,28.981,12.51c8.604,0,15.018-1.052,19.233-3.162c1.052-0.526,2.503-1.448,4.346-2.765
		c1.844-1.318,3.557-2.325,5.138-3.031c1.581-0.696,3.512-1.052,5.796-1.052c4.389,0,7.858,1.408,10.406,4.219
		c2.545,2.811,3.82,6.413,3.82,10.802c0,4.213-2.46,8.166-7.375,11.854c-4.92,3.687-11.421,6.633-19.497,8.828
		c-8.082,2.194-16.692,3.292-25.822,3.292c-13.528,0-25.424-3.161-35.699-9.484c-10.276-6.323-18.225-15.06-23.843-26.218
		c-5.625-11.152-8.433-23.577-8.433-37.28c0-14.223,2.938-26.874,8.825-37.936c5.885-11.067,14.096-19.714,24.635-25.952
		c10.539-6.232,22.483-9.354,35.832-9.354C1459.763,111.057,1471.797,113.387,1480.931,118.036z"/>
	<path fill="#201F21" d="M1640.592,191.153c-3.162,2.63-6.849,3.948-11.065,3.948h-86.944c2.106,10.366,6.936,18.493,14.492,24.375
		c7.549,5.887,16.073,8.822,25.556,8.822c7.199,0,12.82-0.656,16.861-1.974c4.041-1.318,7.247-2.72,9.617-4.213
		c2.369-1.493,3.992-2.505,4.875-3.031c3.161-1.583,6.147-2.37,8.958-2.37c3.688,0,6.849,1.318,9.483,3.947
		c2.636,2.636,3.953,5.712,3.953,9.224c0,4.745-2.463,9.048-7.377,12.911c-4.92,4.043-11.506,7.465-19.763,10.275
		c-8.257,2.805-16.599,4.213-25.027,4.213c-14.755,0-27.624-3.071-38.601-9.218c-10.977-6.147-19.455-14.625-25.424-25.426
		c-5.972-10.802-8.958-22.966-8.958-36.494c0-15.1,3.164-28.362,9.487-39.78s14.665-20.155,25.028-26.218
		c10.363-6.057,21.428-9.088,33.199-9.088c11.591,0,22.525,3.161,32.802,9.484c10.275,6.323,18.481,14.845,24.634,25.557
		c6.147,10.717,9.222,22.31,9.222,34.78C1645.421,185.091,1643.753,188.518,1640.592,191.153z M1542.845,168.758h69.029v-1.849
		c-0.702-7.375-4.304-13.697-10.802-18.968c-6.498-5.271-13.879-7.901-22.13-7.901
		C1558.564,140.041,1546.533,149.615,1542.845,168.758z"/>
	<path fill="#201F21" d="M1784.444,126.994c6.852,10.632,10.275,25.342,10.275,44.134v67.445c0,4.57-1.496,8.393-4.479,11.463
		c-2.989,3.077-6.764,4.609-11.331,4.609c-4.569,0-8.341-1.533-11.327-4.609c-2.989-3.071-4.479-6.894-4.479-11.463v-67.445
		c0-9.659-2.021-17.26-6.063-22.791c-4.04-5.531-10.977-8.296-20.812-8.296c-10.19,0-18.182,2.941-23.976,8.822
		c-5.797,5.887-8.695,13.307-8.695,22.265v67.445c0,4.57-1.493,8.393-4.479,11.463c-2.989,3.077-6.764,4.609-11.328,4.609
		c-4.569,0-8.347-1.533-11.33-4.609c-2.989-3.071-4.479-6.894-4.479-11.463V129.765c0-4.57,1.49-8.387,4.479-11.463
		c2.983-3.071,6.761-4.609,11.33-4.609c4.564,0,8.339,1.539,11.328,4.609c2.985,3.076,4.479,6.894,4.479,11.463v4.479
		c4.742-6.329,10.935-11.769,18.575-16.338c7.641-4.564,16.024-6.849,25.16-6.849
		C1765.209,111.057,1777.592,116.373,1784.444,126.994z"/>
	<path fill="#201F21" d="M1926.452,118.036c9.133,4.66,13.703,10.853,13.703,18.578c0,3.862-1.146,7.244-3.428,10.14
		c-2.284,2.901-5.268,4.349-8.958,4.349c-2.811,0-5.095-0.396-6.849-1.182c-1.759-0.792-3.472-1.849-5.138-3.167
		c-1.671-1.312-3.294-2.409-4.875-3.292c-1.756-0.876-4.346-1.668-7.772-2.369c-3.425-0.702-6.19-1.052-8.297-1.052
		c-13.177,0-23.498,4.083-30.96,12.25c-7.468,8.167-11.194,18.838-11.194,32.009c0,12.645,3.771,23.147,11.327,31.489
		c7.55,8.342,17.212,12.51,28.98,12.51c8.604,0,15.019-1.052,19.234-3.162c1.055-0.526,2.502-1.448,4.346-2.765
		c1.844-1.318,3.558-2.325,5.141-3.031c1.578-0.696,3.509-1.052,5.794-1.052c4.389,0,7.858,1.408,10.408,4.219
		c2.545,2.811,3.818,6.413,3.818,10.802c0,4.213-2.461,8.166-7.375,11.854c-4.92,3.687-11.421,6.633-19.497,8.828
		c-8.081,2.194-16.691,3.292-25.819,3.292c-13.527,0-25.426-3.161-35.702-9.484c-10.275-6.323-18.224-15.06-23.843-26.218
		c-5.624-11.152-8.432-23.577-8.432-37.28c0-14.223,2.94-26.874,8.828-37.936c5.881-11.067,14.093-19.714,24.635-25.952
		c10.535-6.232,22.479-9.354,35.832-9.354C1905.284,111.057,1917.319,113.387,1926.452,118.036z"/>
	<path fill="#201F21" d="M2086.116,191.153c-3.161,2.63-6.852,3.948-11.064,3.948h-86.945c2.106,10.366,6.934,18.493,14.489,24.375
		c7.55,5.887,16.072,8.822,25.556,8.822c7.199,0,12.821-0.656,16.865-1.974c4.037-1.318,7.244-2.72,9.613-4.213
		c2.373-1.493,3.993-2.505,4.875-3.031c3.161-1.583,6.147-2.37,8.958-2.37c3.688,0,6.852,1.318,9.484,3.947
		c2.636,2.636,3.953,5.712,3.953,9.224c0,4.745-2.46,9.048-7.375,12.911c-4.92,4.043-11.509,7.465-19.763,10.275
		c-8.26,2.805-16.598,4.213-25.027,4.213c-14.755,0-27.626-3.071-38.601-9.218c-10.979-6.147-19.457-14.625-25.423-25.426
		c-5.976-10.802-8.959-22.966-8.959-36.494c0-15.1,3.162-28.362,9.484-39.78s14.664-20.155,25.03-26.218
		c10.36-6.057,21.429-9.088,33.197-9.088c11.593,0,22.524,3.161,32.801,9.484c10.275,6.323,18.484,14.845,24.635,25.557
		c6.147,10.717,9.224,22.31,9.224,34.78C2090.943,185.091,2089.277,188.518,2086.116,191.153z M1988.37,168.758h69.028v-1.849
		c-0.704-7.375-4.307-13.697-10.805-18.968c-6.498-5.271-13.875-7.901-22.129-7.901
		C2004.088,140.041,1992.056,149.615,1988.37,168.758z"/>
</g>
<path fill="#662D91" d="M317.344,17.747H188.12h-36.796H58.893c-9.198,0-16.723,7.527-16.723,16.723v12.826v21.906v6.996v16.726
	h16.723H188.12h129.224h16.726V76.198v-6.996V34.47C334.07,25.274,326.543,17.747,317.344,17.747z"/>
<path fill="#662D91" d="M317.344,120.889H58.893H42.17v16.726v6.996v146.965c0,9.198,6.518,12.962,14.483,8.364l116.98-67.544
	c7.968-4.601,21.004-4.601,28.969,0l116.983,67.544c7.965,4.598,14.483,0.834,14.483-8.364V144.61v-6.996v-16.726H317.344z
	 M220.619,186.578h-64.997v-23.322h64.997V186.578z"/>
</svg>
