<?xml version="1.0" encoding="utf-8"?>
<!-- Generator: Adobe Illustrator 16.0.0, SVG Export Plug-In . SVG Version: 6.00 Build 0)  -->
<!DOCTYPE svg PUBLIC "-//W3C//DTD SVG 1.1//EN" "http://www.w3.org/Graphics/SVG/1.1/DTD/svg11.dtd">
<svg version="1.1" id="Layer_1" xmlns="http://www.w3.org/2000/svg" xmlns:xlink="http://www.w3.org/1999/xlink" x="0px" y="0px"
	 width="2133.293px" height="319.648px" viewBox="0 0 2133.293 319.648" enable-background="new 0 0 2133.293 319.648"
	 xml:space="preserve">
<g>
	<path fill="#201F21" d="M542.685,235.76c1.339,2.328,2.011,4.742,2.011,7.248c0,3.221-1.072,6.171-3.221,8.855
		c-2.682,3.221-6.802,4.834-12.347,4.834c-4.295,0-8.233-0.979-11.811-2.956c-12.883-7.334-19.324-22.274-19.324-44.825
		c0-6.441-2.106-11.541-6.309-15.297c-4.206-3.762-10.247-5.641-18.117-5.641h-50.195v52.073c0,4.834-1.299,8.775-3.892,11.811
		c-2.596,3.048-6.041,4.563-10.333,4.563c-5.194,0-9.711-1.562-13.557-4.696c-3.849-3.128-5.771-7.023-5.771-11.679V84.912
		c0-4.655,1.564-8.544,4.699-11.679c3.128-3.128,7.021-4.696,11.676-4.696h77.302c9.302,0,18.074,2.506,26.307,7.513
		c8.228,5.013,14.804,11.903,19.728,20.667c4.92,8.775,7.38,18.616,7.38,29.528c0,8.954-2.414,17.677-7.245,26.169
		c-4.834,8.504-11.1,15.262-18.791,20.269c11.275,7.876,17.449,18.431,18.521,31.671c0.539,2.863,0.807,5.64,0.807,8.319
		c0.711,5.548,1.429,9.53,2.146,11.95c0.714,2.414,2.325,4.252,4.831,5.502C539.504,231.56,541.342,233.438,542.685,235.76z
		 M491.551,155.772c3.039-3.042,5.542-7.115,7.516-12.214c1.964-5.099,2.95-10.601,2.95-16.507c0-5.006-0.985-9.616-2.95-13.822
		c-1.974-4.206-4.477-7.559-7.516-10.065c-3.045-2.506-6.173-3.762-9.397-3.762h-58.782v60.934h58.782
		C485.378,160.336,488.506,158.815,491.551,155.772z"/>
	<path fill="#201F21" d="M693.939,191.742c-3.221,2.679-6.98,4.022-11.275,4.022h-88.578c2.149,10.561,7.066,18.84,14.764,24.832
		c7.692,5.998,16.375,8.988,26.037,8.988c7.334,0,13.061-0.668,17.178-2.011s7.383-2.771,9.797-4.292
		c2.417-1.521,4.068-2.552,4.967-3.088c3.221-1.613,6.263-2.414,9.126-2.414c3.757,0,6.98,1.342,9.662,4.021
		c2.685,2.685,4.027,5.819,4.027,9.397c0,4.834-2.509,9.218-7.516,13.154c-5.013,4.119-11.722,7.605-20.131,10.469
		c-8.415,2.857-16.91,4.292-25.5,4.292c-15.032,0-28.142-3.128-39.323-9.391c-11.186-6.263-19.822-14.899-25.904-25.904
		c-6.084-11.004-9.126-23.397-9.126-37.179c0-15.383,3.224-28.894,9.665-40.527c6.441-11.632,14.939-20.534,25.498-26.71
		c10.558-6.171,21.83-9.259,33.823-9.259c11.809,0,22.948,3.221,33.417,9.662c10.469,6.441,18.832,15.124,25.097,26.036
		c6.263,10.918,9.395,22.729,9.395,35.434C698.857,185.565,697.16,189.057,693.939,191.742z M594.357,168.926h70.325v-1.884
		c-0.717-7.513-4.387-13.954-11.007-19.324c-6.62-5.37-14.136-8.049-22.545-8.049C610.369,139.669,598.114,149.423,594.357,168.926z
		"/>
	<path fill="#201F21" d="M928.264,126.377c6.798,10.832,10.201,25.817,10.201,44.963v68.712c0,4.655-1.524,8.55-4.563,11.679
		c-3.045,3.134-6.891,4.696-11.543,4.696c-4.655,0-8.501-1.562-11.54-4.696c-3.045-3.128-4.563-7.023-4.563-11.679V171.34
		c0-9.841-1.924-17.584-5.77-23.219c-3.852-5.635-10.604-8.452-20.266-8.452c-10.025,0-17.849,2.996-23.487,8.988
		c-5.638,5.998-8.455,13.557-8.455,22.683v68.712c0,4.655-1.524,8.55-4.563,11.679c-3.045,3.134-6.891,4.696-11.543,4.696
		c-4.655,0-8.501-1.562-11.541-4.696c-3.045-3.128-4.563-7.023-4.563-11.679V171.34c0-9.841-1.924-17.584-5.773-23.219
		s-10.601-8.452-20.263-8.452c-10.025,0-17.849,2.996-23.487,8.988c-5.638,5.998-8.455,13.557-8.455,22.683v68.712
		c0,4.655-1.524,8.55-4.563,11.679c-3.045,3.134-6.891,4.696-11.543,4.696c-4.655,0-8.501-1.562-11.541-4.696
		c-3.045-3.128-4.563-7.023-4.563-11.679V129.201c0-4.656,1.518-8.544,4.563-11.679c3.04-3.128,6.885-4.696,11.541-4.696
		c4.652,0,8.498,1.567,11.543,4.696c3.04,3.134,4.563,7.023,4.563,11.679v4.292c4.831-6.441,10.958-11.943,18.385-16.506
		c7.424-4.563,15.703-6.845,24.83-6.845c22.547,0,36.949,9.84,43.214,29.527c4.116-7.519,10.336-14.317,18.656-20.401
		c8.323-6.084,17.757-9.126,28.318-9.126C909.208,110.142,921.462,115.557,928.264,126.377z"/>
	<path fill="#201F21" d="M974.431,92.425c-2.509-1.965-3.759-5.456-3.759-10.469v-5.099c0-5.007,1.342-8.498,4.027-10.469
		c2.685-1.964,6.98-2.95,12.883-2.95c6.263,0,10.647,0.985,13.153,2.95c2.503,1.971,3.76,5.462,3.76,10.469v5.099
		c0,5.191-1.302,8.723-3.892,10.601c-2.599,1.878-7.026,2.823-13.289,2.823C981.229,95.38,976.934,94.395,974.431,92.425z
		 M999.125,251.731c-3.045,3.134-6.891,4.696-11.543,4.696c-4.655,0-8.501-1.562-11.541-4.696
		c-3.045-3.128-4.563-7.023-4.563-11.679V129.201c0-4.656,1.518-8.544,4.563-11.679c3.04-3.128,6.885-4.696,11.541-4.696
		c4.652,0,8.498,1.567,11.543,4.696c3.042,3.134,4.563,7.023,4.563,11.679v110.852
		C1003.688,244.708,1002.167,248.603,999.125,251.731z"/>
	<path fill="#201F21" d="M1151.315,126.377c6.98,10.832,10.469,25.817,10.469,44.963v68.712c0,4.655-1.521,8.55-4.563,11.679
		c-3.045,3.134-6.891,4.696-11.541,4.696c-4.655,0-8.501-1.562-11.543-4.696c-3.045-3.128-4.563-7.023-4.563-11.679V171.34
		c0-9.841-2.06-17.584-6.173-23.219c-4.12-5.635-11.186-8.452-21.205-8.452c-10.38,0-18.521,2.996-24.426,8.988
		c-5.906,5.998-8.858,13.557-8.858,22.683v68.712c0,4.655-1.521,8.55-4.563,11.679c-3.045,3.134-6.891,4.696-11.541,4.696
		c-4.655,0-8.501-1.562-11.543-4.696c-3.045-3.128-4.563-7.023-4.563-11.679V129.201c0-4.656,1.518-8.544,4.563-11.679
		c3.042-3.128,6.888-4.696,11.543-4.696c4.65,0,8.496,1.567,11.541,4.696c3.042,3.134,4.563,7.023,4.563,11.679v4.563
		c4.831-6.447,11.14-11.99,18.924-16.645c7.784-4.65,16.328-6.977,25.633-6.977C1131.721,110.142,1144.338,115.557,1151.315,126.377
		z"/>
	<path fill="#201F21" d="M1197.75,92.425c-2.509-1.965-3.759-5.456-3.759-10.469v-5.099c0-5.007,1.342-8.498,4.027-10.469
		c2.685-1.964,6.98-2.95,12.883-2.95c6.263,0,10.647,0.985,13.153,2.95c2.503,1.971,3.759,5.462,3.759,10.469v5.099
		c0,5.191-1.302,8.723-3.892,10.601c-2.599,1.878-7.026,2.823-13.289,2.823C1204.549,95.38,1200.254,94.395,1197.75,92.425z
		 M1222.444,251.731c-3.045,3.134-6.891,4.696-11.543,4.696c-4.656,0-8.501-1.562-11.541-4.696
		c-3.045-3.128-4.563-7.023-4.563-11.679V129.201c0-4.656,1.518-8.544,4.563-11.679c3.039-3.128,6.885-4.696,11.541-4.696
		c4.652,0,8.498,1.567,11.543,4.696c3.042,3.134,4.563,7.023,4.563,11.679v110.852
		C1227.007,244.708,1225.487,248.603,1222.444,251.731z"/>
	<path fill="#201F21" d="M1249.285,226.098c0-4.649,2.325-8.59,6.98-11.811c2.503-1.613,5.099-2.414,7.784-2.414
		c3.757,0,7.334,1.7,10.737,5.099c5.367,5.548,10.958,9.662,16.774,12.347c5.813,2.685,12.84,4.027,21.073,4.027
		c13.958-0.536,20.935-5.813,20.935-15.838c0-5.185-2.374-9.126-7.112-11.811c-4.742-2.685-12.125-5.37-22.145-8.055
		c-10.379-2.857-18.834-5.721-25.365-8.584c-6.534-2.864-12.171-7.202-16.91-13.021c-4.745-5.813-7.112-13.644-7.112-23.484
		c0-8.59,2.457-16.063,7.38-22.412c4.92-6.349,11.362-11.275,19.327-14.767c7.959-3.486,16.415-5.231,25.365-5.231
		c9.126,0,18.253,1.699,27.379,5.099c9.126,3.399,16.282,8.412,21.474,15.032c2.324,2.864,3.488,6.084,3.488,9.662
		c0,4.12-1.703,7.519-5.099,10.198c-2.509,1.976-5.37,2.956-8.591,2.956c-3.938,0-7.159-1.25-9.662-3.757
		c-3.221-3.935-7.38-7.069-12.482-9.397c-5.099-2.322-10.869-3.491-17.313-3.491c-13.6,0-20.398,4.926-20.398,14.767
		c0,3.935,1.25,7.11,3.759,9.53c2.503,2.414,5.678,4.292,9.527,5.635c3.846,1.342,9.262,2.996,16.239,4.966
		c9.665,2.685,17.717,5.462,24.158,8.32c6.441,2.863,11.9,7.248,16.375,13.153c4.471,5.906,6.709,13.689,6.709,23.352
		c0,8.769-2.596,16.42-7.784,22.948c-5.191,6.533-11.857,11.5-19.996,14.899c-8.146,3.399-16.51,5.099-25.097,5.099
		c-11.811,0-22.815-1.97-33.016-5.905c-10.201-3.936-18.521-10.285-24.962-19.06
		C1250.091,232.003,1249.285,229.318,1249.285,226.098z"/>
	<path fill="#201F21" d="M1488.71,117.251c9.302,4.748,13.958,11.057,13.958,18.927c0,3.935-1.164,7.38-3.489,10.331
		c-2.328,2.956-5.367,4.43-9.126,4.43c-2.864,0-5.191-0.403-6.978-1.204c-1.792-0.807-3.538-1.884-5.234-3.226
		c-1.702-1.337-3.356-2.455-4.966-3.354c-1.792-0.893-4.431-1.7-7.919-2.414c-3.488-0.714-6.306-1.072-8.455-1.072
		c-13.421,0-23.936,4.16-31.538,12.479c-7.608,8.32-11.408,19.192-11.408,32.61c0,12.883,3.846,23.582,11.543,32.08
		c7.691,8.499,17.535,12.745,29.525,12.745c8.766,0,15.3-1.072,19.595-3.221c1.072-0.536,2.55-1.475,4.428-2.817
		c1.878-1.342,3.624-2.368,5.234-3.088c1.61-0.709,3.578-1.072,5.906-1.072c4.471,0,8.005,1.435,10.601,4.298
		c2.593,2.864,3.892,6.534,3.892,11.005c0,4.292-2.506,8.319-7.513,12.076c-5.013,3.756-11.635,6.758-19.863,8.994
		c-8.233,2.235-17.005,3.353-26.307,3.353c-13.782,0-25.901-3.221-36.37-9.662s-18.566-15.343-24.291-26.71
		c-5.73-11.362-8.591-24.02-8.591-37.98c0-14.49,2.993-27.379,8.991-38.648c5.995-11.275,14.36-20.084,25.097-26.439
		c10.737-6.349,22.905-9.529,36.505-9.529C1467.145,110.142,1479.406,112.515,1488.71,117.251z"/>
	<path fill="#201F21" d="M1651.37,191.742c-3.221,2.679-6.977,4.022-11.271,4.022h-88.578c2.149,10.561,7.066,18.84,14.764,24.832
		c7.691,5.998,16.374,8.988,26.036,8.988c7.335,0,13.062-0.668,17.179-2.011c4.116-1.342,7.383-2.771,9.797-4.292
		c2.414-1.521,4.068-2.552,4.967-3.088c3.221-1.613,6.263-2.414,9.126-2.414c3.757,0,6.978,1.342,9.662,4.021
		c2.685,2.685,4.027,5.819,4.027,9.397c0,4.834-2.509,9.218-7.516,13.154c-5.013,4.119-11.722,7.605-20.134,10.469
		c-8.412,2.857-16.91,4.292-25.498,4.292c-15.031,0-28.142-3.128-39.322-9.391c-11.186-6.263-19.822-14.899-25.904-25.904
		c-6.084-11.004-9.126-23.397-9.126-37.179c0-15.383,3.224-28.894,9.665-40.527c6.441-11.632,14.94-20.534,25.498-26.71
		c10.558-6.171,21.83-9.259,33.823-9.259c11.808,0,22.948,3.221,33.417,9.662c10.469,6.441,18.828,15.124,25.097,26.036
		c6.263,10.918,9.395,22.729,9.395,35.434C1656.291,185.565,1654.59,189.057,1651.37,191.742z M1551.791,168.926h70.322v-1.884
		c-0.714-7.513-4.384-13.954-11.004-19.324c-6.62-5.37-14.14-8.049-22.545-8.049
		C1567.802,139.669,1555.547,149.423,1551.791,168.926z"/>
	<path fill="#201F21" d="M1797.923,126.377c6.979,10.832,10.469,25.817,10.469,44.963v68.712c0,4.655-1.524,8.55-4.563,11.679
		c-3.045,3.134-6.891,4.696-11.543,4.696c-4.655,0-8.498-1.562-11.541-4.696c-3.045-3.128-4.563-7.023-4.563-11.679V171.34
		c0-9.841-2.06-17.584-6.177-23.219c-4.116-5.635-11.183-8.452-21.202-8.452c-10.382,0-18.523,2.996-24.426,8.988
		c-5.906,5.998-8.858,13.557-8.858,22.683v68.712c0,4.655-1.521,8.55-4.563,11.679c-3.045,3.134-6.891,4.696-11.54,4.696
		c-4.655,0-8.504-1.562-11.543-4.696c-3.045-3.128-4.563-7.023-4.563-11.679V129.201c0-4.656,1.519-8.544,4.563-11.679
		c3.039-3.128,6.888-4.696,11.543-4.696c4.649,0,8.495,1.567,11.54,4.696c3.042,3.134,4.563,7.023,4.563,11.679v4.563
		c4.831-6.447,11.14-11.99,18.924-16.645c7.784-4.65,16.325-6.977,25.633-6.977C1778.329,110.142,1790.943,115.557,1797.923,126.377
		z"/>
	<path fill="#201F21" d="M1942.598,117.251c9.305,4.748,13.96,11.057,13.96,18.927c0,3.935-1.167,7.38-3.491,10.331
		c-2.328,2.956-5.367,4.43-9.127,4.43c-2.863,0-5.19-0.403-6.977-1.204c-1.792-0.807-3.537-1.884-5.234-3.226
		c-1.703-1.337-3.356-2.455-4.967-3.354c-1.789-0.893-4.428-1.7-7.919-2.414c-3.488-0.714-6.306-1.072-8.452-1.072
		c-13.424,0-23.939,4.16-31.541,12.479c-7.608,8.32-11.405,19.192-11.405,32.61c0,12.883,3.843,23.582,11.54,32.08
		c7.691,8.499,17.535,12.745,29.525,12.745c8.766,0,15.3-1.072,19.595-3.221c1.074-0.536,2.55-1.475,4.428-2.817
		s3.624-2.368,5.237-3.088c1.607-0.709,3.575-1.072,5.902-1.072c4.471,0,8.006,1.435,10.604,4.298
		c2.593,2.864,3.889,6.534,3.889,11.005c0,4.292-2.506,8.319-7.513,12.076c-5.013,3.756-11.636,6.758-19.863,8.994
		c-8.232,2.235-17.005,3.353-26.304,3.353c-13.782,0-25.904-3.221-36.373-9.662s-18.566-15.343-24.29-26.71
		c-5.73-11.362-8.591-24.02-8.591-37.98c0-14.49,2.996-27.379,8.994-38.648c5.991-11.275,14.357-20.084,25.097-26.439
		c10.734-6.349,22.902-9.529,36.506-9.529C1921.033,110.142,1933.293,112.515,1942.598,117.251z"/>
	<path fill="#201F21" d="M2105.26,191.742c-3.221,2.679-6.98,4.022-11.272,4.022h-88.577c2.146,10.561,7.063,18.84,14.761,24.832
		c7.691,5.998,16.374,8.988,26.036,8.988c7.334,0,13.062-0.668,17.181-2.011c4.114-1.342,7.381-2.771,9.795-4.292
		c2.417-1.521,4.067-2.552,4.967-3.088c3.221-1.613,6.263-2.414,9.126-2.414c3.757,0,6.98,1.342,9.662,4.021
		c2.685,2.685,4.027,5.819,4.027,9.397c0,4.834-2.506,9.218-7.514,13.154c-5.012,4.119-11.725,7.605-20.133,10.469
		c-8.415,2.857-16.91,4.292-25.498,4.292c-15.031,0-28.145-3.128-39.325-9.391c-11.187-6.263-19.822-14.899-25.901-25.904
		c-6.087-11.004-9.126-23.397-9.126-37.179c0-15.383,3.221-28.894,9.662-40.527c6.441-11.632,14.939-20.534,25.501-26.71
		c10.555-6.171,21.83-9.259,33.82-9.259c11.811,0,22.947,3.221,33.416,9.662c10.469,6.441,18.832,15.124,25.098,26.036
		c6.263,10.918,9.396,22.729,9.396,35.434C2110.178,185.565,2108.481,189.057,2105.26,191.742z M2005.678,168.926h70.325v-1.884
		c-0.718-7.513-4.388-13.954-11.007-19.324c-6.621-5.37-14.137-8.049-22.545-8.049
		C2021.692,139.669,2009.435,149.423,2005.678,168.926z"/>
</g>
<path fill="#29ABE2" d="M303.273,15.079H171.622h-37.487H39.968c-9.371,0-17.037,7.668-17.037,17.037v13.067V67.5v7.127v17.04
	h17.037h131.654h131.651h17.04v-17.04V67.5V32.116C320.313,22.748,312.644,15.079,303.273,15.079z"/>
<path fill="#29ABE2" d="M303.273,120.158H39.968H22.932v17.04v7.127v149.725c0,9.371,6.64,13.206,14.755,8.521l119.177-68.813
	c8.118-4.687,21.398-4.687,29.513,0l119.18,68.813c8.115,4.684,14.755,0.85,14.755-8.521V144.325v-7.127v-17.04H303.273z
	 M204.731,187.081h-66.217V163.32h66.217V187.081z"/>
</svg>
