<?xml version="1.0" encoding="utf-8"?>
<!-- Generator: Adobe Illustrator 16.0.0, SVG Export Plug-In . SVG Version: 6.00 Build 0)  -->
<!DOCTYPE svg PUBLIC "-//W3C//DTD SVG 1.1//EN" "http://www.w3.org/Graphics/SVG/1.1/DTD/svg11.dtd">
<svg version="1.1" id="Layer_1" xmlns="http://www.w3.org/2000/svg" xmlns:xlink="http://www.w3.org/1999/xlink" x="0px" y="0px"
	 width="2133.293px" height="319.648px" viewBox="0 0 2133.293 319.648" enable-background="new 0 0 2133.293 319.648"
	 xml:space="preserve">
<g>
	<g>
		<path fill="#201F21" d="M564.63,243.736c1.283,2.23,1.926,4.543,1.926,6.945c0,3.085-1.027,5.912-3.086,8.484
			c-2.569,3.086-6.517,4.631-11.83,4.631c-4.115,0-7.888-0.938-11.316-2.832c-12.343-7.027-18.515-21.341-18.515-42.948
			c0-6.171-2.018-11.057-6.044-14.656c-4.03-3.605-9.818-5.404-17.358-5.404h-48.092v49.892c0,4.631-1.245,8.407-3.729,11.316
			c-2.487,2.92-5.788,4.372-9.901,4.372c-4.976,0-9.304-1.496-12.989-4.499c-3.688-2.998-5.529-6.729-5.529-11.189V99.206
			c0-4.46,1.499-8.187,4.502-11.189c2.998-2.998,6.726-4.499,11.187-4.499h74.065c8.913,0,17.317,2.401,25.205,7.198
			c7.883,4.803,14.185,11.405,18.901,19.801c4.714,8.407,7.071,17.836,7.071,28.291c0,8.578-2.313,16.936-6.941,25.073
			c-4.631,8.148-10.635,14.623-18.004,19.42c10.803,7.546,16.718,17.659,17.745,30.344c0.516,2.744,0.772,5.404,0.772,7.971
			c0.682,5.316,1.369,9.131,2.057,11.449c0.684,2.313,2.227,4.074,4.628,5.271C561.583,239.712,563.343,241.511,564.63,243.736z
			 M515.638,167.099c2.912-2.915,5.311-6.817,7.201-11.703c1.882-4.886,2.826-10.157,2.826-15.815c0-4.797-0.944-9.213-2.826-13.243
			c-1.891-4.03-4.289-7.243-7.201-9.644c-2.917-2.401-5.915-3.604-9.003-3.604h-56.32v58.382h56.32
			C509.723,171.471,512.72,170.013,515.638,167.099z"/>
		<path fill="#201F21" d="M709.549,201.562c-3.086,2.567-6.688,3.853-10.803,3.853h-84.868c2.059,10.119,6.771,18.051,14.146,23.792
			c7.37,5.747,15.688,8.612,24.946,8.612c7.027,0,12.514-0.641,16.458-1.927s7.074-2.655,9.387-4.112
			c2.316-1.458,3.897-2.446,4.758-2.959c3.086-1.546,6-2.313,8.744-2.313c3.599,0,6.688,1.286,9.257,3.853
			c2.573,2.572,3.859,5.576,3.859,9.003c0,4.632-2.404,8.833-7.201,12.603c-4.803,3.947-11.231,7.287-19.288,10.03
			c-8.063,2.738-16.202,4.112-24.433,4.112c-14.402,0-26.963-2.998-37.675-8.998c-10.718-6-18.993-14.275-24.819-24.819
			c-5.829-10.543-8.744-22.417-8.744-35.622c0-14.739,3.088-27.684,9.26-38.829c6.171-11.146,14.313-19.674,24.43-25.592
			c10.116-5.912,20.916-8.871,32.406-8.871c11.313,0,21.987,3.086,32.017,9.257c10.03,6.172,18.043,14.491,24.046,24.946
			c6,10.46,9,21.777,9,33.949C714.261,195.644,712.635,198.989,709.549,201.562z M614.138,179.701h67.38v-1.805
			c-0.687-7.199-4.204-13.37-10.546-18.515s-13.544-7.711-21.601-7.711C629.479,151.67,617.737,161.016,614.138,179.701z"/>
		<path fill="#201F21" d="M934.06,138.935c6.514,10.378,9.771,24.736,9.771,43.08v65.834c0,4.46-1.458,8.192-4.372,11.189
			c-2.915,3.003-6.603,4.499-11.057,4.499c-4.46,0-8.145-1.496-11.057-4.499c-2.92-2.998-4.372-6.729-4.372-11.189v-65.834
			c0-9.428-1.844-16.848-5.531-22.246c-3.688-5.399-10.157-8.098-19.415-8.098c-9.605,0-17.102,2.87-22.506,8.611
			c-5.399,5.747-8.098,12.989-8.098,21.733v65.834c0,4.46-1.46,8.192-4.372,11.189c-2.92,3.003-6.602,4.499-11.06,4.499
			c-4.46,0-8.146-1.496-11.06-4.499c-2.915-2.998-4.372-6.729-4.372-11.189v-65.834c0-9.428-1.844-16.848-5.528-22.246
			c-3.69-5.399-10.157-8.098-19.417-8.098c-9.603,0-17.102,2.87-22.5,8.611c-5.401,5.747-8.104,12.989-8.104,21.733v65.834
			c0,4.46-1.458,8.192-4.372,11.189c-2.915,3.003-6.602,4.499-11.057,4.499c-4.46,0-8.145-1.496-11.057-4.499
			c-2.92-2.998-4.372-6.729-4.372-11.189V141.64c0-4.46,1.452-8.187,4.372-11.189c2.912-2.998,6.597-4.499,11.057-4.499
			c4.455,0,8.143,1.501,11.057,4.499c2.915,3.003,4.372,6.729,4.372,11.189v4.112c4.631-6.171,10.5-11.443,17.618-15.815
			c7.113-4.372,15.045-6.558,23.79-6.558c21.601,0,35.401,9.429,41.402,28.292c3.947-7.204,9.903-13.718,17.877-19.547
			s17.013-8.744,27.132-8.744C915.798,123.378,927.54,128.567,934.06,138.935z"/>
		<path fill="#201F21" d="M978.293,106.404c-2.404-1.882-3.602-5.228-3.602-10.03v-4.885c0-4.797,1.286-8.143,3.859-10.03
			c2.57-1.882,6.688-2.826,12.343-2.826c6,0,10.198,0.944,12.603,2.826c2.398,1.888,3.602,5.233,3.602,10.03v4.885
			c0,4.974-1.248,8.358-3.732,10.157c-2.487,1.8-6.729,2.705-12.729,2.705C984.807,109.236,980.692,108.292,978.293,106.404z
			 M1001.953,259.038c-2.917,3.003-6.602,4.499-11.06,4.499c-4.46,0-8.145-1.496-11.06-4.499c-2.915-2.998-4.372-6.729-4.372-11.189
			V141.64c0-4.46,1.457-8.187,4.372-11.189c2.915-2.998,6.599-4.499,11.06-4.499c4.458,0,8.142,1.501,11.06,4.499
			c2.915,3.003,4.372,6.729,4.372,11.189v106.209C1006.325,252.309,1004.868,256.041,1001.953,259.038z"/>
		<path fill="#201F21" d="M1147.77,138.935c6.685,10.378,10.03,24.736,10.03,43.08v65.834c0,4.46-1.458,8.192-4.372,11.189
			c-2.917,3.003-6.602,4.499-11.057,4.499c-4.46,0-8.148-1.496-11.06-4.499c-2.917-2.998-4.372-6.729-4.372-11.189v-65.834
			c0-9.428-1.974-16.848-5.915-22.246c-3.947-5.399-10.718-8.098-20.317-8.098c-9.944,0-17.745,2.87-23.403,8.611
			c-5.658,5.747-8.487,12.989-8.487,21.733v65.834c0,4.46-1.46,8.192-4.372,11.189c-2.917,3.003-6.602,4.499-11.06,4.499
			c-4.46,0-8.143-1.496-11.057-4.499c-2.917-2.998-4.372-6.729-4.372-11.189V141.64c0-4.46,1.455-8.187,4.372-11.189
			c2.915-2.998,6.597-4.499,11.057-4.499c4.458,0,8.142,1.501,11.06,4.499c2.912,3.003,4.372,6.729,4.372,11.189v4.372
			c4.629-6.177,10.673-11.488,18.131-15.948c7.458-4.455,15.644-6.685,24.56-6.685
			C1128.995,123.378,1141.084,128.567,1147.77,138.935z"/>
		<path fill="#201F21" d="M1192.257,106.404c-2.401-1.882-3.599-5.228-3.599-10.03v-4.885c0-4.797,1.286-8.143,3.858-10.03
			c2.573-1.882,6.685-2.826,12.344-2.826c6,0,10.201,0.944,12.603,2.826c2.398,1.888,3.599,5.233,3.599,10.03v4.885
			c0,4.974-1.245,8.358-3.726,10.157c-2.49,1.8-6.735,2.705-12.732,2.705C1198.771,109.236,1194.658,108.292,1192.257,106.404z
			 M1215.919,259.038c-2.917,3.003-6.603,4.499-11.06,4.499c-4.46,0-8.146-1.496-11.057-4.499c-2.92-2.998-4.372-6.729-4.372-11.189
			V141.64c0-4.46,1.452-8.187,4.372-11.189c2.912-2.998,6.597-4.499,11.057-4.499c4.457,0,8.142,1.501,11.06,4.499
			c2.912,3.003,4.372,6.729,4.372,11.189v106.209C1220.292,252.309,1218.832,256.041,1215.919,259.038z"/>
		<path fill="#201F21" d="M1241.635,234.479c0-4.455,2.225-8.23,6.685-11.316c2.401-1.546,4.888-2.313,7.458-2.313
			c3.602,0,7.03,1.628,10.29,4.885c5.142,5.316,10.5,9.258,16.072,11.83c5.57,2.572,12.302,3.858,20.19,3.858
			c13.37-0.513,20.058-5.57,20.058-15.175c0-4.968-2.274-8.744-6.815-11.316c-4.543-2.573-11.618-5.145-21.217-7.717
			c-9.944-2.738-18.048-5.482-24.303-8.225c-6.26-2.744-11.661-6.9-16.202-12.476c-4.546-5.57-6.817-13.072-6.817-22.5
			c0-8.23,2.357-15.39,7.074-21.474c4.711-6.083,10.886-10.803,18.518-14.148c7.626-3.34,15.727-5.013,24.3-5.013
			c8.744,0,17.488,1.628,26.232,4.886c8.744,3.257,15.601,8.059,20.574,14.402c2.23,2.744,3.345,5.83,3.345,9.258
			c0,3.947-1.631,7.204-4.885,9.771c-2.404,1.894-5.145,2.832-8.231,2.832c-3.773,0-6.859-1.198-9.257-3.599
			c-3.086-3.771-7.071-6.773-11.959-9.003c-4.888-2.225-10.414-3.346-16.588-3.346c-13.03,0-19.544,4.72-19.544,14.148
			c0,3.771,1.198,6.812,3.599,9.13c2.401,2.313,5.443,4.113,9.131,5.399c3.685,1.286,8.871,2.871,15.559,4.758
			c9.26,2.573,16.975,5.233,23.146,7.971c6.171,2.744,11.402,6.945,15.686,12.603s6.431,13.116,6.431,22.374
			c0,8.401-2.486,15.732-7.458,21.987c-4.974,6.26-11.361,11.019-19.161,14.275c-7.803,3.257-15.815,4.885-24.046,4.885
			c-11.317,0-21.86-1.888-31.631-5.658c-9.774-3.771-17.748-9.854-23.919-18.261
			C1242.408,240.137,1241.635,237.564,1241.635,234.479z"/>
		<path fill="#201F21" d="M1471.034,130.19c8.912,4.549,13.373,10.593,13.373,18.134c0,3.771-1.118,7.072-3.342,9.898
			c-2.23,2.832-5.145,4.245-8.744,4.245c-2.744,0-4.974-0.386-6.685-1.154c-1.717-0.773-3.389-1.805-5.018-3.091
			c-1.628-1.281-3.213-2.352-4.758-3.213c-1.714-0.855-4.243-1.628-7.585-2.313c-3.345-0.685-6.045-1.026-8.101-1.026
			c-12.859,0-22.934,3.985-30.22,11.957c-7.287,7.971-10.928,18.388-10.928,31.245c0,12.343,3.685,22.594,11.06,30.736
			c7.37,8.143,16.798,12.211,28.286,12.211c8.402,0,14.662-1.027,18.774-3.086c1.029-0.513,2.445-1.413,4.245-2.699
			c1.799-1.286,3.472-2.269,5.015-2.959c1.543-0.679,3.426-1.027,5.656-1.027c4.284,0,7.673,1.375,10.16,4.118
			c2.484,2.744,3.729,6.26,3.729,10.543c0,4.113-2.401,7.972-7.198,11.571c-4.803,3.599-11.151,6.475-19.034,8.617
			c-7.889,2.142-16.29,3.213-25.203,3.213c-13.205,0-24.816-3.086-34.846-9.257s-17.792-14.7-23.273-25.592
			c-5.493-10.886-8.23-23.014-8.23-36.389c0-13.883,2.868-26.232,8.614-37.03c5.744-10.803,13.759-19.244,24.046-25.333
			c10.287-6.083,21.946-9.13,34.976-9.13C1450.372,123.378,1462.119,125.653,1471.034,130.19z"/>
		<path fill="#201F21" d="M1626.88,201.562c-3.086,2.567-6.685,3.853-10.8,3.853h-84.868c2.056,10.119,6.771,18.051,14.146,23.792
			c7.37,5.747,15.688,8.612,24.946,8.612c7.026,0,12.514-0.641,16.458-1.927s7.074-2.655,9.388-4.112
			c2.313-1.458,3.896-2.446,4.758-2.959c3.086-1.546,6.001-2.313,8.744-2.313c3.6,0,6.686,1.286,9.258,3.853
			c2.572,2.572,3.858,5.576,3.858,9.003c0,4.632-2.404,8.833-7.201,12.603c-4.803,3.947-11.23,7.287-19.29,10.03
			c-8.06,2.738-16.202,4.112-24.43,4.112c-14.403,0-26.964-2.998-37.679-8.998s-18.989-14.275-24.816-24.819
			c-5.832-10.543-8.744-22.417-8.744-35.622c0-14.739,3.088-27.684,9.26-38.829c6.171-11.146,14.313-19.674,24.43-25.592
			c10.116-5.912,20.916-8.871,32.406-8.871c11.313,0,21.987,3.086,32.018,9.257c10.03,6.172,18.04,14.491,24.046,24.946
			c6,10.46,9.001,21.777,9.001,33.949C1631.595,195.644,1629.966,198.989,1626.88,201.562z M1531.469,179.701h67.38v-1.805
			c-0.685-7.199-4.201-13.37-10.544-18.515s-13.547-7.711-21.601-7.711C1546.813,151.67,1535.068,161.016,1531.469,179.701z"/>
		<path fill="#201F21" d="M1767.295,138.935c6.688,10.378,10.03,24.736,10.03,43.08v65.834c0,4.46-1.46,8.192-4.372,11.189
			c-2.917,3.003-6.602,4.499-11.06,4.499c-4.46,0-8.143-1.496-11.057-4.499c-2.918-2.998-4.372-6.729-4.372-11.189v-65.834
			c0-9.428-1.974-16.848-5.918-22.246c-3.944-5.399-10.715-8.098-20.314-8.098c-9.947,0-17.747,2.87-23.402,8.611
			c-5.658,5.747-8.488,12.989-8.488,21.733v65.834c0,4.46-1.457,8.192-4.371,11.189c-2.918,3.003-6.603,4.499-11.058,4.499
			c-4.46,0-8.147-1.496-11.06-4.499c-2.918-2.998-4.372-6.729-4.372-11.189V141.64c0-4.46,1.454-8.187,4.372-11.189
			c2.912-2.998,6.6-4.499,11.06-4.499c4.455,0,8.14,1.501,11.058,4.499c2.914,3.003,4.371,6.729,4.371,11.189v4.372
			c4.629-6.177,10.674-11.488,18.132-15.948c7.458-4.455,15.642-6.685,24.56-6.685
			C1748.522,123.378,1760.608,128.567,1767.295,138.935z"/>
		<path fill="#201F21" d="M1905.912,130.19c8.915,4.549,13.375,10.593,13.375,18.134c0,3.771-1.118,7.072-3.345,9.898
			c-2.23,2.832-5.143,4.245-8.744,4.245c-2.744,0-4.974-0.386-6.686-1.154c-1.717-0.773-3.389-1.805-5.015-3.091
			c-1.632-1.281-3.216-2.352-4.759-3.213c-1.714-0.855-4.242-1.628-7.588-2.313c-3.342-0.685-6.041-1.026-8.098-1.026
			c-12.862,0-22.937,3.985-30.221,11.957c-7.289,7.971-10.927,18.388-10.927,31.245c0,12.343,3.682,22.594,11.057,30.736
			c7.37,8.143,16.801,12.211,28.288,12.211c8.399,0,14.659-1.027,18.774-3.086c1.03-0.513,2.442-1.413,4.243-2.699
			c1.799-1.286,3.472-2.269,5.018-2.959c1.54-0.679,3.425-1.027,5.655-1.027c4.284,0,7.67,1.375,10.16,4.118
			c2.483,2.744,3.726,6.26,3.726,10.543c0,4.113-2.401,7.972-7.198,11.571c-4.803,3.599-11.147,6.475-19.03,8.617
			c-7.889,2.142-16.293,3.213-25.203,3.213c-13.204,0-24.818-3.086-34.85-9.257c-10.029-6.171-17.789-14.7-23.272-25.592
			c-5.49-10.886-8.231-23.014-8.231-36.389c0-13.883,2.871-26.232,8.617-37.03c5.741-10.803,13.757-19.244,24.047-25.333
			c10.283-6.083,21.942-9.13,34.976-9.13C1885.249,123.378,1896.997,125.653,1905.912,130.19z"/>
		<path fill="#201F21" d="M2061.761,201.562c-3.086,2.567-6.688,3.853-10.801,3.853h-84.868
			c2.057,10.119,6.769,18.051,14.144,23.792c7.369,5.747,15.688,8.612,24.945,8.612c7.027,0,12.515-0.641,16.462-1.927
			c3.941-1.286,7.071-2.655,9.384-4.112c2.315-1.458,3.897-2.446,4.759-2.959c3.086-1.546,6-2.313,8.744-2.313
			c3.6,0,6.688,1.286,9.258,3.853c2.572,2.572,3.858,5.576,3.858,9.003c0,4.632-2.401,8.833-7.198,12.603
			c-4.803,3.947-11.234,7.287-19.291,10.03c-8.063,2.738-16.201,4.112-24.43,4.112c-14.402,0-26.967-2.998-37.678-8.998
			c-10.718-6-18.992-14.275-24.816-24.819c-5.832-10.543-8.744-22.417-8.744-35.622c0-14.739,3.086-27.684,9.258-38.829
			c6.171-11.146,14.313-19.674,24.432-25.592c10.113-5.912,20.916-8.871,32.404-8.871c11.316,0,21.986,3.086,32.018,9.257
			c10.029,6.172,18.042,14.491,24.046,24.946c6,10.46,9.003,21.777,9.003,33.949
			C2066.472,195.644,2064.846,198.989,2061.761,201.562z M1966.349,179.701h67.38v-1.805c-0.688-7.199-4.203-13.37-10.546-18.515
			s-13.544-7.711-21.601-7.711C1981.693,151.67,1969.949,161.016,1966.349,179.701z"/>
	</g>
	<g>
		<path fill="#662D91" d="M335.245,32.298H173.191c0-12.324-9.989-22.313-22.31-22.313H88.955c-12.158,0-22.028,9.732-22.285,21.83
			h-0.024v16.807v12.52v21.383v6.829v16.326h16.323h252.277h16.326V89.352v-6.829V48.621
			C351.571,39.645,344.224,32.298,335.245,32.298z"/>
		<path fill="#662D91" d="M82.968,132.976H66.645v16.326v6.828v143.454c0,8.979,6.362,12.652,14.137,8.165l114.186-65.931
			c7.778-4.491,20.502-4.491,28.277,0l114.189,65.931c7.775,4.488,14.137,0.814,14.137-8.165V156.13v-6.828v-16.326h-16.326H82.968z
			"/>
	</g>
</g>
</svg>
