<?xml version="1.0" encoding="utf-8"?>
<!-- Generator: Adobe Illustrator 16.0.0, SVG Export Plug-In . SVG Version: 6.00 Build 0)  -->
<!DOCTYPE svg PUBLIC "-//W3C//DTD SVG 1.1//EN" "http://www.w3.org/Graphics/SVG/1.1/DTD/svg11.dtd">
<svg version="1.1" id="Layer_1" xmlns="http://www.w3.org/2000/svg" xmlns:xlink="http://www.w3.org/1999/xlink" x="0px" y="0px"
	 width="2133.293px" height="319.648px" viewBox="0 0 2133.293 319.648" enable-background="new 0 0 2133.293 319.648"
	 xml:space="preserve">
<g>
	<g>
		<path fill="#FFFFFF" d="M531.173,249.327c1.37,2.379,2.056,4.846,2.056,7.407c0,3.292-1.097,6.306-3.292,9.05
			c-2.742,3.291-6.954,4.94-12.618,4.94c-4.39,0-8.414-1.001-12.071-3.021c-13.166-7.496-19.75-22.764-19.75-45.81
			c0-6.583-2.152-11.794-6.446-15.633c-4.302-3.845-10.472-5.764-18.517-5.764h-51.297v53.217c0,4.94-1.328,8.968-3.977,12.071
			c-2.653,3.115-6.172,4.663-10.561,4.663c-5.307,0-9.923-1.596-13.853-4.799c-3.935-3.197-5.898-7.178-5.898-11.935V95.164
			c0-4.758,1.599-8.732,4.802-11.936c3.197-3.197,7.174-4.799,11.932-4.799h79.002c9.506,0,18.47,2.562,26.884,7.678
			c8.408,5.123,15.129,12.165,20.161,21.121c5.028,8.968,7.544,19.025,7.544,30.177c0,9.15-2.469,18.065-7.406,26.744
			c-4.938,8.69-11.342,15.597-19.202,20.714c11.521,8.049,17.831,18.836,18.927,32.367c0.549,2.926,0.823,5.765,0.823,8.502
			c0.729,5.67,1.462,9.739,2.195,12.212c0.729,2.467,2.373,4.346,4.937,5.624C527.924,245.034,529.801,246.954,531.173,249.327z
			 M478.916,167.582c3.107-3.109,5.666-7.272,7.681-12.483c2.009-5.211,3.016-10.834,3.016-16.87c0-5.117-1.007-9.827-3.016-14.125
			c-2.015-4.298-4.574-7.725-7.681-10.287c-3.112-2.561-6.309-3.845-9.602-3.845h-60.075v62.272h60.075
			C472.607,172.245,475.804,170.691,478.916,167.582z"/>
		<path fill="#FFFFFF" d="M685.752,204.341c-3.292,2.738-7.133,4.11-11.523,4.11h-90.524c2.195,10.793,7.22,19.254,15.087,25.378
			c7.862,6.129,16.734,9.186,26.61,9.186c7.496,0,13.347-0.683,17.555-2.055c4.204-1.372,7.543-2.832,10.013-4.386
			c2.47-1.555,4.157-2.608,5.073-3.156c3.294-1.648,6.4-2.467,9.327-2.467c3.842,0,7.137,1.372,9.877,4.11
			c2.744,2.744,4.113,5.947,4.113,9.604c0,4.94-2.562,9.421-7.678,13.443c-5.123,4.21-11.982,7.772-20.573,10.699
			c-8.6,2.92-17.283,4.387-26.061,4.387c-15.362,0-28.76-3.197-40.188-9.598c-11.43-6.4-20.256-15.227-26.471-26.473
			c-6.22-11.246-9.327-23.912-9.327-37.996c0-15.721,3.293-29.529,9.876-41.417s15.268-20.985,26.06-27.297
			c10.789-6.306,22.31-9.462,34.564-9.462c12.069,0,23.454,3.291,34.15,9.874c10.698,6.583,19.248,15.457,25.648,26.608
			c6.4,11.158,9.604,23.229,9.604,36.212C690.778,198.029,689.041,201.598,685.752,204.341z M583.981,181.024h71.872v-1.925
			c-0.736-7.678-4.487-14.261-11.25-19.749c-6.767-5.488-14.448-8.226-23.042-8.226C600.344,151.125,587.82,161.093,583.981,181.024
			z"/>
		<path fill="#FFFFFF" d="M925.225,137.541c6.948,11.069,10.425,26.384,10.425,45.951v70.222c0,4.757-1.557,8.738-4.663,11.935
			c-3.115,3.203-7.045,4.799-11.797,4.799c-4.758,0-8.688-1.596-11.797-4.799c-3.109-3.197-4.664-7.178-4.664-11.935v-70.222
			c0-10.057-1.966-17.971-5.894-23.729c-3.939-5.759-10.837-8.638-20.714-8.638c-10.242,0-18.241,3.062-24,9.186
			c-5.761,6.129-8.644,13.855-8.644,23.182v70.222c0,4.757-1.555,8.738-4.664,11.935c-3.109,3.203-7.042,4.799-11.794,4.799
			c-4.757,0-8.688-1.596-11.794-4.799c-3.115-3.197-4.663-7.178-4.663-11.935v-70.222c0-10.057-1.967-17.971-5.9-23.729
			c-3.933-5.759-10.834-8.638-20.708-8.638c-10.246,0-18.242,3.062-24.006,9.186c-5.759,6.129-8.638,13.855-8.638,23.182v70.222
			c0,4.757-1.558,8.738-4.664,11.935c-3.115,3.203-7.042,4.799-11.797,4.799c-4.758,0-8.688-1.596-11.797-4.799
			c-3.112-3.197-4.664-7.178-4.664-11.935V140.426c0-4.757,1.552-8.732,4.664-11.935c3.109-3.197,7.039-4.799,11.797-4.799
			c4.754,0,8.682,1.602,11.797,4.799c3.106,3.203,4.664,7.178,4.664,11.935v4.387c4.934-6.583,11.199-12.206,18.789-16.869
			c7.587-4.664,16.048-6.995,25.375-6.995c23.043,0,37.76,10.057,44.164,30.176c4.204-7.684,10.563-14.632,19.066-20.85
			s18.147-9.327,28.94-9.327C905.75,120.948,918.274,126.483,925.225,137.541z"/>
		<path fill="#FFFFFF" d="M972.404,102.842c-2.562-2.008-3.839-5.576-3.839-10.698v-5.211c0-5.117,1.372-8.685,4.115-10.699
			c2.744-2.008,7.131-3.015,13.166-3.015c6.4,0,10.881,1.007,13.442,3.015c2.559,2.014,3.839,5.582,3.839,10.699v5.211
			c0,5.305-1.328,8.915-3.975,10.834c-2.655,1.919-7.183,2.885-13.581,2.885C979.352,105.863,974.965,104.856,972.404,102.842z
			 M997.643,265.648c-3.112,3.203-7.042,4.799-11.797,4.799c-4.757,0-8.688-1.596-11.794-4.799
			c-3.115-3.197-4.663-7.178-4.663-11.935V140.426c0-4.757,1.548-8.732,4.663-11.935c3.106-3.197,7.037-4.799,11.794-4.799
			c4.755,0,8.685,1.602,11.797,4.799c3.106,3.203,4.661,7.178,4.661,11.935v113.288
			C1002.304,258.471,1000.749,262.451,997.643,265.648z"/>
		<path fill="#FFFFFF" d="M1153.178,137.541c7.133,11.069,10.699,26.384,10.699,45.951v70.222c0,4.757-1.558,8.738-4.663,11.935
			c-3.112,3.203-7.042,4.799-11.797,4.799c-4.758,0-8.685-1.596-11.794-4.799c-3.112-3.197-4.664-7.178-4.664-11.935v-70.222
			c0-10.057-2.105-17.971-6.312-23.729c-4.207-5.759-11.429-8.638-21.668-8.638c-10.61,0-18.93,3.062-24.962,9.186
			c-6.036,6.129-9.053,13.855-9.053,23.182v70.222c0,4.757-1.554,8.738-4.664,11.935c-3.111,3.203-7.042,4.799-11.793,4.799
			c-4.758,0-8.691-1.596-11.797-4.799c-3.112-3.197-4.664-7.178-4.664-11.935V140.426c0-4.757,1.552-8.732,4.664-11.935
			c3.106-3.197,7.039-4.799,11.797-4.799c4.751,0,8.682,1.602,11.793,4.799c3.109,3.203,4.664,7.178,4.664,11.935v4.664
			c4.937-6.589,11.385-12.253,19.339-17.011c7.955-4.752,16.684-7.13,26.196-7.13
			C1133.152,120.948,1146.044,126.483,1153.178,137.541z"/>
		<path fill="#FFFFFF" d="M1200.633,102.842c-2.564-2.008-3.842-5.576-3.842-10.698v-5.211c0-5.117,1.372-8.685,4.116-10.699
			c2.741-2.008,7.134-3.015,13.166-3.015c6.4,0,10.878,1.007,13.442,3.015c2.559,2.014,3.842,5.582,3.842,10.699v5.211
			c0,5.305-1.331,8.915-3.98,10.834c-2.653,1.919-7.178,2.885-13.578,2.885C1207.578,105.863,1203.191,104.856,1200.633,102.842z
			 M1225.87,265.648c-3.115,3.203-7.042,4.799-11.797,4.799c-4.758,0-8.688-1.596-11.797-4.799
			c-3.109-3.197-4.664-7.178-4.664-11.935V140.426c0-4.757,1.555-8.732,4.664-11.935c3.109-3.197,7.039-4.799,11.797-4.799
			c4.755,0,8.682,1.602,11.797,4.799c3.109,3.203,4.663,7.178,4.663,11.935v113.288
			C1230.533,258.471,1228.979,262.451,1225.87,265.648z"/>
		<path fill="#FFFFFF" d="M1253.299,239.452c0-4.751,2.376-8.779,7.134-12.07c2.555-1.649,5.211-2.467,7.955-2.467
			c3.839,0,7.496,1.737,10.969,5.211c5.488,5.67,11.202,9.875,17.146,12.618c5.941,2.744,13.119,4.116,21.533,4.116
			c14.267-0.547,21.397-5.941,21.397-16.187c0-5.299-2.426-9.327-7.269-12.07c-4.849-2.744-12.391-5.488-22.631-8.231
			c-10.61-2.921-19.248-5.847-25.922-8.773c-6.68-2.926-12.438-7.36-17.285-13.307c-4.846-5.941-7.266-13.943-7.266-24
			c0-8.779,2.508-16.416,7.542-22.905c5.029-6.489,11.611-11.523,19.749-15.091c8.138-3.563,16.778-5.346,25.926-5.346
			c9.327,0,18.65,1.737,27.98,5.211c9.327,3.474,16.64,8.597,21.945,15.362c2.373,2.926,3.565,6.218,3.565,9.875
			c0,4.21-1.74,7.684-5.214,10.422c-2.561,2.02-5.484,3.021-8.776,3.021c-4.025,0-7.316-1.277-9.877-3.839
			c-3.292-4.021-7.543-7.225-12.754-9.604c-5.211-2.373-11.111-3.568-17.693-3.568c-13.899,0-20.847,5.035-20.847,15.091
			c0,4.021,1.275,7.266,3.842,9.739c2.555,2.467,5.8,4.387,9.736,5.759c3.93,1.372,9.465,3.062,16.596,5.076
			c9.875,2.744,18.106,5.582,24.689,8.502c6.583,2.926,12.159,7.407,16.734,13.442c4.569,6.036,6.857,13.99,6.857,23.865
			c0,8.961-2.653,16.781-7.955,23.452c-5.308,6.677-12.118,11.753-20.435,15.227c-8.326,3.474-16.873,5.211-25.649,5.211
			c-12.071,0-23.317-2.014-33.742-6.036c-10.425-4.021-18.928-10.51-25.51-19.478
			C1254.121,245.488,1253.299,242.744,1253.299,239.452z"/>
		<path fill="#FFFFFF" d="M1497.986,128.214c9.507,4.852,14.264,11.299,14.264,19.343c0,4.021-1.192,7.542-3.565,10.557
			c-2.378,3.021-5.485,4.528-9.33,4.528c-2.926,0-5.305-0.412-7.13-1.23c-1.832-0.824-3.612-1.925-5.347-3.297
			c-1.743-1.366-3.433-2.508-5.076-3.427c-1.831-0.913-4.528-1.737-8.093-2.467c-3.565-0.73-6.445-1.095-8.641-1.095
			c-13.716,0-24.462,4.251-32.231,12.754c-7.775,8.502-11.659,19.613-11.659,33.327c0,13.166,3.931,24.1,11.794,32.785
			c7.861,8.685,17.924,13.024,30.177,13.024c8.956,0,15.633-1.095,20.022-3.292c1.098-0.547,2.605-1.507,4.528-2.879
			c1.919-1.372,3.703-2.42,5.349-3.156c1.646-0.724,3.657-1.095,6.035-1.095c4.569,0,8.182,1.466,10.834,4.393
			c2.649,2.926,3.978,6.677,3.978,11.246c0,4.387-2.564,8.502-7.681,12.342c-5.123,3.839-11.888,6.906-20.296,9.191
			c-8.414,2.285-17.379,3.427-26.885,3.427c-14.084,0-26.473-3.292-37.172-9.875c-10.696-6.583-18.971-15.68-24.824-27.297
			c-5.853-11.611-8.779-24.547-8.779-38.814c0-14.809,3.062-27.98,9.191-39.498c6.124-11.523,14.676-20.526,25.649-27.021
			c10.973-6.489,23.405-9.739,37.307-9.739C1475.947,120.948,1488.474,123.374,1497.986,128.214z"/>
		<path fill="#FFFFFF" d="M1664.222,204.341c-3.291,2.738-7.134,4.11-11.522,4.11h-90.524c2.196,10.793,7.222,19.254,15.085,25.378
			c7.864,6.129,16.734,9.186,26.611,9.186c7.496,0,13.346-0.683,17.556-2.055c4.204-1.372,7.543-2.832,10.013-4.386
			c2.468-1.555,4.157-2.608,5.073-3.156c3.294-1.648,6.4-2.467,9.326-2.467c3.843,0,7.137,1.372,9.878,4.11
			c2.743,2.744,4.112,5.947,4.112,9.604c0,4.94-2.562,9.421-7.678,13.443c-5.123,4.21-11.982,7.772-20.573,10.699
			c-8.6,2.92-17.281,4.387-26.061,4.387c-15.362,0-28.761-3.197-40.187-9.598c-11.432-6.4-20.258-15.227-26.473-26.473
			c-6.218-11.246-9.327-23.912-9.327-37.996c0-15.721,3.292-29.529,9.874-41.417c6.583-11.888,15.268-20.985,26.062-27.297
			c10.787-6.306,22.31-9.462,34.563-9.462c12.071,0,23.455,3.291,34.151,9.874c10.698,6.583,19.248,15.457,25.648,26.608
			c6.4,11.158,9.604,23.229,9.604,36.212C1669.248,198.029,1667.514,201.598,1664.222,204.341z M1562.452,181.024h71.871v-1.925
			c-0.736-7.678-4.487-14.261-11.25-19.749c-6.768-5.488-14.446-8.226-23.043-8.226
			C1578.815,151.125,1566.292,161.093,1562.452,181.024z"/>
		<path fill="#FFFFFF" d="M1813.993,137.541c7.131,11.069,10.698,26.384,10.698,45.951v70.222c0,4.757-1.554,8.738-4.663,11.935
			c-3.112,3.203-7.042,4.799-11.794,4.799c-4.758,0-8.69-1.596-11.797-4.799c-3.111-3.197-4.663-7.178-4.663-11.935v-70.222
			c0-10.057-2.105-17.971-6.31-23.729c-4.21-5.759-11.432-8.638-21.671-8.638c-10.607,0-18.928,3.062-24.963,9.186
			c-6.035,6.129-9.053,13.855-9.053,23.182v70.222c0,4.757-1.558,8.738-4.663,11.935c-3.112,3.203-7.043,4.799-11.797,4.799
			c-4.758,0-8.688-1.596-11.794-4.799c-3.112-3.197-4.664-7.178-4.664-11.935V140.426c0-4.757,1.552-8.732,4.664-11.935
			c3.105-3.197,7.036-4.799,11.794-4.799c4.754,0,8.685,1.602,11.797,4.799c3.105,3.203,4.663,7.178,4.663,11.935v4.664
			c4.938-6.589,11.385-12.253,19.34-17.011c7.954-4.752,16.684-7.13,26.196-7.13
			C1793.967,120.948,1806.862,126.483,1813.993,137.541z"/>
		<path fill="#FFFFFF" d="M1961.849,128.214c9.503,4.852,14.261,11.299,14.261,19.343c0,4.021-1.189,7.542-3.563,10.557
			c-2.378,3.021-5.487,4.528-9.326,4.528c-2.93,0-5.309-0.412-7.134-1.23c-1.831-0.824-3.612-1.925-5.35-3.297
			c-1.739-1.366-3.43-2.508-5.075-3.427c-1.831-0.913-4.528-1.737-8.09-2.467c-3.568-0.73-6.448-1.095-8.645-1.095
			c-13.713,0-24.459,4.251-32.231,12.754s-11.658,19.613-11.658,33.327c0,13.166,3.934,24.1,11.797,32.785
			c7.86,8.685,17.921,13.024,30.174,13.024c8.959,0,15.636-1.095,20.025-3.292c1.095-0.547,2.605-1.507,4.528-2.879
			c1.919-1.372,3.703-2.42,5.346-3.156c1.649-0.724,3.657-1.095,6.035-1.095c4.569,0,8.185,1.466,10.835,4.393
			c2.649,2.926,3.98,6.677,3.98,11.246c0,4.387-2.564,8.502-7.682,12.342c-5.123,3.839-11.891,6.906-20.299,9.191
			c-8.414,2.285-17.376,3.427-26.886,3.427c-14.084,0-26.47-3.292-37.169-9.875c-10.695-6.583-18.974-15.68-24.824-27.297
			c-5.855-11.611-8.779-24.547-8.779-38.814c0-14.809,3.06-27.98,9.188-39.498c6.127-11.523,14.68-20.526,25.649-27.021
			c10.975-6.489,23.408-9.739,37.307-9.739C1939.81,120.948,1952.336,123.374,1961.849,128.214z"/>
		<path fill="#FFFFFF" d="M2128.083,204.341c-3.292,2.738-7.131,4.11-11.523,4.11h-90.523c2.196,10.793,7.225,19.254,15.088,25.378
			c7.864,6.129,16.734,9.186,26.611,9.186c7.496,0,13.346-0.683,17.553-2.055c4.207-1.372,7.546-2.832,10.016-4.386
			c2.467-1.555,4.157-2.608,5.072-3.156c3.295-1.648,6.4-2.467,9.327-2.467c3.842,0,7.134,1.372,9.877,4.11
			c2.744,2.744,4.113,5.947,4.113,9.604c0,4.94-2.564,9.421-7.681,13.443c-5.123,4.21-11.979,7.772-20.573,10.699
			c-8.597,2.92-17.282,4.387-26.062,4.387c-15.361,0-28.757-3.197-40.186-9.598c-11.43-6.4-20.256-15.227-26.474-26.473
			c-6.218-11.246-9.326-23.912-9.326-37.996c0-15.721,3.294-29.529,9.877-41.417s15.268-20.985,26.058-27.297
			c10.79-6.306,22.311-9.462,34.566-9.462c12.067,0,23.455,3.291,34.151,9.874c10.698,6.583,19.245,15.457,25.648,26.608
			c6.4,11.158,9.601,23.229,9.601,36.212C2133.111,198.029,2131.374,201.598,2128.083,204.341z M2026.312,181.024h71.87v-1.925
			c-0.732-7.678-4.483-14.261-11.246-19.749c-6.769-5.488-14.449-8.226-23.043-8.226
			C2042.675,151.125,2030.151,161.093,2026.312,181.024z"/>
	</g>
	<path fill="#FFFFFF" d="M286.502,23.8H113.648c0-13.148-10.654-23.8-23.797-23.8H23.798C10.828,0,0.302,10.381,0.026,23.282H0
		v17.929v13.354V77.37v7.284v17.417h17.413h269.09h17.413V84.654V77.37V41.211C303.916,31.637,296.08,23.8,286.502,23.8z"/>
	<path fill="#FFFFFF" d="M286.502,131.188H17.413H0v17.411v7.284v153.015c0,9.58,6.786,13.496,15.08,8.708l121.797-70.322
		c8.295-4.793,21.867-4.793,30.161,0l121.799,70.322c8.292,4.787,15.08,0.871,15.08-8.708V155.882v-7.284v-17.411H286.502z
		 M185.793,199.578h-67.672v-24.283h67.672V199.578z"/>
</g>
</svg>
