<?xml version="1.0" encoding="utf-8"?>
<!-- Generator: Adobe Illustrator 16.0.0, SVG Export Plug-In . SVG Version: 6.00 Build 0)  -->
<!DOCTYPE svg PUBLIC "-//W3C//DTD SVG 1.1//EN" "http://www.w3.org/Graphics/SVG/1.1/DTD/svg11.dtd">
<svg version="1.1" id="Layer_1" xmlns="http://www.w3.org/2000/svg" xmlns:xlink="http://www.w3.org/1999/xlink" x="0px" y="0px"
	 width="221.68px" height="221.68px" viewBox="0 0 221.68 221.68" enable-background="new 0 0 221.68 221.68" xml:space="preserve">
<g>
	<circle fill="#FFFFFF" cx="110.84" cy="110.84" r="110.84"/>
	<path d="M155.469,65.719H98.132c0-4.359-3.534-7.895-7.894-7.895h-21.91c-4.302,0-7.794,3.443-7.885,7.725h-0.009v5.945v4.43v7.566
		v2.416v5.775h5.776h89.259h5.776v-5.775V83.49V71.494C161.245,68.318,158.646,65.719,155.469,65.719z"/>
	<path d="M155.469,101.34H66.21h-5.776v5.777v2.416v50.756c0,3.176,2.251,4.477,5.002,2.889l40.401-23.328
		c2.751-1.588,7.253-1.588,10.004,0l40.401,23.328c2.751,1.588,5.002,0.287,5.002-2.889v-50.756v-2.416v-5.777H155.469z
		 M122.063,124.027H99.616v-8.055h22.447V124.027z"/>
</g>
</svg>
