<?xml version="1.0" encoding="utf-8"?>
<!-- Generator: Adobe Illustrator 16.0.0, SVG Export Plug-In . SVG Version: 6.00 Build 0)  -->
<!DOCTYPE svg PUBLIC "-//W3C//DTD SVG 1.1//EN" "http://www.w3.org/Graphics/SVG/1.1/DTD/svg11.dtd">
<svg version="1.1" id="Layer_1" xmlns="http://www.w3.org/2000/svg" xmlns:xlink="http://www.w3.org/1999/xlink" x="0px" y="0px"
	 width="221.68px" height="221.68px" viewBox="0 0 221.68 221.68" enable-background="new 0 0 221.68 221.68" xml:space="preserve">
<circle fill="#FFFFFF" cx="110.84" cy="110.84" r="110.84"/>
<path d="M155.47,61.771h-44.63H98.132H66.21c-3.177,0-5.775,2.6-5.775,5.775v4.43v7.564v2.416v5.777h5.775h44.63h44.63h5.775v-5.777
	v-2.416V67.547C161.245,64.371,158.646,61.771,155.47,61.771z"/>
<path d="M155.47,97.393H66.21h-5.775v5.775v2.416v50.756c0,3.178,2.251,4.477,5.002,2.889l40.401-23.326
	c2.751-1.59,7.253-1.59,10.004,0l40.401,23.326c2.751,1.588,5.002,0.289,5.002-2.889v-50.756v-2.416v-5.775H155.47z
	 M122.063,120.078H99.616v-8.055h22.447V120.078z"/>
</svg>
