<?xml version="1.0" encoding="utf-8"?>
<!-- Generator: Adobe Illustrator 16.0.0, SVG Export Plug-In . SVG Version: 6.00 Build 0)  -->
<!DOCTYPE svg PUBLIC "-//W3C//DTD SVG 1.1//EN" "http://www.w3.org/Graphics/SVG/1.1/DTD/svg11.dtd">
<svg version="1.1" id="Layer_1" xmlns="http://www.w3.org/2000/svg" xmlns:xlink="http://www.w3.org/1999/xlink" x="0px" y="0px"
	 width="221.68px" height="221.68px" viewBox="0 0 221.68 221.68" enable-background="new 0 0 221.68 221.68" xml:space="preserve">
<g>
	<circle fill="#FFFFFF" cx="110.84" cy="110.84" r="110.84"/>
	<g>
		<path d="M155.469,65.719H98.132c0-4.361-3.534-7.895-7.894-7.895h-21.91c-4.302,0-7.794,3.443-7.885,7.723h-0.009v5.947v4.43
			v7.564v2.416v5.777h5.776h89.259h5.776v-5.777v-2.416V71.494C161.245,68.318,158.646,65.719,155.469,65.719z"/>
		<path d="M66.21,101.34h-5.776v5.775v2.416v50.756c0,3.178,2.251,4.477,5.002,2.889l40.401-23.326c2.751-1.59,7.253-1.59,10.004,0
			l40.401,23.326c2.751,1.588,5.002,0.289,5.002-2.889v-50.756v-2.416v-5.775h-5.776H66.21z"/>
	</g>
</g>
</svg>
