<?xml version="1.0" encoding="utf-8"?>
<!-- Generator: Adobe Illustrator 16.0.0, SVG Export Plug-In . SVG Version: 6.00 Build 0)  -->
<!DOCTYPE svg PUBLIC "-//W3C//DTD SVG 1.1//EN" "http://www.w3.org/Graphics/SVG/1.1/DTD/svg11.dtd">
<svg version="1.1" id="Layer_1" xmlns="http://www.w3.org/2000/svg" xmlns:xlink="http://www.w3.org/1999/xlink" x="0px" y="0px"
	 width="268.147px" height="282.029px" viewBox="0 0 268.147 282.029" enable-background="new 0 0 268.147 282.029"
	 xml:space="preserve">
<path fill="#FFFFFF" d="M240.554,23.947H134.072h-30.317H27.595c-7.581,0-13.78,6.202-13.78,13.779v10.568v18.048v5.764v13.784
	h13.78h106.478h106.481h13.779V72.107v-5.764V37.727C254.333,30.149,248.133,23.947,240.554,23.947z"/>
<path fill="#FFFFFF" d="M240.554,108.934H27.595h-13.78v13.779v5.764v121.096c0,7.582,5.37,10.68,11.934,6.892l96.391-55.652
	c6.563-3.793,17.304-3.793,23.868,0l96.393,55.652c6.563,3.789,11.934,0.69,11.934-6.892V128.477v-5.764v-13.779H240.554z
	 M160.851,163.058h-53.555v-19.217h53.555V163.058z"/>
</svg>
