<?xml version="1.0" encoding="utf-8"?>
<!-- Generator: Adobe Illustrator 16.0.0, SVG Export Plug-In . SVG Version: 6.00 Build 0)  -->
<!DOCTYPE svg PUBLIC "-//W3C//DTD SVG 1.1//EN" "http://www.w3.org/Graphics/SVG/1.1/DTD/svg11.dtd">
<svg version="1.1" id="Layer_1" xmlns="http://www.w3.org/2000/svg" xmlns:xlink="http://www.w3.org/1999/xlink" x="0px" y="0px"
	 width="268.147px" height="282.029px" viewBox="0 0 268.147 282.029" enable-background="new 0 0 268.147 282.029"
	 xml:space="preserve">
<g>
	<path fill="#FFFFFF" d="M244.366,29.51H102.67c0-10.778-8.734-19.51-19.508-19.51H29.016C18.384,10,9.755,18.51,9.529,29.085H9.507
		v14.697v10.947v18.694v5.971v14.278h14.274h220.585h14.273V79.394v-5.971V43.782C258.64,35.934,252.217,29.51,244.366,29.51z"/>
	<path fill="#FFFFFF" d="M23.781,117.54H9.507v14.272v5.971v125.433c0,7.853,5.563,11.063,12.361,7.139l99.842-57.646
		c6.799-3.929,17.926-3.929,24.724,0l99.843,57.646c6.799,3.924,12.361,0.714,12.361-7.139V137.783v-5.971V117.54h-14.273H23.781z"
		/>
</g>
</svg>
