<?xml version="1.0" encoding="utf-8"?>
<!-- Generator: Adobe Illustrator 16.0.0, SVG Export Plug-In . SVG Version: 6.00 Build 0)  -->
<!DOCTYPE svg PUBLIC "-//W3C//DTD SVG 1.1//EN" "http://www.w3.org/Graphics/SVG/1.1/DTD/svg11.dtd">
<svg version="1.1" id="Layer_1" xmlns="http://www.w3.org/2000/svg" xmlns:xlink="http://www.w3.org/1999/xlink" x="0px" y="0px"
	 width="268.147px" height="282.029px" viewBox="0 0 268.147 282.029" enable-background="new 0 0 268.147 282.029"
	 xml:space="preserve">
<g>
	<path fill="#FFFFFF" d="M252.786,20.999H100.274C100.274,9.398,90.874,0,79.278,0H20.999C9.554,0,0.268,9.159,0.023,20.542H0
		v15.819v11.783v20.121v6.426v15.367h15.364h237.421h15.362V74.691v-6.426V36.361C268.147,27.914,261.235,20.999,252.786,20.999z"/>
	<path fill="#FFFFFF" d="M252.786,115.748H15.364H0v15.362v6.426v135.006c0,8.453,5.987,11.907,13.305,7.684l107.464-62.045
		c7.317-4.229,19.292-4.229,26.609,0l107.464,62.045c7.317,4.224,13.305,0.769,13.305-7.684V137.537v-6.426v-15.362H252.786z
		 M163.928,176.09H104.22v-21.425h59.708V176.09z"/>
</g>
</svg>
