<?xml version="1.0" encoding="utf-8"?>
<!-- Generator: Adobe Illustrator 16.0.0, SVG Export Plug-In . SVG Version: 6.00 Build 0)  -->
<!DOCTYPE svg PUBLIC "-//W3C//DTD SVG 1.1//EN" "http://www.w3.org/Graphics/SVG/1.1/DTD/svg11.dtd">
<svg version="1.1" id="Layer_1" xmlns="http://www.w3.org/2000/svg" xmlns:xlink="http://www.w3.org/1999/xlink" x="0px" y="0px"
	 width="159.787px" height="24px" viewBox="0 0 159.787 24" enable-background="new 0 0 159.787 24" xml:space="preserve">
<g>
	<g>
		<path fill="#FFFFFF" d="M21.511,1.787H8.533C8.533,0.8,7.732,0,6.746,0H1.787C0.813,0,0.022,0.779,0.002,1.748H0v1.347v1.003V5.81
			v0.547v0.305c0,0.554,0.449,1.003,1.003,1.003h0.305h20.203h0.302c0.556,0,1.006-0.45,1.006-1.006V6.356V5.81V3.095
			C22.818,2.376,22.23,1.787,21.511,1.787z"/>
		<path fill="#FFFFFF" d="M21.815,9.85h-0.305H1.308H1.003C0.449,9.85,0,10.299,0,10.853v0.306v0.546v11.488
			c0,0.72,0.51,1.014,1.132,0.654l9.145-5.28c0.623-0.359,1.642-0.359,2.265,0l9.146,5.28c0.622,0.359,1.132,0.065,1.132-0.654
			V11.704v-0.546v-0.306C22.818,10.299,22.369,9.85,21.815,9.85z M13.009,14.985H9.81c-0.518,0-0.94-0.41-0.94-0.912
			c0-0.501,0.423-0.911,0.94-0.911h3.199c0.518,0,0.94,0.41,0.94,0.911C13.949,14.575,13.526,14.985,13.009,14.985z"/>
	</g>
	<g>
		<path fill="#FFFFFF" d="M39.24,18.795c0.084,0.146,0.125,0.296,0.125,0.448c0,0.293-0.094,0.51-0.281,0.648
			c-0.188,0.14-0.415,0.209-0.68,0.209s-0.487-0.056-0.668-0.167c-0.418-0.237-0.76-0.62-1.024-1.149s-0.396-1.31-0.396-2.341
			c0-0.696-0.209-1.212-0.627-1.546c-0.419-0.335-0.962-0.502-1.63-0.502h-4.222v4.702c0,0.292-0.083,0.532-0.25,0.721
			c-0.167,0.188-0.384,0.282-0.647,0.282c-0.321,0-0.597-0.098-0.826-0.292c-0.229-0.196-0.345-0.433-0.345-0.711V6.477
			c0-0.278,0.098-0.516,0.293-0.711c0.194-0.194,0.432-0.292,0.71-0.292h5.872c0.752,0,1.441,0.185,2.068,0.554
			s1.129,0.877,1.505,1.525c0.376,0.647,0.564,1.376,0.564,2.184c0,0.78-0.21,1.508-0.627,2.184
			c-0.418,0.676-0.955,1.181-1.609,1.515c0.515,0.266,0.923,0.635,1.223,1.107c0.299,0.475,0.463,1.024,0.49,1.651
			c0.056,0.794,0.119,1.333,0.188,1.619c0.069,0.285,0.223,0.49,0.46,0.616C39.045,18.526,39.157,18.648,39.24,18.795z
			 M35.594,12.244c0.313-0.251,0.567-0.589,0.763-1.014s0.293-0.901,0.293-1.432c0-0.669-0.206-1.236-0.616-1.703
			c-0.411-0.467-0.909-0.7-1.494-0.7h-4.702v5.266h4.765C34.949,12.634,35.281,12.494,35.594,12.244z"/>
		<path fill="#FFFFFF" d="M50.921,14.846c-0.195,0.174-0.425,0.261-0.689,0.261h-7.355c0.098,1.018,0.484,1.832,1.16,2.444
			c0.676,0.613,1.501,0.92,2.477,0.92c0.669,0,1.212-0.098,1.63-0.293c0.418-0.194,0.786-0.445,1.107-0.752
			c0.209-0.125,0.41-0.188,0.605-0.188c0.237,0,0.436,0.084,0.596,0.251s0.24,0.362,0.24,0.586c0,0.292-0.14,0.557-0.418,0.794
			c-0.404,0.403-0.94,0.744-1.609,1.023c-0.668,0.278-1.351,0.418-2.047,0.418c-1.129,0-2.121-0.237-2.978-0.711
			c-0.857-0.473-1.52-1.135-1.985-1.984c-0.467-0.85-0.7-1.811-0.7-2.884c0-1.17,0.24-2.197,0.721-3.083
			c0.48-0.884,1.114-1.563,1.901-2.036C44.363,9.137,45.21,8.9,46.115,8.9c0.892,0,1.728,0.229,2.508,0.689
			c0.779,0.46,1.406,1.094,1.88,1.902c0.474,0.808,0.718,1.713,0.731,2.716C51.221,14.459,51.116,14.671,50.921,14.846z
			 M44.088,11.397c-0.571,0.438-0.947,1.117-1.128,2.037h6.164v-0.167c-0.069-0.738-0.4-1.345-0.992-1.818
			c-0.593-0.473-1.264-0.71-2.017-0.71C45.335,10.739,44.659,10.959,44.088,11.397z"/>
		<path fill="#FFFFFF" d="M69.748,13.519v5.579c0,0.292-0.091,0.532-0.271,0.721c-0.181,0.188-0.418,0.282-0.711,0.282
			c-0.292,0-0.532-0.098-0.721-0.292c-0.188-0.196-0.282-0.433-0.282-0.711v-5.559c0-1.824-0.766-2.737-2.298-2.737
			c-0.544,0-1.034,0.122-1.474,0.365c-0.438,0.244-0.78,0.575-1.023,0.993c-0.244,0.418-0.365,0.878-0.365,1.379v5.559
			c0,0.278-0.095,0.515-0.283,0.711c-0.188,0.194-0.428,0.292-0.721,0.292c-0.292,0-0.529-0.095-0.71-0.282
			c-0.182-0.188-0.271-0.429-0.271-0.721v-5.579c0-0.822-0.175-1.48-0.522-1.975c-0.349-0.494-0.927-0.742-1.734-0.742
			c-0.822,0-1.501,0.261-2.037,0.784c-0.537,0.521-0.805,1.166-0.805,1.933v5.579c0,0.278-0.095,0.515-0.282,0.711
			c-0.188,0.194-0.429,0.292-0.721,0.292c-0.293,0-0.53-0.095-0.711-0.282c-0.182-0.188-0.271-0.429-0.271-0.721v-8.943
			c0-0.279,0.094-0.516,0.282-0.71c0.188-0.196,0.421-0.293,0.7-0.293c0.292,0,0.532,0.097,0.721,0.293
			c0.188,0.194,0.282,0.431,0.282,0.71v0.731c0.362-0.544,0.846-1,1.452-1.369c0.605-0.369,1.264-0.554,1.975-0.554
			c1.727,0,2.849,0.767,3.364,2.299c0.306-0.585,0.814-1.114,1.525-1.589c0.71-0.473,1.463-0.71,2.257-0.71
			C68.529,8.963,69.748,10.481,69.748,13.519z"/>
		<path fill="#FFFFFF" d="M72.726,7.448c-0.174-0.146-0.261-0.38-0.261-0.7V6.414c0-0.335,0.094-0.571,0.282-0.711
			c0.188-0.139,0.477-0.209,0.867-0.209c0.39,0,0.672,0.073,0.846,0.22c0.174,0.146,0.262,0.38,0.262,0.7v0.334
			c0,0.334-0.091,0.571-0.271,0.71c-0.182,0.141-0.467,0.209-0.856,0.209C73.189,7.667,72.899,7.595,72.726,7.448z M74.314,19.809
			c-0.188,0.194-0.429,0.292-0.721,0.292c-0.279,0-0.513-0.098-0.7-0.292c-0.188-0.196-0.282-0.433-0.282-0.711V10.05
			c0-0.278,0.094-0.516,0.282-0.711c0.188-0.195,0.421-0.292,0.7-0.292c0.292,0,0.532,0.097,0.721,0.292
			c0.188,0.195,0.281,0.433,0.281,0.711v9.048C74.596,19.376,74.502,19.612,74.314,19.809z"/>
		<path fill="#FFFFFF" d="M86.799,13.414v5.684c0,0.278-0.094,0.515-0.282,0.711c-0.188,0.194-0.428,0.292-0.721,0.292
			c-0.278,0-0.512-0.098-0.7-0.292c-0.188-0.196-0.282-0.433-0.282-0.711v-5.663c0-0.821-0.188-1.477-0.563-1.964
			c-0.376-0.488-0.989-0.731-1.839-0.731c-0.558,0-1.063,0.122-1.515,0.366c-0.453,0.243-0.809,0.571-1.065,0.981
			c-0.259,0.411-0.387,0.86-0.387,1.348v5.663c0,0.278-0.095,0.515-0.282,0.711c-0.188,0.194-0.429,0.292-0.722,0.292
			c-0.292,0-0.529-0.095-0.71-0.282c-0.182-0.188-0.271-0.429-0.271-0.721v-8.943c0-0.279,0.094-0.516,0.282-0.71
			c0.188-0.196,0.421-0.293,0.699-0.293c0.293,0,0.533,0.097,0.722,0.293c0.188,0.194,0.282,0.431,0.282,0.71v0.731
			c0.361-0.557,0.867-1.028,1.515-1.411S82.299,8.9,83.038,8.9C85.546,8.9,86.799,10.405,86.799,13.414z"/>
		<path fill="#FFFFFF" d="M89.776,7.448c-0.174-0.146-0.262-0.38-0.262-0.7V6.414c0-0.335,0.095-0.571,0.282-0.711
			c0.188-0.139,0.478-0.209,0.867-0.209c0.391,0,0.673,0.073,0.847,0.22c0.174,0.146,0.262,0.38,0.262,0.7v0.334
			c0,0.334-0.091,0.571-0.271,0.71c-0.182,0.141-0.468,0.209-0.857,0.209C90.239,7.667,89.95,7.595,89.776,7.448z M91.364,19.809
			c-0.188,0.194-0.428,0.292-0.721,0.292c-0.279,0-0.512-0.098-0.7-0.292c-0.188-0.196-0.282-0.433-0.282-0.711V10.05
			c0-0.278,0.094-0.516,0.282-0.711s0.421-0.292,0.7-0.292c0.293,0,0.533,0.097,0.721,0.292c0.188,0.195,0.282,0.433,0.282,0.711
			v9.048C91.646,19.376,91.553,19.612,91.364,19.809z"/>
		<path fill="#FFFFFF" d="M93.694,17.822c0-0.278,0.146-0.515,0.438-0.71c0.14-0.098,0.3-0.146,0.48-0.146
			c0.251,0,0.481,0.104,0.689,0.313c0.418,0.474,0.868,0.829,1.349,1.065c0.48,0.237,1.055,0.355,1.724,0.355
			c0.529-0.014,0.996-0.136,1.399-0.365c0.404-0.23,0.606-0.603,0.606-1.118c0-0.474-0.206-0.836-0.616-1.087
			c-0.411-0.25-1.014-0.48-1.808-0.688c-0.78-0.21-1.429-0.429-1.943-0.659c-0.516-0.229-0.951-0.564-1.306-1.002
			c-0.355-0.439-0.533-1.014-0.533-1.726c0-0.626,0.178-1.176,0.533-1.649c0.354-0.475,0.828-0.844,1.42-1.107
			C96.721,9.033,97.364,8.9,98.062,8.9c0.668,0,1.334,0.125,1.995,0.376c0.662,0.25,1.202,0.634,1.62,1.149
			c0.167,0.195,0.251,0.397,0.251,0.606c0,0.223-0.112,0.438-0.335,0.647c-0.139,0.125-0.313,0.188-0.522,0.188
			c-0.251,0-0.452-0.083-0.606-0.25c-0.292-0.335-0.65-0.593-1.075-0.773s-0.896-0.271-1.411-0.271
			c-0.529,0-0.979,0.108-1.348,0.323c-0.369,0.217-0.554,0.582-0.554,1.098c0.014,0.487,0.227,0.85,0.638,1.087
			c0.41,0.237,1.041,0.466,1.891,0.688c0.738,0.196,1.352,0.404,1.839,0.627s0.899,0.554,1.233,0.993
			c0.334,0.438,0.501,1.013,0.501,1.724c0,0.654-0.188,1.223-0.563,1.703c-0.377,0.48-0.867,0.85-1.474,1.107
			s-1.251,0.387-1.933,0.387c-0.878,0-1.689-0.154-2.435-0.46c-0.745-0.307-1.376-0.794-1.892-1.462
			C93.757,18.191,93.694,18.004,93.694,17.822z"/>
		<path fill="#FFFFFF" d="M111.988,9.423c0.731,0.349,1.097,0.794,1.097,1.337c0,0.237-0.076,0.45-0.229,0.638
			c-0.153,0.188-0.349,0.282-0.585,0.282c-0.182,0-0.324-0.028-0.429-0.084s-0.247-0.146-0.429-0.271
			c-0.083-0.084-0.216-0.181-0.396-0.292c-0.167-0.085-0.404-0.153-0.711-0.209c-0.306-0.056-0.585-0.084-0.835-0.084
			c-0.725,0-1.366,0.167-1.923,0.501c-0.558,0.335-0.989,0.798-1.296,1.391c-0.306,0.592-0.459,1.25-0.459,1.974
			c0,0.739,0.149,1.4,0.449,1.985c0.299,0.585,0.721,1.045,1.264,1.379c0.544,0.334,1.163,0.502,1.86,0.502
			c0.724,0,1.309-0.111,1.755-0.335c0.098-0.056,0.229-0.146,0.397-0.271c0.139-0.111,0.261-0.194,0.365-0.25
			s0.233-0.085,0.387-0.085c0.278,0,0.498,0.088,0.658,0.262c0.16,0.175,0.24,0.4,0.24,0.68c0,0.292-0.186,0.582-0.554,0.866
			c-0.369,0.286-0.864,0.52-1.483,0.7c-0.62,0.182-1.285,0.272-1.996,0.272c-1.059,0-1.992-0.247-2.8-0.741
			c-0.808-0.495-1.432-1.178-1.87-2.049c-0.439-0.87-0.658-1.842-0.658-2.915c0-1.072,0.23-2.043,0.689-2.915
			c0.459-0.87,1.101-1.553,1.923-2.047c0.821-0.495,1.762-0.742,2.82-0.742C110.341,8.9,111.257,9.075,111.988,9.423z"/>
		<path fill="#FFFFFF" d="M124.516,14.846c-0.195,0.174-0.426,0.261-0.69,0.261h-7.355c0.098,1.018,0.484,1.832,1.16,2.444
			c0.676,0.613,1.501,0.92,2.477,0.92c0.668,0,1.212-0.098,1.63-0.293c0.418-0.194,0.786-0.445,1.107-0.752
			c0.209-0.125,0.411-0.188,0.606-0.188c0.236,0,0.435,0.084,0.595,0.251s0.24,0.362,0.24,0.586c0,0.292-0.14,0.557-0.417,0.794
			c-0.404,0.403-0.941,0.744-1.609,1.023c-0.669,0.278-1.352,0.418-2.048,0.418c-1.129,0-2.121-0.237-2.978-0.711
			c-0.857-0.473-1.52-1.135-1.985-1.984c-0.467-0.85-0.7-1.811-0.7-2.884c0-1.17,0.24-2.197,0.721-3.083
			c0.48-0.884,1.114-1.563,1.902-2.036c0.786-0.475,1.633-0.711,2.538-0.711c0.892,0,1.728,0.229,2.508,0.689
			s1.407,1.094,1.881,1.902c0.473,0.808,0.717,1.713,0.731,2.716C124.814,14.459,124.71,14.671,124.516,14.846z M117.683,11.397
			c-0.571,0.438-0.947,1.117-1.129,2.037h6.165v-0.167c-0.07-0.738-0.401-1.345-0.993-1.818c-0.592-0.473-1.264-0.71-2.017-0.71
			C118.929,10.739,118.254,10.959,117.683,11.397z"/>
		<path fill="#FFFFFF" d="M136.468,13.414v5.684c0,0.278-0.094,0.515-0.282,0.711c-0.188,0.194-0.429,0.292-0.721,0.292
			c-0.279,0-0.513-0.098-0.7-0.292c-0.188-0.196-0.282-0.433-0.282-0.711v-5.663c0-0.821-0.188-1.477-0.563-1.964
			c-0.377-0.488-0.99-0.731-1.84-0.731c-0.557,0-1.063,0.122-1.515,0.366c-0.452,0.243-0.808,0.571-1.065,0.981
			c-0.258,0.411-0.387,0.86-0.387,1.348v5.663c0,0.278-0.094,0.515-0.282,0.711c-0.188,0.194-0.429,0.292-0.721,0.292
			c-0.293,0-0.529-0.095-0.71-0.282c-0.182-0.188-0.272-0.429-0.272-0.721v-8.943c0-0.279,0.095-0.516,0.282-0.71
			c0.188-0.196,0.422-0.293,0.7-0.293c0.292,0,0.532,0.097,0.721,0.293c0.188,0.194,0.282,0.431,0.282,0.71v0.731
			c0.361-0.557,0.867-1.028,1.515-1.411c0.648-0.383,1.341-0.574,2.079-0.574C135.214,8.9,136.468,10.405,136.468,13.414z"/>
		<path fill="#FFFFFF" d="M146.946,9.423c0.731,0.349,1.098,0.794,1.098,1.337c0,0.237-0.077,0.45-0.23,0.638
			c-0.153,0.188-0.348,0.282-0.585,0.282c-0.181,0-0.323-0.028-0.428-0.084s-0.248-0.146-0.429-0.271
			c-0.084-0.084-0.216-0.181-0.396-0.292c-0.168-0.085-0.404-0.153-0.711-0.209s-0.585-0.084-0.836-0.084
			c-0.725,0-1.365,0.167-1.922,0.501c-0.558,0.335-0.99,0.798-1.296,1.391c-0.307,0.592-0.46,1.25-0.46,1.974
			c0,0.739,0.149,1.4,0.449,1.985s0.721,1.045,1.265,1.379c0.543,0.334,1.162,0.502,1.859,0.502c0.725,0,1.31-0.111,1.755-0.335
			c0.098-0.056,0.23-0.146,0.397-0.271c0.139-0.111,0.261-0.194,0.366-0.25c0.104-0.056,0.232-0.085,0.386-0.085
			c0.278,0,0.498,0.088,0.658,0.262c0.16,0.175,0.24,0.4,0.24,0.68c0,0.292-0.185,0.582-0.554,0.866
			c-0.369,0.286-0.863,0.52-1.483,0.7c-0.62,0.182-1.285,0.272-1.995,0.272c-1.059,0-1.992-0.247-2.801-0.741
			c-0.808-0.495-1.432-1.178-1.87-2.049c-0.438-0.87-0.658-1.842-0.658-2.915c0-1.072,0.23-2.043,0.69-2.915
			c0.459-0.87,1.1-1.553,1.922-2.047c0.822-0.495,1.762-0.742,2.82-0.742C145.299,8.9,146.216,9.075,146.946,9.423z"/>
		<path fill="#FFFFFF" d="M159.474,14.846c-0.195,0.174-0.426,0.261-0.689,0.261h-7.355c0.098,1.018,0.483,1.832,1.16,2.444
			c0.675,0.613,1.5,0.92,2.476,0.92c0.669,0,1.212-0.098,1.63-0.293c0.418-0.194,0.787-0.445,1.107-0.752
			c0.209-0.125,0.411-0.188,0.605-0.188c0.237,0,0.436,0.084,0.597,0.251c0.159,0.167,0.24,0.362,0.24,0.586
			c0,0.292-0.14,0.557-0.419,0.794c-0.403,0.403-0.939,0.744-1.608,1.023c-0.669,0.278-1.352,0.418-2.048,0.418
			c-1.128,0-2.121-0.237-2.978-0.711c-0.856-0.473-1.519-1.135-1.985-1.984s-0.699-1.811-0.699-2.884c0-1.17,0.24-2.197,0.721-3.083
			c0.48-0.884,1.114-1.563,1.9-2.036c0.787-0.475,1.634-0.711,2.54-0.711c0.892,0,1.727,0.229,2.507,0.689s1.407,1.094,1.881,1.902
			c0.474,0.808,0.717,1.713,0.731,2.716C159.772,14.459,159.669,14.671,159.474,14.846z M152.641,11.397
			c-0.571,0.438-0.947,1.117-1.128,2.037h6.164v-0.167c-0.07-0.738-0.4-1.345-0.992-1.818c-0.593-0.473-1.265-0.71-2.017-0.71
			C153.888,10.739,153.212,10.959,152.641,11.397z"/>
	</g>
</g>
</svg>
