<?xml version="1.0" encoding="utf-8"?>
<!-- Generator: Adobe Illustrator 16.0.0, SVG Export Plug-In . SVG Version: 6.00 Build 0)  -->
<!DOCTYPE svg PUBLIC "-//W3C//DTD SVG 1.1//EN" "http://www.w3.org/Graphics/SVG/1.1/DTD/svg11.dtd">
<svg version="1.1" id="Layer_1" xmlns="http://www.w3.org/2000/svg" xmlns:xlink="http://www.w3.org/1999/xlink" x="0px" y="0px"
	 width="213.052px" height="32px" viewBox="0 0 213.052 32" enable-background="new 0 0 213.052 32" xml:space="preserve">
<g>
	<g>
		<path fill="#29ABE2" d="M28.682,2.383H11.377C11.377,1.066,10.311,0,8.995,0H2.383C1.084,0,0.03,1.039,0.003,2.331H0v1.795v1.337
			v2.283v0.729v0.406c0,0.739,0.599,1.338,1.337,1.338h0.406h26.938h0.402c0.741,0,1.341-0.601,1.341-1.341V8.475V7.746v-3.62
			C30.425,3.168,29.641,2.383,28.682,2.383z"/>
		<path fill="#29ABE2" d="M29.087,13.133h-0.406H1.743H1.337C0.599,13.133,0,13.731,0,14.47v0.407v0.729v15.318
			c0,0.959,0.68,1.352,1.51,0.872l12.193-7.04c0.831-0.479,2.189-0.479,3.02,0l12.193,7.04c0.83,0.479,1.509,0.087,1.509-0.872
			V15.605v-0.729V14.47C30.425,13.731,29.826,13.133,29.087,13.133z M17.345,19.98H13.08c-0.69,0-1.254-0.547-1.254-1.216
			s0.564-1.216,1.254-1.216h4.266c0.69,0,1.254,0.547,1.254,1.216S18.035,19.98,17.345,19.98z"/>
	</g>
	<g>
		<path fill="#201F21" d="M52.321,25.06c0.111,0.194,0.167,0.395,0.167,0.599c0,0.391-0.125,0.679-0.376,0.864
			s-0.553,0.278-0.905,0.278c-0.353,0-0.65-0.074-0.892-0.223c-0.557-0.316-1.013-0.827-1.365-1.532
			c-0.353-0.706-0.529-1.746-0.529-3.121c0-0.929-0.279-1.616-0.836-2.062c-0.558-0.446-1.282-0.669-2.173-0.669h-5.628v6.27
			c0,0.39-0.111,0.71-0.334,0.961c-0.223,0.25-0.511,0.376-0.863,0.376c-0.428,0-0.794-0.13-1.101-0.39
			c-0.307-0.261-0.46-0.576-0.46-0.947V8.635c0-0.371,0.13-0.687,0.39-0.947c0.26-0.26,0.576-0.39,0.947-0.39h7.829
			c1.003,0,1.922,0.246,2.758,0.738s1.504,1.17,2.006,2.034c0.501,0.863,0.752,1.834,0.752,2.911c0,1.04-0.279,2.011-0.836,2.912
			c-0.557,0.9-1.272,1.573-2.145,2.02c0.687,0.354,1.23,0.846,1.629,1.477c0.399,0.632,0.618,1.365,0.655,2.201
			c0.074,1.059,0.158,1.778,0.251,2.159c0.093,0.381,0.297,0.654,0.613,0.822C52.061,24.702,52.21,24.864,52.321,25.06z
			 M47.459,16.325c0.418-0.335,0.756-0.785,1.017-1.352c0.26-0.566,0.39-1.202,0.39-1.908c0-0.893-0.274-1.648-0.822-2.271
			c-0.548-0.622-1.212-0.934-1.992-0.934h-6.269v7.021h6.353C46.6,16.845,47.042,16.659,47.459,16.325z"/>
		<path fill="#201F21" d="M67.896,19.794c-0.26,0.232-0.567,0.348-0.919,0.348h-9.807c0.13,1.356,0.645,2.443,1.546,3.26
			c0.9,0.817,2.001,1.227,3.302,1.227c0.892,0,1.616-0.13,2.173-0.391c0.558-0.26,1.049-0.594,1.477-1.003
			c0.279-0.167,0.548-0.251,0.808-0.251c0.316,0,0.581,0.112,0.794,0.334c0.213,0.224,0.32,0.483,0.32,0.781
			c0,0.39-0.186,0.742-0.558,1.059c-0.539,0.538-1.253,0.993-2.146,1.365c-0.891,0.371-1.802,0.557-2.73,0.557
			c-1.504,0-2.828-0.315-3.97-0.947c-1.143-0.631-2.025-1.514-2.647-2.646c-0.623-1.133-0.933-2.414-0.933-3.845
			c0-1.561,0.32-2.93,0.961-4.11c0.641-1.179,1.486-2.084,2.535-2.716s2.178-0.947,3.386-0.947c1.188,0,2.303,0.306,3.343,0.919
			c1.04,0.613,1.875,1.459,2.507,2.536c0.631,1.077,0.957,2.284,0.975,3.621C68.295,19.278,68.156,19.562,67.896,19.794z
			 M58.785,15.196c-0.762,0.585-1.263,1.49-1.504,2.717H65.5V17.69c-0.093-0.984-0.534-1.793-1.323-2.425
			c-0.79-0.631-1.686-0.947-2.688-0.947C60.447,14.318,59.547,14.611,58.785,15.196z"/>
		<path fill="#201F21" d="M92.999,18.024v7.439c0,0.39-0.121,0.71-0.362,0.961c-0.241,0.25-0.557,0.376-0.947,0.376
			c-0.39,0-0.71-0.13-0.961-0.39c-0.251-0.261-0.376-0.576-0.376-0.947v-7.412c0-2.433-1.021-3.649-3.064-3.649
			c-0.725,0-1.379,0.162-1.964,0.487s-1.041,0.767-1.365,1.323c-0.325,0.558-0.487,1.171-0.487,1.839v7.412
			c0,0.371-0.125,0.687-0.376,0.947c-0.25,0.26-0.571,0.39-0.961,0.39s-0.707-0.126-0.947-0.376
			c-0.242-0.251-0.362-0.571-0.362-0.961v-7.439c0-1.096-0.233-1.974-0.697-2.633c-0.464-0.659-1.235-0.989-2.313-0.989
			c-1.096,0-2.001,0.348-2.716,1.045c-0.715,0.696-1.073,1.556-1.073,2.577v7.439c0,0.371-0.125,0.687-0.376,0.947
			c-0.251,0.26-0.571,0.39-0.961,0.39s-0.706-0.126-0.947-0.376c-0.242-0.251-0.362-0.571-0.362-0.961V13.539
			c0-0.372,0.125-0.688,0.376-0.947c0.25-0.261,0.562-0.391,0.933-0.391c0.39,0,0.71,0.13,0.961,0.391
			c0.25,0.26,0.376,0.575,0.376,0.947v0.975c0.483-0.725,1.128-1.333,1.937-1.825c0.808-0.492,1.686-0.738,2.633-0.738
			c2.303,0,3.798,1.022,4.486,3.065c0.408-0.78,1.086-1.486,2.034-2.118c0.947-0.631,1.95-0.947,3.009-0.947
			C91.374,11.95,92.999,13.976,92.999,18.024z"/>
		<path fill="#201F21" d="M96.969,9.931c-0.232-0.195-0.348-0.506-0.348-0.934V8.552c0-0.446,0.125-0.762,0.376-0.947
			c0.251-0.186,0.636-0.279,1.156-0.279s0.896,0.098,1.128,0.293c0.232,0.194,0.349,0.507,0.349,0.934v0.445
			c0,0.445-0.121,0.762-0.362,0.947c-0.242,0.187-0.623,0.278-1.142,0.278C97.587,10.223,97.201,10.126,96.969,9.931z
			 M99.087,26.411c-0.251,0.26-0.571,0.39-0.961,0.39c-0.372,0-0.683-0.13-0.934-0.39c-0.251-0.261-0.376-0.576-0.376-0.947V13.399
			c0-0.371,0.125-0.688,0.376-0.947c0.25-0.261,0.562-0.39,0.934-0.39c0.39,0,0.71,0.129,0.961,0.39
			c0.251,0.26,0.376,0.576,0.376,0.947v12.064C99.463,25.835,99.338,26.15,99.087,26.411z"/>
		<path fill="#201F21" d="M115.734,17.885v7.579c0,0.371-0.125,0.687-0.376,0.947c-0.25,0.26-0.571,0.39-0.961,0.39
			c-0.372,0-0.683-0.13-0.934-0.39c-0.25-0.261-0.376-0.576-0.376-0.947v-7.551c0-1.096-0.25-1.969-0.752-2.619
			c-0.502-0.65-1.319-0.976-2.452-0.976c-0.743,0-1.417,0.163-2.02,0.488c-0.604,0.324-1.078,0.762-1.421,1.309
			c-0.344,0.549-0.516,1.147-0.516,1.798v7.551c0,0.371-0.125,0.687-0.376,0.947c-0.251,0.26-0.571,0.39-0.961,0.39
			s-0.706-0.126-0.947-0.376c-0.242-0.251-0.362-0.571-0.362-0.961V13.539c0-0.372,0.125-0.688,0.376-0.947
			c0.25-0.261,0.562-0.391,0.933-0.391c0.39,0,0.71,0.13,0.961,0.391c0.25,0.26,0.376,0.575,0.376,0.947v0.975
			c0.483-0.742,1.156-1.37,2.02-1.881s1.787-0.766,2.772-0.766C114.063,11.867,115.734,13.873,115.734,17.885z"/>
		<path fill="#201F21" d="M119.704,9.931c-0.233-0.195-0.349-0.506-0.349-0.934V8.552c0-0.446,0.125-0.762,0.376-0.947
			c0.251-0.186,0.636-0.279,1.156-0.279s0.896,0.098,1.129,0.293c0.231,0.194,0.348,0.507,0.348,0.934v0.445
			c0,0.445-0.121,0.762-0.362,0.947c-0.242,0.187-0.623,0.278-1.142,0.278C120.321,10.223,119.936,10.126,119.704,9.931z
			 M121.821,26.411c-0.251,0.26-0.571,0.39-0.961,0.39c-0.372,0-0.683-0.13-0.934-0.39c-0.251-0.261-0.376-0.576-0.376-0.947V13.399
			c0-0.371,0.125-0.688,0.376-0.947c0.251-0.261,0.562-0.39,0.934-0.39c0.39,0,0.71,0.129,0.961,0.39
			c0.251,0.26,0.376,0.576,0.376,0.947v12.064C122.197,25.835,122.072,26.15,121.821,26.411z"/>
		<path fill="#201F21" d="M124.928,23.764c0-0.371,0.195-0.687,0.585-0.947c0.186-0.13,0.399-0.194,0.641-0.194
			c0.334,0,0.641,0.139,0.919,0.417c0.557,0.632,1.157,1.105,1.797,1.421c0.641,0.316,1.407,0.474,2.298,0.474
			c0.706-0.018,1.328-0.181,1.867-0.487s0.808-0.803,0.808-1.49c0-0.632-0.274-1.115-0.822-1.449
			c-0.548-0.334-1.352-0.641-2.41-0.919c-1.041-0.279-1.904-0.571-2.591-0.878c-0.688-0.307-1.268-0.753-1.742-1.337
			c-0.474-0.585-0.71-1.352-0.71-2.3c0-0.835,0.237-1.568,0.71-2.2s1.105-1.124,1.895-1.477s1.648-0.529,2.578-0.529
			c0.891,0,1.778,0.167,2.66,0.501c0.882,0.334,1.603,0.846,2.16,1.533c0.223,0.26,0.334,0.529,0.334,0.808
			c0,0.297-0.149,0.585-0.446,0.863c-0.186,0.167-0.417,0.251-0.696,0.251c-0.334,0-0.604-0.111-0.808-0.334
			c-0.39-0.446-0.869-0.79-1.435-1.031c-0.567-0.241-1.194-0.362-1.881-0.362c-0.706,0-1.305,0.145-1.797,0.432
			c-0.493,0.289-0.739,0.776-0.739,1.463c0.019,0.65,0.302,1.133,0.85,1.449c0.547,0.316,1.388,0.622,2.521,0.919
			c0.984,0.261,1.801,0.539,2.452,0.836c0.65,0.297,1.198,0.738,1.644,1.323c0.446,0.586,0.668,1.352,0.668,2.299
			c0,0.873-0.25,1.63-0.752,2.271c-0.502,0.64-1.156,1.132-1.964,1.477c-0.808,0.343-1.667,0.515-2.577,0.515
			c-1.17,0-2.252-0.205-3.246-0.612c-0.994-0.409-1.834-1.06-2.521-1.95C125.011,24.256,124.928,24.006,124.928,23.764z"/>
		<path fill="#201F21" d="M149.32,12.563c0.975,0.465,1.463,1.059,1.463,1.783c0,0.315-0.102,0.6-0.307,0.85
			c-0.205,0.251-0.464,0.376-0.78,0.376c-0.242,0-0.432-0.037-0.571-0.111c-0.14-0.074-0.33-0.195-0.571-0.362
			c-0.111-0.111-0.288-0.24-0.529-0.39c-0.223-0.112-0.539-0.204-0.947-0.278c-0.409-0.074-0.78-0.112-1.114-0.112
			c-0.966,0-1.821,0.224-2.563,0.669c-0.743,0.446-1.319,1.063-1.728,1.854c-0.409,0.789-0.613,1.667-0.613,2.632
			c0,0.985,0.199,1.867,0.599,2.647c0.399,0.779,0.961,1.393,1.686,1.839c0.725,0.445,1.551,0.669,2.479,0.669
			c0.966,0,1.746-0.148,2.341-0.446c0.129-0.074,0.306-0.195,0.529-0.362c0.186-0.148,0.349-0.26,0.488-0.334
			s0.311-0.112,0.516-0.112c0.371,0,0.664,0.117,0.877,0.349c0.213,0.233,0.32,0.534,0.32,0.906c0,0.39-0.247,0.775-0.738,1.155
			c-0.492,0.381-1.152,0.692-1.978,0.934c-0.827,0.241-1.714,0.362-2.661,0.362c-1.412,0-2.656-0.329-3.733-0.988
			s-1.908-1.569-2.493-2.731c-0.585-1.16-0.878-2.456-0.878-3.887c0-1.43,0.307-2.725,0.919-3.887
			c0.613-1.16,1.467-2.07,2.563-2.729c1.096-0.66,2.349-0.989,3.761-0.989C147.123,11.867,148.345,12.1,149.32,12.563z"/>
		<path fill="#201F21" d="M166.023,19.794c-0.26,0.232-0.567,0.348-0.919,0.348h-9.808c0.13,1.356,0.646,2.443,1.547,3.26
			c0.9,0.817,2.001,1.227,3.301,1.227c0.892,0,1.616-0.13,2.173-0.391c0.557-0.26,1.049-0.594,1.477-1.003
			c0.279-0.167,0.548-0.251,0.808-0.251c0.315,0,0.58,0.112,0.794,0.334c0.213,0.224,0.32,0.483,0.32,0.781
			c0,0.39-0.186,0.742-0.557,1.059c-0.539,0.538-1.254,0.993-2.146,1.365c-0.892,0.371-1.802,0.557-2.73,0.557
			c-1.504,0-2.828-0.315-3.97-0.947c-1.142-0.631-2.025-1.514-2.647-2.646s-0.933-2.414-0.933-3.845c0-1.561,0.32-2.93,0.961-4.11
			c0.641-1.179,1.485-2.084,2.535-2.716c1.049-0.632,2.178-0.947,3.385-0.947c1.188,0,2.303,0.306,3.343,0.919
			s1.876,1.459,2.508,2.536c0.631,1.077,0.956,2.284,0.975,3.621C166.422,19.278,166.283,19.562,166.023,19.794z M156.912,15.196
			c-0.762,0.585-1.263,1.49-1.504,2.717h8.219V17.69c-0.093-0.984-0.534-1.793-1.323-2.425c-0.79-0.631-1.686-0.947-2.689-0.947
			C158.574,14.318,157.674,14.611,156.912,15.196z"/>
		<path fill="#201F21" d="M181.959,17.885v7.579c0,0.371-0.125,0.687-0.376,0.947c-0.25,0.26-0.571,0.39-0.961,0.39
			c-0.372,0-0.683-0.13-0.934-0.39c-0.25-0.261-0.376-0.576-0.376-0.947v-7.551c0-1.096-0.25-1.969-0.752-2.619
			c-0.502-0.65-1.319-0.976-2.452-0.976c-0.743,0-1.417,0.163-2.02,0.488c-0.604,0.324-1.078,0.762-1.421,1.309
			c-0.344,0.549-0.515,1.147-0.515,1.798v7.551c0,0.371-0.125,0.687-0.376,0.947c-0.251,0.26-0.571,0.39-0.961,0.39
			s-0.706-0.126-0.947-0.376c-0.242-0.251-0.362-0.571-0.362-0.961V13.539c0-0.372,0.125-0.688,0.376-0.947
			c0.251-0.261,0.562-0.391,0.934-0.391c0.39,0,0.71,0.13,0.961,0.391c0.25,0.26,0.376,0.575,0.376,0.947v0.975
			c0.482-0.742,1.156-1.37,2.02-1.881c0.864-0.511,1.788-0.766,2.772-0.766C180.288,11.867,181.959,13.873,181.959,17.885z"/>
		<path fill="#201F21" d="M195.932,12.563c0.975,0.465,1.463,1.059,1.463,1.783c0,0.315-0.103,0.6-0.307,0.85
			c-0.205,0.251-0.464,0.376-0.78,0.376c-0.241,0-0.432-0.037-0.571-0.111c-0.14-0.074-0.33-0.195-0.571-0.362
			c-0.112-0.111-0.288-0.24-0.529-0.39c-0.223-0.112-0.539-0.204-0.947-0.278c-0.409-0.074-0.78-0.112-1.115-0.112
			c-0.966,0-1.82,0.224-2.563,0.669c-0.743,0.446-1.319,1.063-1.728,1.854c-0.409,0.789-0.613,1.667-0.613,2.632
			c0,0.985,0.199,1.867,0.599,2.647c0.399,0.779,0.961,1.393,1.686,1.839c0.724,0.445,1.55,0.669,2.479,0.669
			c0.966,0,1.746-0.148,2.34-0.446c0.13-0.074,0.307-0.195,0.529-0.362c0.186-0.148,0.349-0.26,0.488-0.334s0.311-0.112,0.515-0.112
			c0.372,0,0.664,0.117,0.878,0.349c0.213,0.233,0.32,0.534,0.32,0.906c0,0.39-0.247,0.775-0.738,1.155
			c-0.492,0.381-1.152,0.692-1.978,0.934c-0.827,0.241-1.714,0.362-2.661,0.362c-1.412,0-2.656-0.329-3.733-0.988
			s-1.909-1.569-2.494-2.731c-0.585-1.16-0.877-2.456-0.877-3.887c0-1.43,0.307-2.725,0.919-3.887
			c0.613-1.16,1.467-2.07,2.563-2.729c1.096-0.66,2.349-0.989,3.761-0.989C193.735,11.867,194.957,12.1,195.932,12.563z"/>
		<path fill="#201F21" d="M212.634,19.794c-0.26,0.232-0.567,0.348-0.919,0.348h-9.807c0.13,1.356,0.645,2.443,1.546,3.26
			c0.9,0.817,2.001,1.227,3.302,1.227c0.892,0,1.616-0.13,2.173-0.391c0.558-0.26,1.049-0.594,1.477-1.003
			c0.279-0.167,0.548-0.251,0.808-0.251c0.316,0,0.581,0.112,0.794,0.334c0.213,0.224,0.32,0.483,0.32,0.781
			c0,0.39-0.186,0.742-0.558,1.059c-0.539,0.538-1.253,0.993-2.145,1.365c-0.892,0.371-1.802,0.557-2.73,0.557
			c-1.504,0-2.828-0.315-3.97-0.947c-1.143-0.631-2.025-1.514-2.647-2.646c-0.623-1.133-0.933-2.414-0.933-3.845
			c0-1.561,0.32-2.93,0.961-4.11c0.641-1.179,1.486-2.084,2.535-2.716s2.178-0.947,3.386-0.947c1.188,0,2.303,0.306,3.343,0.919
			c1.04,0.613,1.875,1.459,2.507,2.536c0.631,1.077,0.957,2.284,0.975,3.621C213.034,19.278,212.895,19.562,212.634,19.794z
			 M203.523,15.196c-0.762,0.585-1.263,1.49-1.504,2.717h8.219V17.69c-0.093-0.984-0.534-1.793-1.323-2.425
			c-0.79-0.631-1.686-0.947-2.688-0.947C205.186,14.318,204.285,14.611,203.523,15.196z"/>
	</g>
</g>
</svg>
