<?xml version="1.0" encoding="utf-8"?>
<!-- Generator: Adobe Illustrator 16.0.0, SVG Export Plug-In . SVG Version: 6.00 Build 0)  -->
<!DOCTYPE svg PUBLIC "-//W3C//DTD SVG 1.1//EN" "http://www.w3.org/Graphics/SVG/1.1/DTD/svg11.dtd">
<svg version="1.1" id="Layer_1" xmlns="http://www.w3.org/2000/svg" xmlns:xlink="http://www.w3.org/1999/xlink" x="0px" y="0px"
	 width="30.425px" height="32px" viewBox="0 0 30.425 32" enable-background="new 0 0 30.425 32" xml:space="preserve">
<g>
	<path fill="#29ABE2" d="M28.682,2.383H11.377C11.377,1.066,10.311,0,8.995,0H2.383C1.084,0,0.03,1.039,0.003,2.331H0v1.795v1.337
		v2.283v0.729v0.406c0,0.739,0.599,1.338,1.337,1.338h0.406h26.938h0.402c0.741,0,1.341-0.601,1.341-1.341V8.475V7.746v-3.62
		C30.425,3.168,29.641,2.383,28.682,2.383z"/>
	<path fill="#29ABE2" d="M29.087,13.133h-0.406H1.743H1.337C0.599,13.133,0,13.731,0,14.47v0.407v0.729v15.318
		c0,0.959,0.68,1.352,1.51,0.872l12.193-7.04c0.831-0.479,2.189-0.479,3.02,0l12.193,7.04c0.83,0.479,1.509,0.087,1.509-0.872
		V15.605v-0.729V14.47C30.425,13.731,29.826,13.133,29.087,13.133z M17.345,19.98H13.08c-0.69,0-1.254-0.547-1.254-1.216
		s0.564-1.216,1.254-1.216h4.266c0.69,0,1.254,0.547,1.254,1.216S18.035,19.98,17.345,19.98z"/>
</g>
</svg>
